<?xml version="1.0" encoding="UTF-8" standalone="no"?><svg xmlns="http://www.w3.org/2000/svg" xmlns:xlink="http://www.w3.org/1999/xlink" contentScriptType="application/ecmascript" contentStyleType="text/css" height="452px" preserveAspectRatio="none" style="width:541px;height:452px;" version="1.1" viewBox="0 0 541 452" width="541px" zoomAndPan="magnify"><defs><filter height="300%" id="f1ratrx9txjc1" width="300%" x="-1" y="-1"><feGaussianBlur result="blurOut" stdDeviation="2.0"/><feColorMatrix in="blurOut" result="blurOut2" type="matrix" values="0 0 0 0 0 0 0 0 0 0 0 0 0 0 0 0 0 0 .4 0"/><feOffset dx="4.0" dy="4.0" in="blurOut2" result="blurOut3"/><feBlend in="SourceGraphic" in2="blurOut3" mode="normal"/></filter></defs><g><!--cluster cardfilesystem--><polygon fill="#FFFFFF" filter="url(#f1ratrx9txjc1)" points="22,24,130,24,137,47.6094,519,47.6094,519,440,22,440,22,24" style="stroke: #000000; stroke-width: 1.5;"/><line style="stroke: #000000; stroke-width: 1.5;" x1="22" x2="137" y1="47.6094" y2="47.6094"/><text fill="#000000" font-family="sans-serif" font-size="14" font-weight="bold" lengthAdjust="spacingAndGlyphs" textLength="102" x="26" y="40.5332">cardfilesystem</text><!--class cardfilesystem.Egk21FileSystem--><rect fill="#FEFECE" filter="url(#f1ratrx9txjc1)" height="158.6875" id="cardfilesystem.Egk21FileSystem" style="stroke: #A80036; stroke-width: 1.5;" width="128" x="38" y="60"/><ellipse cx="53" cy="76" fill="#ADD1B2" rx="11" ry="11" style="stroke: #A80036; stroke-width: 1.0;"/><path d="M55,72.5 Q55.2031,72 55.4375,71.75 Q55.6719,71.5 55.9375,71.5 Q56.4063,71.5 56.7031,71.7813 Q57,72.0625 57,72.7188 L57,74.2813 Q57,74.9375 56.7188,75.2188 Q56.4375,75.5 56,75.5 Q55.6094,75.5 55.3594,75.3281 Q55.1094,75.1563 55,74.7031 Q54.9531,74.3906 54.7813,74.2188 Q54.4688,73.8906 53.9063,73.7031 Q53.3438,73.5 52.7813,73.5 Q52.0781,73.5 51.4844,73.7813 Q50.9063,74.0625 50.4531,74.6875 Q50,75.3125 50,76.1719 L50,77.0938 Q50,78.125 50.8438,78.8125 Q51.6875,79.5 53.1875,79.5 Q54.0781,79.5 54.7031,79.2969 Q55.0625,79.1875 55.4688,78.8281 Q55.7344,78.625 55.875,78.5625 Q56.0156,78.5 56.1875,78.5 Q56.5156,78.5 56.75,78.7656 Q57,79.0156 57,79.375 Q57,79.7188 56.6563,80.125 Q56.1563,80.7188 55.3594,81.0469 Q54.3125,81.5 53.0313,81.5 Q51.5313,81.5 50.3281,80.9063 Q49.3594,80.4375 48.6719,79.4219 Q48,78.4063 48,77.2031 L48,76.1094 Q48,74.8594 48.5938,73.7656 Q49.2031,72.6719 50.25,72.0938 Q51.3125,71.5 52.5,71.5 Q53.2188,71.5 53.8438,71.75 Q54.4688,72 55,72.5 Z "/><text fill="#000000" font-family="sans-serif" font-size="12" lengthAdjust="spacingAndGlyphs" textLength="96" x="67" y="80.9102">Egk21FileSystem</text><line style="stroke: #A80036; stroke-width: 1.5;" x1="39" x2="165" y1="92" y2="92"/><ellipse cx="49" cy="104.418" fill="none" rx="3" ry="3" style="stroke: #038048; stroke-width: 1.0;"/><text fill="#000000" font-family="sans-serif" font-size="11" lengthAdjust="spacingAndGlyphs" text-decoration="underline" textLength="54" x="58" y="107.4189">AID : String</text><ellipse cx="49" cy="118.2539" fill="none" rx="3" ry="3" style="stroke: #038048; stroke-width: 1.0;"/><text fill="#000000" font-family="sans-serif" font-size="11" lengthAdjust="spacingAndGlyphs" text-decoration="underline" textLength="33" x="58" y="121.2549">DF : Df</text><ellipse cx="49" cy="132.0898" fill="none" rx="3" ry="3" style="stroke: #038048; stroke-width: 1.0;"/><text fill="#000000" font-family="sans-serif" font-size="11" lengthAdjust="spacingAndGlyphs" text-decoration="underline" textLength="31" x="58" y="135.0908">EF : Ef</text><ellipse cx="49" cy="145.9258" fill="none" rx="3" ry="3" style="stroke: #038048; stroke-width: 1.0;"/><text fill="#000000" font-family="sans-serif" font-size="11" lengthAdjust="spacingAndGlyphs" text-decoration="underline" textLength="35" x="58" y="148.9268">FID : int</text><ellipse cx="49" cy="159.7617" fill="none" rx="3" ry="3" style="stroke: #038048; stroke-width: 1.0;"/><text fill="#000000" font-family="sans-serif" font-size="11" lengthAdjust="spacingAndGlyphs" text-decoration="underline" textLength="65" x="58" y="162.7627">MRPIN : MrPin</text><ellipse cx="49" cy="173.5977" fill="none" rx="3" ry="3" style="stroke: #038048; stroke-width: 1.0;"/><text fill="#000000" font-family="sans-serif" font-size="11" lengthAdjust="spacingAndGlyphs" text-decoration="underline" textLength="38" x="58" y="176.5986">PIN : Pin</text><ellipse cx="49" cy="187.4336" fill="none" rx="3" ry="3" style="stroke: #038048; stroke-width: 1.0;"/><text fill="#000000" font-family="sans-serif" font-size="11" lengthAdjust="spacingAndGlyphs" text-decoration="underline" textLength="43" x="58" y="190.4346">PrK : PrK</text><ellipse cx="49" cy="201.2695" fill="none" rx="3" ry="3" style="stroke: #038048; stroke-width: 1.0;"/><text fill="#000000" font-family="sans-serif" font-size="11" lengthAdjust="spacingAndGlyphs" text-decoration="underline" textLength="35" x="58" y="204.2705">SK : Sk</text><line style="stroke: #A80036; stroke-width: 1.5;" x1="39" x2="165" y1="210.6875" y2="210.6875"/><!--class cardfilesystem.Egk2FileSystem--><rect fill="#FEFECE" filter="url(#f1ratrx9txjc1)" height="158.6875" id="cardfilesystem.Egk2FileSystem" style="stroke: #A80036; stroke-width: 1.5;" width="121" x="201.5" y="60"/><ellipse cx="216.5" cy="76" fill="#ADD1B2" rx="11" ry="11" style="stroke: #A80036; stroke-width: 1.0;"/><path d="M218.5,72.5 Q218.7031,72 218.9375,71.75 Q219.1719,71.5 219.4375,71.5 Q219.9063,71.5 220.2031,71.7813 Q220.5,72.0625 220.5,72.7188 L220.5,74.2813 Q220.5,74.9375 220.2188,75.2188 Q219.9375,75.5 219.5,75.5 Q219.1094,75.5 218.8594,75.3281 Q218.6094,75.1563 218.5,74.7031 Q218.4531,74.3906 218.2813,74.2188 Q217.9688,73.8906 217.4063,73.7031 Q216.8438,73.5 216.2813,73.5 Q215.5781,73.5 214.9844,73.7813 Q214.4063,74.0625 213.9531,74.6875 Q213.5,75.3125 213.5,76.1719 L213.5,77.0938 Q213.5,78.125 214.3438,78.8125 Q215.1875,79.5 216.6875,79.5 Q217.5781,79.5 218.2031,79.2969 Q218.5625,79.1875 218.9688,78.8281 Q219.2344,78.625 219.375,78.5625 Q219.5156,78.5 219.6875,78.5 Q220.0156,78.5 220.25,78.7656 Q220.5,79.0156 220.5,79.375 Q220.5,79.7188 220.1563,80.125 Q219.6563,80.7188 218.8594,81.0469 Q217.8125,81.5 216.5313,81.5 Q215.0313,81.5 213.8281,80.9063 Q212.8594,80.4375 212.1719,79.4219 Q211.5,78.4063 211.5,77.2031 L211.5,76.1094 Q211.5,74.8594 212.0938,73.7656 Q212.7031,72.6719 213.75,72.0938 Q214.8125,71.5 216,71.5 Q216.7188,71.5 217.3438,71.75 Q217.9688,72 218.5,72.5 Z "/><text fill="#000000" font-family="sans-serif" font-size="12" lengthAdjust="spacingAndGlyphs" textLength="89" x="230.5" y="80.9102">Egk2FileSystem</text><line style="stroke: #A80036; stroke-width: 1.5;" x1="202.5" x2="321.5" y1="92" y2="92"/><ellipse cx="212.5" cy="104.418" fill="none" rx="3" ry="3" style="stroke: #038048; stroke-width: 1.0;"/><text fill="#000000" font-family="sans-serif" font-size="11" lengthAdjust="spacingAndGlyphs" text-decoration="underline" textLength="54" x="221.5" y="107.4189">AID : String</text><ellipse cx="212.5" cy="118.2539" fill="none" rx="3" ry="3" style="stroke: #038048; stroke-width: 1.0;"/><text fill="#000000" font-family="sans-serif" font-size="11" lengthAdjust="spacingAndGlyphs" text-decoration="underline" textLength="33" x="221.5" y="121.2549">DF : Df</text><ellipse cx="212.5" cy="132.0898" fill="none" rx="3" ry="3" style="stroke: #038048; stroke-width: 1.0;"/><text fill="#000000" font-family="sans-serif" font-size="11" lengthAdjust="spacingAndGlyphs" text-decoration="underline" textLength="31" x="221.5" y="135.0908">EF : Ef</text><ellipse cx="212.5" cy="145.9258" fill="none" rx="3" ry="3" style="stroke: #038048; stroke-width: 1.0;"/><text fill="#000000" font-family="sans-serif" font-size="11" lengthAdjust="spacingAndGlyphs" text-decoration="underline" textLength="35" x="221.5" y="148.9268">FID : int</text><ellipse cx="212.5" cy="159.7617" fill="none" rx="3" ry="3" style="stroke: #038048; stroke-width: 1.0;"/><text fill="#000000" font-family="sans-serif" font-size="11" lengthAdjust="spacingAndGlyphs" text-decoration="underline" textLength="65" x="221.5" y="162.7627">MRPIN : MrPin</text><ellipse cx="212.5" cy="173.5977" fill="none" rx="3" ry="3" style="stroke: #038048; stroke-width: 1.0;"/><text fill="#000000" font-family="sans-serif" font-size="11" lengthAdjust="spacingAndGlyphs" text-decoration="underline" textLength="38" x="221.5" y="176.5986">PIN : Pin</text><ellipse cx="212.5" cy="187.4336" fill="none" rx="3" ry="3" style="stroke: #038048; stroke-width: 1.0;"/><text fill="#000000" font-family="sans-serif" font-size="11" lengthAdjust="spacingAndGlyphs" text-decoration="underline" textLength="43" x="221.5" y="190.4346">PrK : PrK</text><ellipse cx="212.5" cy="201.2695" fill="none" rx="3" ry="3" style="stroke: #038048; stroke-width: 1.0;"/><text fill="#000000" font-family="sans-serif" font-size="11" lengthAdjust="spacingAndGlyphs" text-decoration="underline" textLength="35" x="221.5" y="204.2705">SK : Sk</text><line style="stroke: #A80036; stroke-width: 1.5;" x1="202.5" x2="321.5" y1="210.6875" y2="210.6875"/><!--class cardfilesystem.Hba21FileSystem--><rect fill="#FEFECE" filter="url(#f1ratrx9txjc1)" height="144.8516" id="cardfilesystem.Hba21FileSystem" style="stroke: #A80036; stroke-width: 1.5;" width="130" x="358" y="67"/><ellipse cx="373" cy="83" fill="#ADD1B2" rx="11" ry="11" style="stroke: #A80036; stroke-width: 1.0;"/><path d="M375,79.5 Q375.2031,79 375.4375,78.75 Q375.6719,78.5 375.9375,78.5 Q376.4063,78.5 376.7031,78.7813 Q377,79.0625 377,79.7188 L377,81.2813 Q377,81.9375 376.7188,82.2188 Q376.4375,82.5 376,82.5 Q375.6094,82.5 375.3594,82.3281 Q375.1094,82.1563 375,81.7031 Q374.9531,81.3906 374.7813,81.2188 Q374.4688,80.8906 373.9063,80.7031 Q373.3438,80.5 372.7813,80.5 Q372.0781,80.5 371.4844,80.7813 Q370.9063,81.0625 370.4531,81.6875 Q370,82.3125 370,83.1719 L370,84.0938 Q370,85.125 370.8438,85.8125 Q371.6875,86.5 373.1875,86.5 Q374.0781,86.5 374.7031,86.2969 Q375.0625,86.1875 375.4688,85.8281 Q375.7344,85.625 375.875,85.5625 Q376.0156,85.5 376.1875,85.5 Q376.5156,85.5 376.75,85.7656 Q377,86.0156 377,86.375 Q377,86.7188 376.6563,87.125 Q376.1563,87.7188 375.3594,88.0469 Q374.3125,88.5 373.0313,88.5 Q371.5313,88.5 370.3281,87.9063 Q369.3594,87.4375 368.6719,86.4219 Q368,85.4063 368,84.2031 L368,83.1094 Q368,81.8594 368.5938,80.7656 Q369.2031,79.6719 370.25,79.0938 Q371.3125,78.5 372.5,78.5 Q373.2188,78.5 373.8438,78.75 Q374.4688,79 375,79.5 Z "/><text fill="#000000" font-family="sans-serif" font-size="12" lengthAdjust="spacingAndGlyphs" textLength="98" x="387" y="87.9102">Hba21FileSystem</text><line style="stroke: #A80036; stroke-width: 1.5;" x1="359" x2="487" y1="99" y2="99"/><ellipse cx="369" cy="111.418" fill="none" rx="3" ry="3" style="stroke: #038048; stroke-width: 1.0;"/><text fill="#000000" font-family="sans-serif" font-size="11" lengthAdjust="spacingAndGlyphs" text-decoration="underline" textLength="54" x="378" y="114.4189">AID : String</text><ellipse cx="369" cy="125.2539" fill="none" rx="3" ry="3" style="stroke: #038048; stroke-width: 1.0;"/><text fill="#000000" font-family="sans-serif" font-size="11" lengthAdjust="spacingAndGlyphs" text-decoration="underline" textLength="33" x="378" y="128.2549">DF : Df</text><ellipse cx="369" cy="139.0898" fill="none" rx="3" ry="3" style="stroke: #038048; stroke-width: 1.0;"/><text fill="#000000" font-family="sans-serif" font-size="11" lengthAdjust="spacingAndGlyphs" text-decoration="underline" textLength="31" x="378" y="142.0908">EF : Ef</text><ellipse cx="369" cy="152.9258" fill="none" rx="3" ry="3" style="stroke: #038048; stroke-width: 1.0;"/><text fill="#000000" font-family="sans-serif" font-size="11" lengthAdjust="spacingAndGlyphs" text-decoration="underline" textLength="35" x="378" y="155.9268">FID : int</text><ellipse cx="369" cy="166.7617" fill="none" rx="3" ry="3" style="stroke: #038048; stroke-width: 1.0;"/><text fill="#000000" font-family="sans-serif" font-size="11" lengthAdjust="spacingAndGlyphs" text-decoration="underline" textLength="38" x="378" y="169.7627">PIN : Pin</text><ellipse cx="369" cy="180.5977" fill="none" rx="3" ry="3" style="stroke: #038048; stroke-width: 1.0;"/><text fill="#000000" font-family="sans-serif" font-size="11" lengthAdjust="spacingAndGlyphs" text-decoration="underline" textLength="43" x="378" y="183.5986">PrK : PrK</text><ellipse cx="369" cy="194.4336" fill="none" rx="3" ry="3" style="stroke: #038048; stroke-width: 1.0;"/><text fill="#000000" font-family="sans-serif" font-size="11" lengthAdjust="spacingAndGlyphs" text-decoration="underline" textLength="35" x="378" y="197.4346">SK : Sk</text><line style="stroke: #A80036; stroke-width: 1.5;" x1="359" x2="487" y1="203.8516" y2="203.8516"/><!--class cardfilesystem.Hba2FileSystem--><rect fill="#FEFECE" filter="url(#f1ratrx9txjc1)" height="144.8516" id="cardfilesystem.Hba2FileSystem" style="stroke: #A80036; stroke-width: 1.5;" width="123" x="38.5" y="279"/><ellipse cx="53.5" cy="295" fill="#ADD1B2" rx="11" ry="11" style="stroke: #A80036; stroke-width: 1.0;"/><path d="M55.5,291.5 Q55.7031,291 55.9375,290.75 Q56.1719,290.5 56.4375,290.5 Q56.9063,290.5 57.2031,290.7813 Q57.5,291.0625 57.5,291.7188 L57.5,293.2813 Q57.5,293.9375 57.2188,294.2188 Q56.9375,294.5 56.5,294.5 Q56.1094,294.5 55.8594,294.3281 Q55.6094,294.1563 55.5,293.7031 Q55.4531,293.3906 55.2813,293.2188 Q54.9688,292.8906 54.4063,292.7031 Q53.8438,292.5 53.2813,292.5 Q52.5781,292.5 51.9844,292.7813 Q51.4063,293.0625 50.9531,293.6875 Q50.5,294.3125 50.5,295.1719 L50.5,296.0938 Q50.5,297.125 51.3438,297.8125 Q52.1875,298.5 53.6875,298.5 Q54.5781,298.5 55.2031,298.2969 Q55.5625,298.1875 55.9688,297.8281 Q56.2344,297.625 56.375,297.5625 Q56.5156,297.5 56.6875,297.5 Q57.0156,297.5 57.25,297.7656 Q57.5,298.0156 57.5,298.375 Q57.5,298.7188 57.1563,299.125 Q56.6563,299.7188 55.8594,300.0469 Q54.8125,300.5 53.5313,300.5 Q52.0313,300.5 50.8281,299.9063 Q49.8594,299.4375 49.1719,298.4219 Q48.5,297.4063 48.5,296.2031 L48.5,295.1094 Q48.5,293.8594 49.0938,292.7656 Q49.7031,291.6719 50.75,291.0938 Q51.8125,290.5 53,290.5 Q53.7188,290.5 54.3438,290.75 Q54.9688,291 55.5,291.5 Z "/><text fill="#000000" font-family="sans-serif" font-size="12" lengthAdjust="spacingAndGlyphs" textLength="91" x="67.5" y="299.9102">Hba2FileSystem</text><line style="stroke: #A80036; stroke-width: 1.5;" x1="39.5" x2="160.5" y1="311" y2="311"/><ellipse cx="49.5" cy="323.418" fill="none" rx="3" ry="3" style="stroke: #038048; stroke-width: 1.0;"/><text fill="#000000" font-family="sans-serif" font-size="11" lengthAdjust="spacingAndGlyphs" text-decoration="underline" textLength="54" x="58.5" y="326.4189">AID : String</text><ellipse cx="49.5" cy="337.2539" fill="none" rx="3" ry="3" style="stroke: #038048; stroke-width: 1.0;"/><text fill="#000000" font-family="sans-serif" font-size="11" lengthAdjust="spacingAndGlyphs" text-decoration="underline" textLength="33" x="58.5" y="340.2549">DF : Df</text><ellipse cx="49.5" cy="351.0898" fill="none" rx="3" ry="3" style="stroke: #038048; stroke-width: 1.0;"/><text fill="#000000" font-family="sans-serif" font-size="11" lengthAdjust="spacingAndGlyphs" text-decoration="underline" textLength="31" x="58.5" y="354.0908">EF : Ef</text><ellipse cx="49.5" cy="364.9258" fill="none" rx="3" ry="3" style="stroke: #038048; stroke-width: 1.0;"/><text fill="#000000" font-family="sans-serif" font-size="11" lengthAdjust="spacingAndGlyphs" text-decoration="underline" textLength="35" x="58.5" y="367.9268">FID : int</text><ellipse cx="49.5" cy="378.7617" fill="none" rx="3" ry="3" style="stroke: #038048; stroke-width: 1.0;"/><text fill="#000000" font-family="sans-serif" font-size="11" lengthAdjust="spacingAndGlyphs" text-decoration="underline" textLength="38" x="58.5" y="381.7627">PIN : Pin</text><ellipse cx="49.5" cy="392.5977" fill="none" rx="3" ry="3" style="stroke: #038048; stroke-width: 1.0;"/><text fill="#000000" font-family="sans-serif" font-size="11" lengthAdjust="spacingAndGlyphs" text-decoration="underline" textLength="43" x="58.5" y="395.5986">PrK : PrK</text><ellipse cx="49.5" cy="406.4336" fill="none" rx="3" ry="3" style="stroke: #038048; stroke-width: 1.0;"/><text fill="#000000" font-family="sans-serif" font-size="11" lengthAdjust="spacingAndGlyphs" text-decoration="underline" textLength="35" x="58.5" y="409.4346">SK : Sk</text><line style="stroke: #A80036; stroke-width: 1.5;" x1="39.5" x2="160.5" y1="415.8516" y2="415.8516"/><!--class cardfilesystem.Smcb21FileSystem--><rect fill="#FEFECE" filter="url(#f1ratrx9txjc1)" height="144.8516" id="cardfilesystem.Smcb21FileSystem" style="stroke: #A80036; stroke-width: 1.5;" width="139" x="196.5" y="279"/><ellipse cx="211.5" cy="295" fill="#ADD1B2" rx="11" ry="11" style="stroke: #A80036; stroke-width: 1.0;"/><path d="M213.5,291.5 Q213.7031,291 213.9375,290.75 Q214.1719,290.5 214.4375,290.5 Q214.9063,290.5 215.2031,290.7813 Q215.5,291.0625 215.5,291.7188 L215.5,293.2813 Q215.5,293.9375 215.2188,294.2188 Q214.9375,294.5 214.5,294.5 Q214.1094,294.5 213.8594,294.3281 Q213.6094,294.1563 213.5,293.7031 Q213.4531,293.3906 213.2813,293.2188 Q212.9688,292.8906 212.4063,292.7031 Q211.8438,292.5 211.2813,292.5 Q210.5781,292.5 209.9844,292.7813 Q209.4063,293.0625 208.9531,293.6875 Q208.5,294.3125 208.5,295.1719 L208.5,296.0938 Q208.5,297.125 209.3438,297.8125 Q210.1875,298.5 211.6875,298.5 Q212.5781,298.5 213.2031,298.2969 Q213.5625,298.1875 213.9688,297.8281 Q214.2344,297.625 214.375,297.5625 Q214.5156,297.5 214.6875,297.5 Q215.0156,297.5 215.25,297.7656 Q215.5,298.0156 215.5,298.375 Q215.5,298.7188 215.1563,299.125 Q214.6563,299.7188 213.8594,300.0469 Q212.8125,300.5 211.5313,300.5 Q210.0313,300.5 208.8281,299.9063 Q207.8594,299.4375 207.1719,298.4219 Q206.5,297.4063 206.5,296.2031 L206.5,295.1094 Q206.5,293.8594 207.0938,292.7656 Q207.7031,291.6719 208.75,291.0938 Q209.8125,290.5 211,290.5 Q211.7188,290.5 212.3438,290.75 Q212.9688,291 213.5,291.5 Z "/><text fill="#000000" font-family="sans-serif" font-size="12" lengthAdjust="spacingAndGlyphs" textLength="107" x="225.5" y="299.9102">Smcb21FileSystem</text><line style="stroke: #A80036; stroke-width: 1.5;" x1="197.5" x2="334.5" y1="311" y2="311"/><ellipse cx="207.5" cy="323.418" fill="none" rx="3" ry="3" style="stroke: #038048; stroke-width: 1.0;"/><text fill="#000000" font-family="sans-serif" font-size="11" lengthAdjust="spacingAndGlyphs" text-decoration="underline" textLength="54" x="216.5" y="326.4189">AID : String</text><ellipse cx="207.5" cy="337.2539" fill="none" rx="3" ry="3" style="stroke: #038048; stroke-width: 1.0;"/><text fill="#000000" font-family="sans-serif" font-size="11" lengthAdjust="spacingAndGlyphs" text-decoration="underline" textLength="33" x="216.5" y="340.2549">DF : Df</text><ellipse cx="207.5" cy="351.0898" fill="none" rx="3" ry="3" style="stroke: #038048; stroke-width: 1.0;"/><text fill="#000000" font-family="sans-serif" font-size="11" lengthAdjust="spacingAndGlyphs" text-decoration="underline" textLength="31" x="216.5" y="354.0908">EF : Ef</text><ellipse cx="207.5" cy="364.9258" fill="none" rx="3" ry="3" style="stroke: #038048; stroke-width: 1.0;"/><text fill="#000000" font-family="sans-serif" font-size="11" lengthAdjust="spacingAndGlyphs" text-decoration="underline" textLength="35" x="216.5" y="367.9268">FID : int</text><ellipse cx="207.5" cy="378.7617" fill="none" rx="3" ry="3" style="stroke: #038048; stroke-width: 1.0;"/><text fill="#000000" font-family="sans-serif" font-size="11" lengthAdjust="spacingAndGlyphs" text-decoration="underline" textLength="38" x="216.5" y="381.7627">PIN : Pin</text><ellipse cx="207.5" cy="392.5977" fill="none" rx="3" ry="3" style="stroke: #038048; stroke-width: 1.0;"/><text fill="#000000" font-family="sans-serif" font-size="11" lengthAdjust="spacingAndGlyphs" text-decoration="underline" textLength="43" x="216.5" y="395.5986">PrK : PrK</text><ellipse cx="207.5" cy="406.4336" fill="none" rx="3" ry="3" style="stroke: #038048; stroke-width: 1.0;"/><text fill="#000000" font-family="sans-serif" font-size="11" lengthAdjust="spacingAndGlyphs" text-decoration="underline" textLength="35" x="216.5" y="409.4346">SK : Sk</text><line style="stroke: #A80036; stroke-width: 1.5;" x1="197.5" x2="334.5" y1="415.8516" y2="415.8516"/><!--class cardfilesystem.Smcb2FileSystem--><rect fill="#FEFECE" filter="url(#f1ratrx9txjc1)" height="144.8516" id="cardfilesystem.Smcb2FileSystem" style="stroke: #A80036; stroke-width: 1.5;" width="132" x="371" y="279"/><ellipse cx="386" cy="295" fill="#ADD1B2" rx="11" ry="11" style="stroke: #A80036; stroke-width: 1.0;"/><path d="M388,291.5 Q388.2031,291 388.4375,290.75 Q388.6719,290.5 388.9375,290.5 Q389.4063,290.5 389.7031,290.7813 Q390,291.0625 390,291.7188 L390,293.2813 Q390,293.9375 389.7188,294.2188 Q389.4375,294.5 389,294.5 Q388.6094,294.5 388.3594,294.3281 Q388.1094,294.1563 388,293.7031 Q387.9531,293.3906 387.7813,293.2188 Q387.4688,292.8906 386.9063,292.7031 Q386.3438,292.5 385.7813,292.5 Q385.0781,292.5 384.4844,292.7813 Q383.9063,293.0625 383.4531,293.6875 Q383,294.3125 383,295.1719 L383,296.0938 Q383,297.125 383.8438,297.8125 Q384.6875,298.5 386.1875,298.5 Q387.0781,298.5 387.7031,298.2969 Q388.0625,298.1875 388.4688,297.8281 Q388.7344,297.625 388.875,297.5625 Q389.0156,297.5 389.1875,297.5 Q389.5156,297.5 389.75,297.7656 Q390,298.0156 390,298.375 Q390,298.7188 389.6563,299.125 Q389.1563,299.7188 388.3594,300.0469 Q387.3125,300.5 386.0313,300.5 Q384.5313,300.5 383.3281,299.9063 Q382.3594,299.4375 381.6719,298.4219 Q381,297.4063 381,296.2031 L381,295.1094 Q381,293.8594 381.5938,292.7656 Q382.2031,291.6719 383.25,291.0938 Q384.3125,290.5 385.5,290.5 Q386.2188,290.5 386.8438,290.75 Q387.4688,291 388,291.5 Z "/><text fill="#000000" font-family="sans-serif" font-size="12" lengthAdjust="spacingAndGlyphs" textLength="100" x="400" y="299.9102">Smcb2FileSystem</text><line style="stroke: #A80036; stroke-width: 1.5;" x1="372" x2="502" y1="311" y2="311"/><ellipse cx="382" cy="323.418" fill="none" rx="3" ry="3" style="stroke: #038048; stroke-width: 1.0;"/><text fill="#000000" font-family="sans-serif" font-size="11" lengthAdjust="spacingAndGlyphs" text-decoration="underline" textLength="54" x="391" y="326.4189">AID : String</text><ellipse cx="382" cy="337.2539" fill="none" rx="3" ry="3" style="stroke: #038048; stroke-width: 1.0;"/><text fill="#000000" font-family="sans-serif" font-size="11" lengthAdjust="spacingAndGlyphs" text-decoration="underline" textLength="33" x="391" y="340.2549">DF : Df</text><ellipse cx="382" cy="351.0898" fill="none" rx="3" ry="3" style="stroke: #038048; stroke-width: 1.0;"/><text fill="#000000" font-family="sans-serif" font-size="11" lengthAdjust="spacingAndGlyphs" text-decoration="underline" textLength="31" x="391" y="354.0908">EF : Ef</text><ellipse cx="382" cy="364.9258" fill="none" rx="3" ry="3" style="stroke: #038048; stroke-width: 1.0;"/><text fill="#000000" font-family="sans-serif" font-size="11" lengthAdjust="spacingAndGlyphs" text-decoration="underline" textLength="35" x="391" y="367.9268">FID : int</text><ellipse cx="382" cy="378.7617" fill="none" rx="3" ry="3" style="stroke: #038048; stroke-width: 1.0;"/><text fill="#000000" font-family="sans-serif" font-size="11" lengthAdjust="spacingAndGlyphs" text-decoration="underline" textLength="38" x="391" y="381.7627">PIN : Pin</text><ellipse cx="382" cy="392.5977" fill="none" rx="3" ry="3" style="stroke: #038048; stroke-width: 1.0;"/><text fill="#000000" font-family="sans-serif" font-size="11" lengthAdjust="spacingAndGlyphs" text-decoration="underline" textLength="43" x="391" y="395.5986">PrK : PrK</text><ellipse cx="382" cy="406.4336" fill="none" rx="3" ry="3" style="stroke: #038048; stroke-width: 1.0;"/><text fill="#000000" font-family="sans-serif" font-size="11" lengthAdjust="spacingAndGlyphs" text-decoration="underline" textLength="35" x="391" y="409.4346">SK : Sk</text><line style="stroke: #A80036; stroke-width: 1.5;" x1="372" x2="502" y1="415.8516" y2="415.8516"/><!--link cardfilesystem.Egk21FileSystem to cardfilesystem.Egk2FileSystem--><!--link cardfilesystem.Egk2FileSystem to cardfilesystem.Hba21FileSystem--><!--link cardfilesystem.Egk21FileSystem to cardfilesystem.Hba2FileSystem--><!--link cardfilesystem.Hba2FileSystem to cardfilesystem.Smcb21FileSystem--><!--link cardfilesystem.Smcb21FileSystem to cardfilesystem.Smcb2FileSystem--><!--
@startuml



  namespace cardfilesystem {
    class cardfilesystem.Egk21FileSystem {
        {static} + AID : String
        {static} + DF : Df
        {static} + EF : Ef
        {static} + FID : int
        {static} + MRPIN : MrPin
        {static} + PIN : Pin
        {static} + PrK : PrK
        {static} + SK : Sk
    }
  }


  namespace cardfilesystem {
    class cardfilesystem.Egk2FileSystem {
        {static} + AID : String
        {static} + DF : Df
        {static} + EF : Ef
        {static} + FID : int
        {static} + MRPIN : MrPin
        {static} + PIN : Pin
        {static} + PrK : PrK
        {static} + SK : Sk
    }
  }


  namespace cardfilesystem {
    class cardfilesystem.Hba21FileSystem {
        {static} + AID : String
        {static} + DF : Df
        {static} + EF : Ef
        {static} + FID : int
        {static} + PIN : Pin
        {static} + PrK : PrK
        {static} + SK : Sk
    }
  }


  namespace cardfilesystem {
    class cardfilesystem.Hba2FileSystem {
        {static} + AID : String
        {static} + DF : Df
        {static} + EF : Ef
        {static} + FID : int
        {static} + PIN : Pin
        {static} + PrK : PrK
        {static} + SK : Sk
    }
  }


  namespace cardfilesystem {
    class cardfilesystem.Smcb21FileSystem {
        {static} + AID : String
        {static} + DF : Df
        {static} + EF : Ef
        {static} + FID : int
        {static} + PIN : Pin
        {static} + PrK : PrK
        {static} + SK : Sk
    }
  }


  namespace cardfilesystem {
    class cardfilesystem.Smcb2FileSystem {
        {static} + AID : String
        {static} + DF : Df
        {static} + EF : Ef
        {static} + FID : int
        {static} + PIN : Pin
        {static} + PrK : PrK
        {static} + SK : Sk
    }
  }











@enduml

PlantUML version 1.2019.06(Fri May 24 19:10:25 CEST 2019)
(APACHE source distribution)
Java Runtime: OpenJDK Runtime Environment
JVM: OpenJDK 64-Bit Server VM
Java Version: 11.0.4+10-b304.69
Operating System: Windows 7
OS Version: 6.1
Default Encoding: Cp1252
Language: de
Country: DE
--></g></svg>