<?xml version="1.0" encoding="UTF-8" standalone="no"?><svg xmlns="http://www.w3.org/2000/svg" xmlns:xlink="http://www.w3.org/1999/xlink" contentScriptType="application/ecmascript" contentStyleType="text/css" height="614px" preserveAspectRatio="none" style="width:2621px;height:614px;" version="1.1" viewBox="0 0 2621 614" width="2621px" zoomAndPan="magnify"><defs><filter height="300%" id="f9g14fjcleqvb" width="300%" x="-1" y="-1"><feGaussianBlur result="blurOut" stdDeviation="2.0"/><feColorMatrix in="blurOut" result="blurOut2" type="matrix" values="0 0 0 0 0 0 0 0 0 0 0 0 0 0 0 0 0 0 .4 0"/><feOffset dx="4.0" dy="4.0" in="blurOut2" result="blurOut3"/><feBlend in="SourceGraphic" in2="blurOut3" mode="normal"/></filter></defs><g><!--cluster cardfilesystem--><polygon fill="#FFFFFF" filter="url(#f9g14fjcleqvb)" points="22,24,130,24,137,47.6094,2599,47.6094,2599,602,22,602,22,24" style="stroke: #000000; stroke-width: 1.5;"/><line style="stroke: #000000; stroke-width: 1.5;" x1="22" x2="137" y1="47.6094" y2="47.6094"/><text fill="#000000" font-family="sans-serif" font-size="14" font-weight="bold" lengthAdjust="spacingAndGlyphs" textLength="102" x="26" y="40.5332">cardfilesystem</text><!--cluster cardfilesystem.egk2mf--><polygon fill="#FFFFFF" filter="url(#f9g14fjcleqvb)" points="46,68,103,68,110,91.6094,2575,91.6094,2575,578,46,578,46,68" style="stroke: #000000; stroke-width: 1.5;"/><line style="stroke: #000000; stroke-width: 1.5;" x1="46" x2="110" y1="91.6094" y2="91.6094"/><text fill="#000000" font-family="sans-serif" font-size="14" font-weight="bold" lengthAdjust="spacingAndGlyphs" textLength="51" x="50" y="84.5332">egk2mf</text><!--class cardfilesystem.egk2mf.Df--><rect fill="#FEFECE" filter="url(#f9g14fjcleqvb)" height="103.3438" id="cardfilesystem.egk2mf.Df" style="stroke: #A80036; stroke-width: 1.5;" width="129" x="2268.5" y="132"/><ellipse cx="2322.75" cy="148" fill="#ADD1B2" rx="11" ry="11" style="stroke: #A80036; stroke-width: 1.0;"/><path d="M2324.75,144.5 Q2324.9531,144 2325.1875,143.75 Q2325.4219,143.5 2325.6875,143.5 Q2326.1563,143.5 2326.4531,143.7813 Q2326.75,144.0625 2326.75,144.7188 L2326.75,146.2813 Q2326.75,146.9375 2326.4688,147.2188 Q2326.1875,147.5 2325.75,147.5 Q2325.3594,147.5 2325.1094,147.3281 Q2324.8594,147.1563 2324.75,146.7031 Q2324.7031,146.3906 2324.5313,146.2188 Q2324.2188,145.8906 2323.6563,145.7031 Q2323.0938,145.5 2322.5313,145.5 Q2321.8281,145.5 2321.2344,145.7813 Q2320.6563,146.0625 2320.2031,146.6875 Q2319.75,147.3125 2319.75,148.1719 L2319.75,149.0938 Q2319.75,150.125 2320.5938,150.8125 Q2321.4375,151.5 2322.9375,151.5 Q2323.8281,151.5 2324.4531,151.2969 Q2324.8125,151.1875 2325.2188,150.8281 Q2325.4844,150.625 2325.625,150.5625 Q2325.7656,150.5 2325.9375,150.5 Q2326.2656,150.5 2326.5,150.7656 Q2326.75,151.0156 2326.75,151.375 Q2326.75,151.7188 2326.4063,152.125 Q2325.9063,152.7188 2325.1094,153.0469 Q2324.0625,153.5 2322.7813,153.5 Q2321.2813,153.5 2320.0781,152.9063 Q2319.1094,152.4375 2318.4219,151.4219 Q2317.75,150.4063 2317.75,149.2031 L2317.75,148.1094 Q2317.75,146.8594 2318.3438,145.7656 Q2318.9531,144.6719 2320,144.0938 Q2321.0625,143.5 2322.25,143.5 Q2322.9688,143.5 2323.5938,143.75 Q2324.2188,144 2324.75,144.5 Z "/><text fill="#000000" font-family="sans-serif" font-size="12" lengthAdjust="spacingAndGlyphs" textLength="12" x="2343.25" y="152.9102">Df</text><line style="stroke: #A80036; stroke-width: 1.5;" x1="2269.5" x2="2396.5" y1="164" y2="164"/><ellipse cx="2279.5" cy="176.418" fill="none" rx="3" ry="3" style="stroke: #038048; stroke-width: 1.0;"/><text fill="#000000" font-family="sans-serif" font-size="11" lengthAdjust="spacingAndGlyphs" text-decoration="underline" textLength="103" x="2288.5" y="179.4189">CIA_ESIGN : CiaEsign</text><ellipse cx="2279.5" cy="190.2539" fill="none" rx="3" ry="3" style="stroke: #038048; stroke-width: 1.0;"/><text fill="#000000" font-family="sans-serif" font-size="11" lengthAdjust="spacingAndGlyphs" text-decoration="underline" textLength="65" x="2288.5" y="193.2549">ESIGN : Esign</text><ellipse cx="2279.5" cy="204.0898" fill="none" rx="3" ry="3" style="stroke: #038048; stroke-width: 1.0;"/><text fill="#000000" font-family="sans-serif" font-size="11" lengthAdjust="spacingAndGlyphs" text-decoration="underline" textLength="50" x="2288.5" y="207.0908">HCA : Hca</text><ellipse cx="2279.5" cy="217.9258" fill="none" rx="3" ry="3" style="stroke: #038048; stroke-width: 1.0;"/><text fill="#000000" font-family="sans-serif" font-size="11" lengthAdjust="spacingAndGlyphs" text-decoration="underline" textLength="50" x="2288.5" y="220.9268">QES : Qes</text><line style="stroke: #A80036; stroke-width: 1.5;" x1="2269.5" x2="2396.5" y1="227.3438" y2="227.3438"/><!--class cardfilesystem.egk2mf.Df.CiaEsign--><rect fill="#FEFECE" filter="url(#f9g14fjcleqvb)" height="75.6719" id="cardfilesystem.egk2mf.Df.CiaEsign" style="stroke: #A80036; stroke-width: 1.5;" width="98" x="2346" y="336.5"/><ellipse cx="2361" cy="352.5" fill="#ADD1B2" rx="11" ry="11" style="stroke: #A80036; stroke-width: 1.0;"/><path d="M2363,349 Q2363.2031,348.5 2363.4375,348.25 Q2363.6719,348 2363.9375,348 Q2364.4063,348 2364.7031,348.2813 Q2365,348.5625 2365,349.2188 L2365,350.7813 Q2365,351.4375 2364.7188,351.7188 Q2364.4375,352 2364,352 Q2363.6094,352 2363.3594,351.8281 Q2363.1094,351.6563 2363,351.2031 Q2362.9531,350.8906 2362.7813,350.7188 Q2362.4688,350.3906 2361.9063,350.2031 Q2361.3438,350 2360.7813,350 Q2360.0781,350 2359.4844,350.2813 Q2358.9063,350.5625 2358.4531,351.1875 Q2358,351.8125 2358,352.6719 L2358,353.5938 Q2358,354.625 2358.8438,355.3125 Q2359.6875,356 2361.1875,356 Q2362.0781,356 2362.7031,355.7969 Q2363.0625,355.6875 2363.4688,355.3281 Q2363.7344,355.125 2363.875,355.0625 Q2364.0156,355 2364.1875,355 Q2364.5156,355 2364.75,355.2656 Q2365,355.5156 2365,355.875 Q2365,356.2188 2364.6563,356.625 Q2364.1563,357.2188 2363.3594,357.5469 Q2362.3125,358 2361.0313,358 Q2359.5313,358 2358.3281,357.4063 Q2357.3594,356.9375 2356.6719,355.9219 Q2356,354.9063 2356,353.7031 L2356,352.6094 Q2356,351.3594 2356.5938,350.2656 Q2357.2031,349.1719 2358.25,348.5938 Q2359.3125,348 2360.5,348 Q2361.2188,348 2361.8438,348.25 Q2362.4688,348.5 2363,349 Z "/><text fill="#000000" font-family="sans-serif" font-size="12" lengthAdjust="spacingAndGlyphs" textLength="66" x="2375" y="357.4102">Df.CiaEsign</text><line style="stroke: #A80036; stroke-width: 1.5;" x1="2347" x2="2443" y1="368.5" y2="368.5"/><ellipse cx="2357" cy="380.918" fill="none" rx="3" ry="3" style="stroke: #038048; stroke-width: 1.0;"/><text fill="#000000" font-family="sans-serif" font-size="11" lengthAdjust="spacingAndGlyphs" text-decoration="underline" textLength="54" x="2366" y="383.9189">AID : String</text><ellipse cx="2357" cy="394.7539" fill="none" rx="3" ry="3" style="stroke: #038048; stroke-width: 1.0;"/><text fill="#000000" font-family="sans-serif" font-size="11" lengthAdjust="spacingAndGlyphs" text-decoration="underline" textLength="31" x="2366" y="397.7549">EF : Ef</text><line style="stroke: #A80036; stroke-width: 1.5;" x1="2347" x2="2443" y1="404.1719" y2="404.1719"/><!--class cardfilesystem.egk2mf.Df.Esign--><rect fill="#FEFECE" filter="url(#f9g14fjcleqvb)" height="89.5078" id="cardfilesystem.egk2mf.Df.Esign" style="stroke: #A80036; stroke-width: 1.5;" width="80" x="2479" y="329.5"/><ellipse cx="2494.45" cy="345.5" fill="#ADD1B2" rx="11" ry="11" style="stroke: #A80036; stroke-width: 1.0;"/><path d="M2496.45,342 Q2496.6531,341.5 2496.8875,341.25 Q2497.1219,341 2497.3875,341 Q2497.8563,341 2498.1531,341.2813 Q2498.45,341.5625 2498.45,342.2188 L2498.45,343.7813 Q2498.45,344.4375 2498.1688,344.7188 Q2497.8875,345 2497.45,345 Q2497.0594,345 2496.8094,344.8281 Q2496.5594,344.6563 2496.45,344.2031 Q2496.4031,343.8906 2496.2313,343.7188 Q2495.9188,343.3906 2495.3563,343.2031 Q2494.7938,343 2494.2313,343 Q2493.5281,343 2492.9344,343.2813 Q2492.3563,343.5625 2491.9031,344.1875 Q2491.45,344.8125 2491.45,345.6719 L2491.45,346.5938 Q2491.45,347.625 2492.2938,348.3125 Q2493.1375,349 2494.6375,349 Q2495.5281,349 2496.1531,348.7969 Q2496.5125,348.6875 2496.9188,348.3281 Q2497.1844,348.125 2497.325,348.0625 Q2497.4656,348 2497.6375,348 Q2497.9656,348 2498.2,348.2656 Q2498.45,348.5156 2498.45,348.875 Q2498.45,349.2188 2498.1063,349.625 Q2497.6063,350.2188 2496.8094,350.5469 Q2495.7625,351 2494.4813,351 Q2492.9813,351 2491.7781,350.4063 Q2490.8094,349.9375 2490.1219,348.9219 Q2489.45,347.9063 2489.45,346.7031 L2489.45,345.6094 Q2489.45,344.3594 2490.0438,343.2656 Q2490.6531,342.1719 2491.7,341.5938 Q2492.7625,341 2493.95,341 Q2494.6688,341 2495.2938,341.25 Q2495.9188,341.5 2496.45,342 Z "/><text fill="#000000" font-family="sans-serif" font-size="12" lengthAdjust="spacingAndGlyphs" textLength="47" x="2508.55" y="350.4102">Df.Esign</text><line style="stroke: #A80036; stroke-width: 1.5;" x1="2480" x2="2558" y1="361.5" y2="361.5"/><ellipse cx="2490" cy="373.918" fill="none" rx="3" ry="3" style="stroke: #038048; stroke-width: 1.0;"/><text fill="#000000" font-family="sans-serif" font-size="11" lengthAdjust="spacingAndGlyphs" text-decoration="underline" textLength="54" x="2499" y="376.9189">AID : String</text><ellipse cx="2490" cy="387.7539" fill="none" rx="3" ry="3" style="stroke: #038048; stroke-width: 1.0;"/><text fill="#000000" font-family="sans-serif" font-size="11" lengthAdjust="spacingAndGlyphs" text-decoration="underline" textLength="31" x="2499" y="390.7549">EF : Ef</text><ellipse cx="2490" cy="401.5898" fill="none" rx="3" ry="3" style="stroke: #038048; stroke-width: 1.0;"/><text fill="#000000" font-family="sans-serif" font-size="11" lengthAdjust="spacingAndGlyphs" text-decoration="underline" textLength="43" x="2499" y="404.5908">PrK : PrK</text><line style="stroke: #A80036; stroke-width: 1.5;" x1="2480" x2="2558" y1="411.0078" y2="411.0078"/><!--class cardfilesystem.egk2mf.Df.Hca--><rect fill="#FEFECE" filter="url(#f9g14fjcleqvb)" height="89.5078" id="cardfilesystem.egk2mf.Df.Hca" style="stroke: #A80036; stroke-width: 1.5;" width="80" x="2116" y="329.5"/><ellipse cx="2135.95" cy="345.5" fill="#ADD1B2" rx="11" ry="11" style="stroke: #A80036; stroke-width: 1.0;"/><path d="M2137.95,342 Q2138.1531,341.5 2138.3875,341.25 Q2138.6219,341 2138.8875,341 Q2139.3563,341 2139.6531,341.2813 Q2139.95,341.5625 2139.95,342.2188 L2139.95,343.7813 Q2139.95,344.4375 2139.6688,344.7188 Q2139.3875,345 2138.95,345 Q2138.5594,345 2138.3094,344.8281 Q2138.0594,344.6563 2137.95,344.2031 Q2137.9031,343.8906 2137.7313,343.7188 Q2137.4188,343.3906 2136.8563,343.2031 Q2136.2938,343 2135.7313,343 Q2135.0281,343 2134.4344,343.2813 Q2133.8563,343.5625 2133.4031,344.1875 Q2132.95,344.8125 2132.95,345.6719 L2132.95,346.5938 Q2132.95,347.625 2133.7938,348.3125 Q2134.6375,349 2136.1375,349 Q2137.0281,349 2137.6531,348.7969 Q2138.0125,348.6875 2138.4188,348.3281 Q2138.6844,348.125 2138.825,348.0625 Q2138.9656,348 2139.1375,348 Q2139.4656,348 2139.7,348.2656 Q2139.95,348.5156 2139.95,348.875 Q2139.95,349.2188 2139.6063,349.625 Q2139.1063,350.2188 2138.3094,350.5469 Q2137.2625,351 2135.9813,351 Q2134.4813,351 2133.2781,350.4063 Q2132.3094,349.9375 2131.6219,348.9219 Q2130.95,347.9063 2130.95,346.7031 L2130.95,345.6094 Q2130.95,344.3594 2131.5438,343.2656 Q2132.1531,342.1719 2133.2,341.5938 Q2134.2625,341 2135.45,341 Q2136.1688,341 2136.7938,341.25 Q2137.4188,341.5 2137.95,342 Z "/><text fill="#000000" font-family="sans-serif" font-size="12" lengthAdjust="spacingAndGlyphs" textLength="37" x="2151.05" y="350.4102">Df.Hca</text><line style="stroke: #A80036; stroke-width: 1.5;" x1="2117" x2="2195" y1="361.5" y2="361.5"/><ellipse cx="2127" cy="373.918" fill="none" rx="3" ry="3" style="stroke: #038048; stroke-width: 1.0;"/><text fill="#000000" font-family="sans-serif" font-size="11" lengthAdjust="spacingAndGlyphs" text-decoration="underline" textLength="54" x="2136" y="376.9189">AID : String</text><ellipse cx="2127" cy="387.7539" fill="none" rx="3" ry="3" style="stroke: #038048; stroke-width: 1.0;"/><text fill="#000000" font-family="sans-serif" font-size="11" lengthAdjust="spacingAndGlyphs" text-decoration="underline" textLength="33" x="2136" y="390.7549">DF : Df</text><ellipse cx="2127" cy="401.5898" fill="none" rx="3" ry="3" style="stroke: #038048; stroke-width: 1.0;"/><text fill="#000000" font-family="sans-serif" font-size="11" lengthAdjust="spacingAndGlyphs" text-decoration="underline" textLength="31" x="2136" y="404.5908">EF : Ef</text><line style="stroke: #A80036; stroke-width: 1.5;" x1="2117" x2="2195" y1="411.0078" y2="411.0078"/><!--class cardfilesystem.egk2mf.Df.Qes--><rect fill="#FEFECE" filter="url(#f9g14fjcleqvb)" height="103.3438" id="cardfilesystem.egk2mf.Df.Qes" style="stroke: #A80036; stroke-width: 1.5;" width="80" x="2231" y="323"/><ellipse cx="2250.5" cy="339" fill="#ADD1B2" rx="11" ry="11" style="stroke: #A80036; stroke-width: 1.0;"/><path d="M2252.5,335.5 Q2252.7031,335 2252.9375,334.75 Q2253.1719,334.5 2253.4375,334.5 Q2253.9063,334.5 2254.2031,334.7813 Q2254.5,335.0625 2254.5,335.7188 L2254.5,337.2813 Q2254.5,337.9375 2254.2188,338.2188 Q2253.9375,338.5 2253.5,338.5 Q2253.1094,338.5 2252.8594,338.3281 Q2252.6094,338.1563 2252.5,337.7031 Q2252.4531,337.3906 2252.2813,337.2188 Q2251.9688,336.8906 2251.4063,336.7031 Q2250.8438,336.5 2250.2813,336.5 Q2249.5781,336.5 2248.9844,336.7813 Q2248.4063,337.0625 2247.9531,337.6875 Q2247.5,338.3125 2247.5,339.1719 L2247.5,340.0938 Q2247.5,341.125 2248.3438,341.8125 Q2249.1875,342.5 2250.6875,342.5 Q2251.5781,342.5 2252.2031,342.2969 Q2252.5625,342.1875 2252.9688,341.8281 Q2253.2344,341.625 2253.375,341.5625 Q2253.5156,341.5 2253.6875,341.5 Q2254.0156,341.5 2254.25,341.7656 Q2254.5,342.0156 2254.5,342.375 Q2254.5,342.7188 2254.1563,343.125 Q2253.6563,343.7188 2252.8594,344.0469 Q2251.8125,344.5 2250.5313,344.5 Q2249.0313,344.5 2247.8281,343.9063 Q2246.8594,343.4375 2246.1719,342.4219 Q2245.5,341.4063 2245.5,340.2031 L2245.5,339.1094 Q2245.5,337.8594 2246.0938,336.7656 Q2246.7031,335.6719 2247.75,335.0938 Q2248.8125,334.5 2250,334.5 Q2250.7188,334.5 2251.3438,334.75 Q2251.9688,335 2252.5,335.5 Z "/><text fill="#000000" font-family="sans-serif" font-size="12" lengthAdjust="spacingAndGlyphs" textLength="38" x="2265.5" y="343.9102">Df.Qes</text><line style="stroke: #A80036; stroke-width: 1.5;" x1="2232" x2="2310" y1="355" y2="355"/><ellipse cx="2242" cy="367.418" fill="none" rx="3" ry="3" style="stroke: #038048; stroke-width: 1.0;"/><text fill="#000000" font-family="sans-serif" font-size="11" lengthAdjust="spacingAndGlyphs" text-decoration="underline" textLength="54" x="2251" y="370.4189">AID : String</text><ellipse cx="2242" cy="381.2539" fill="none" rx="3" ry="3" style="stroke: #038048; stroke-width: 1.0;"/><text fill="#000000" font-family="sans-serif" font-size="11" lengthAdjust="spacingAndGlyphs" text-decoration="underline" textLength="31" x="2251" y="384.2549">EF : Ef</text><ellipse cx="2242" cy="395.0898" fill="none" rx="3" ry="3" style="stroke: #038048; stroke-width: 1.0;"/><text fill="#000000" font-family="sans-serif" font-size="11" lengthAdjust="spacingAndGlyphs" text-decoration="underline" textLength="38" x="2251" y="398.0908">PIN : Pin</text><ellipse cx="2242" cy="408.9258" fill="none" rx="3" ry="3" style="stroke: #038048; stroke-width: 1.0;"/><text fill="#000000" font-family="sans-serif" font-size="11" lengthAdjust="spacingAndGlyphs" text-decoration="underline" textLength="43" x="2251" y="411.9268">PrK : PrK</text><line style="stroke: #A80036; stroke-width: 1.5;" x1="2232" x2="2310" y1="418.3438" y2="418.3438"/><!--class cardfilesystem.egk2mf.Ef--><rect fill="#FEFECE" filter="url(#f9g14fjcleqvb)" height="158.6875" id="cardfilesystem.egk2mf.Ef" style="stroke: #A80036; stroke-width: 1.5;" width="238" x="1430" y="104"/><ellipse cx="1539.25" cy="120" fill="#ADD1B2" rx="11" ry="11" style="stroke: #A80036; stroke-width: 1.0;"/><path d="M1541.25,116.5 Q1541.4531,116 1541.6875,115.75 Q1541.9219,115.5 1542.1875,115.5 Q1542.6563,115.5 1542.9531,115.7813 Q1543.25,116.0625 1543.25,116.7188 L1543.25,118.2813 Q1543.25,118.9375 1542.9688,119.2188 Q1542.6875,119.5 1542.25,119.5 Q1541.8594,119.5 1541.6094,119.3281 Q1541.3594,119.1563 1541.25,118.7031 Q1541.2031,118.3906 1541.0313,118.2188 Q1540.7188,117.8906 1540.1563,117.7031 Q1539.5938,117.5 1539.0313,117.5 Q1538.3281,117.5 1537.7344,117.7813 Q1537.1563,118.0625 1536.7031,118.6875 Q1536.25,119.3125 1536.25,120.1719 L1536.25,121.0938 Q1536.25,122.125 1537.0938,122.8125 Q1537.9375,123.5 1539.4375,123.5 Q1540.3281,123.5 1540.9531,123.2969 Q1541.3125,123.1875 1541.7188,122.8281 Q1541.9844,122.625 1542.125,122.5625 Q1542.2656,122.5 1542.4375,122.5 Q1542.7656,122.5 1543,122.7656 Q1543.25,123.0156 1543.25,123.375 Q1543.25,123.7188 1542.9063,124.125 Q1542.4063,124.7188 1541.6094,125.0469 Q1540.5625,125.5 1539.2813,125.5 Q1537.7813,125.5 1536.5781,124.9063 Q1535.6094,124.4375 1534.9219,123.4219 Q1534.25,122.4063 1534.25,121.2031 L1534.25,120.1094 Q1534.25,118.8594 1534.8438,117.7656 Q1535.4531,116.6719 1536.5,116.0938 Q1537.5625,115.5 1538.75,115.5 Q1539.4688,115.5 1540.0938,115.75 Q1540.7188,116 1541.25,116.5 Z "/><text fill="#000000" font-family="sans-serif" font-size="12" lengthAdjust="spacingAndGlyphs" textLength="11" x="1559.75" y="124.9102">Ef</text><line style="stroke: #A80036; stroke-width: 1.5;" x1="1431" x2="1667" y1="136" y2="136"/><ellipse cx="1441" cy="148.418" fill="none" rx="3" ry="3" style="stroke: #038048; stroke-width: 1.0;"/><text fill="#000000" font-family="sans-serif" font-size="11" lengthAdjust="spacingAndGlyphs" text-decoration="underline" textLength="45" x="1450" y="151.4189">ATR : Atr</text><ellipse cx="1441" cy="162.2539" fill="none" rx="3" ry="3" style="stroke: #038048; stroke-width: 1.0;"/><text fill="#000000" font-family="sans-serif" font-size="11" lengthAdjust="spacingAndGlyphs" text-decoration="underline" textLength="187" x="1450" y="165.2549">C_CA_EGK_CS_E256 : CcaEgkCsE256</text><ellipse cx="1441" cy="176.0898" fill="none" rx="3" ry="3" style="stroke: #038048; stroke-width: 1.0;"/><text fill="#000000" font-family="sans-serif" font-size="11" lengthAdjust="spacingAndGlyphs" text-decoration="underline" textLength="212" x="1450" y="179.0908">C_EGK_AUT_CVC_E256 : CegkAutCvcE256</text><ellipse cx="1441" cy="189.9258" fill="none" rx="3" ry="3" style="stroke: #038048; stroke-width: 1.0;"/><text fill="#000000" font-family="sans-serif" font-size="11" lengthAdjust="spacingAndGlyphs" text-decoration="underline" textLength="131" x="1450" y="192.9268">CardAccess : CardAccess</text><ellipse cx="1441" cy="203.7617" fill="none" rx="3" ry="3" style="stroke: #038048; stroke-width: 1.0;"/><text fill="#000000" font-family="sans-serif" font-size="11" lengthAdjust="spacingAndGlyphs" text-decoration="underline" textLength="38" x="1450" y="206.7627">DIR : Dir</text><ellipse cx="1441" cy="217.5977" fill="none" rx="3" ry="3" style="stroke: #038048; stroke-width: 1.0;"/><text fill="#000000" font-family="sans-serif" font-size="11" lengthAdjust="spacingAndGlyphs" text-decoration="underline" textLength="52" x="1450" y="220.5986">GDO : Gdo</text><ellipse cx="1441" cy="231.4336" fill="none" rx="3" ry="3" style="stroke: #038048; stroke-width: 1.0;"/><text fill="#000000" font-family="sans-serif" font-size="11" lengthAdjust="spacingAndGlyphs" text-decoration="underline" textLength="85" x="1450" y="234.4346">Version : Version</text><ellipse cx="1441" cy="245.2695" fill="none" rx="3" ry="3" style="stroke: #038048; stroke-width: 1.0;"/><text fill="#000000" font-family="sans-serif" font-size="11" lengthAdjust="spacingAndGlyphs" text-decoration="underline" textLength="97" x="1450" y="248.2705">Version2 : Version2</text><line style="stroke: #A80036; stroke-width: 1.5;" x1="1431" x2="1667" y1="254.6875" y2="254.6875"/><!--class cardfilesystem.egk2mf.Ef.Atr--><rect fill="#FEFECE" filter="url(#f9g14fjcleqvb)" height="75.6719" id="cardfilesystem.egk2mf.Ef.Atr" style="stroke: #A80036; stroke-width: 1.5;" width="68" x="1310" y="336.5"/><ellipse cx="1328.6" cy="352.5" fill="#ADD1B2" rx="11" ry="11" style="stroke: #A80036; stroke-width: 1.0;"/><path d="M1330.6,349 Q1330.8031,348.5 1331.0375,348.25 Q1331.2719,348 1331.5375,348 Q1332.0063,348 1332.3031,348.2813 Q1332.6,348.5625 1332.6,349.2188 L1332.6,350.7813 Q1332.6,351.4375 1332.3188,351.7188 Q1332.0375,352 1331.6,352 Q1331.2094,352 1330.9594,351.8281 Q1330.7094,351.6563 1330.6,351.2031 Q1330.5531,350.8906 1330.3813,350.7188 Q1330.0688,350.3906 1329.5063,350.2031 Q1328.9438,350 1328.3813,350 Q1327.6781,350 1327.0844,350.2813 Q1326.5063,350.5625 1326.0531,351.1875 Q1325.6,351.8125 1325.6,352.6719 L1325.6,353.5938 Q1325.6,354.625 1326.4438,355.3125 Q1327.2875,356 1328.7875,356 Q1329.6781,356 1330.3031,355.7969 Q1330.6625,355.6875 1331.0688,355.3281 Q1331.3344,355.125 1331.475,355.0625 Q1331.6156,355 1331.7875,355 Q1332.1156,355 1332.35,355.2656 Q1332.6,355.5156 1332.6,355.875 Q1332.6,356.2188 1332.2563,356.625 Q1331.7563,357.2188 1330.9594,357.5469 Q1329.9125,358 1328.6313,358 Q1327.1313,358 1325.9281,357.4063 Q1324.9594,356.9375 1324.2719,355.9219 Q1323.6,354.9063 1323.6,353.7031 L1323.6,352.6094 Q1323.6,351.3594 1324.1938,350.2656 Q1324.8031,349.1719 1325.85,348.5938 Q1326.9125,348 1328.1,348 Q1328.8188,348 1329.4438,348.25 Q1330.0688,348.5 1330.6,349 Z "/><text fill="#000000" font-family="sans-serif" font-size="12" lengthAdjust="spacingAndGlyphs" textLength="28" x="1343.4" y="357.4102">Ef.Atr</text><line style="stroke: #A80036; stroke-width: 1.5;" x1="1311" x2="1377" y1="368.5" y2="368.5"/><ellipse cx="1321" cy="380.918" fill="none" rx="3" ry="3" style="stroke: #038048; stroke-width: 1.0;"/><text fill="#000000" font-family="sans-serif" font-size="11" lengthAdjust="spacingAndGlyphs" text-decoration="underline" textLength="35" x="1330" y="383.9189">FID : int</text><ellipse cx="1321" cy="394.7539" fill="none" rx="3" ry="3" style="stroke: #038048; stroke-width: 1.0;"/><text fill="#000000" font-family="sans-serif" font-size="11" lengthAdjust="spacingAndGlyphs" text-decoration="underline" textLength="42" x="1330" y="397.7549">SFID : int</text><line style="stroke: #A80036; stroke-width: 1.5;" x1="1311" x2="1377" y1="404.1719" y2="404.1719"/><!--class cardfilesystem.egk2mf.Ef.CardAccess--><rect fill="#FEFECE" filter="url(#f9g14fjcleqvb)" height="75.6719" id="cardfilesystem.egk2mf.Ef.CardAccess" style="stroke: #A80036; stroke-width: 1.5;" width="113" x="1413.5" y="336.5"/><ellipse cx="1428.5" cy="352.5" fill="#ADD1B2" rx="11" ry="11" style="stroke: #A80036; stroke-width: 1.0;"/><path d="M1430.5,349 Q1430.7031,348.5 1430.9375,348.25 Q1431.1719,348 1431.4375,348 Q1431.9063,348 1432.2031,348.2813 Q1432.5,348.5625 1432.5,349.2188 L1432.5,350.7813 Q1432.5,351.4375 1432.2188,351.7188 Q1431.9375,352 1431.5,352 Q1431.1094,352 1430.8594,351.8281 Q1430.6094,351.6563 1430.5,351.2031 Q1430.4531,350.8906 1430.2813,350.7188 Q1429.9688,350.3906 1429.4063,350.2031 Q1428.8438,350 1428.2813,350 Q1427.5781,350 1426.9844,350.2813 Q1426.4063,350.5625 1425.9531,351.1875 Q1425.5,351.8125 1425.5,352.6719 L1425.5,353.5938 Q1425.5,354.625 1426.3438,355.3125 Q1427.1875,356 1428.6875,356 Q1429.5781,356 1430.2031,355.7969 Q1430.5625,355.6875 1430.9688,355.3281 Q1431.2344,355.125 1431.375,355.0625 Q1431.5156,355 1431.6875,355 Q1432.0156,355 1432.25,355.2656 Q1432.5,355.5156 1432.5,355.875 Q1432.5,356.2188 1432.1563,356.625 Q1431.6563,357.2188 1430.8594,357.5469 Q1429.8125,358 1428.5313,358 Q1427.0313,358 1425.8281,357.4063 Q1424.8594,356.9375 1424.1719,355.9219 Q1423.5,354.9063 1423.5,353.7031 L1423.5,352.6094 Q1423.5,351.3594 1424.0938,350.2656 Q1424.7031,349.1719 1425.75,348.5938 Q1426.8125,348 1428,348 Q1428.7188,348 1429.3438,348.25 Q1429.9688,348.5 1430.5,349 Z "/><text fill="#000000" font-family="sans-serif" font-size="12" lengthAdjust="spacingAndGlyphs" textLength="81" x="1442.5" y="357.4102">Ef.CardAccess</text><line style="stroke: #A80036; stroke-width: 1.5;" x1="1414.5" x2="1525.5" y1="368.5" y2="368.5"/><ellipse cx="1424.5" cy="380.918" fill="none" rx="3" ry="3" style="stroke: #038048; stroke-width: 1.0;"/><text fill="#000000" font-family="sans-serif" font-size="11" lengthAdjust="spacingAndGlyphs" text-decoration="underline" textLength="35" x="1433.5" y="383.9189">FID : int</text><ellipse cx="1424.5" cy="394.7539" fill="none" rx="3" ry="3" style="stroke: #038048; stroke-width: 1.0;"/><text fill="#000000" font-family="sans-serif" font-size="11" lengthAdjust="spacingAndGlyphs" text-decoration="underline" textLength="42" x="1433.5" y="397.7549">SFID : int</text><line style="stroke: #A80036; stroke-width: 1.5;" x1="1414.5" x2="1525.5" y1="404.1719" y2="404.1719"/><!--class cardfilesystem.egk2mf.Ef.CcaEgkCsE256--><rect fill="#FEFECE" filter="url(#f9g14fjcleqvb)" height="75.6719" id="cardfilesystem.egk2mf.Ef.CcaEgkCsE256" style="stroke: #A80036; stroke-width: 1.5;" width="134" x="1562" y="336.5"/><ellipse cx="1577" cy="352.5" fill="#ADD1B2" rx="11" ry="11" style="stroke: #A80036; stroke-width: 1.0;"/><path d="M1579,349 Q1579.2031,348.5 1579.4375,348.25 Q1579.6719,348 1579.9375,348 Q1580.4063,348 1580.7031,348.2813 Q1581,348.5625 1581,349.2188 L1581,350.7813 Q1581,351.4375 1580.7188,351.7188 Q1580.4375,352 1580,352 Q1579.6094,352 1579.3594,351.8281 Q1579.1094,351.6563 1579,351.2031 Q1578.9531,350.8906 1578.7813,350.7188 Q1578.4688,350.3906 1577.9063,350.2031 Q1577.3438,350 1576.7813,350 Q1576.0781,350 1575.4844,350.2813 Q1574.9063,350.5625 1574.4531,351.1875 Q1574,351.8125 1574,352.6719 L1574,353.5938 Q1574,354.625 1574.8438,355.3125 Q1575.6875,356 1577.1875,356 Q1578.0781,356 1578.7031,355.7969 Q1579.0625,355.6875 1579.4688,355.3281 Q1579.7344,355.125 1579.875,355.0625 Q1580.0156,355 1580.1875,355 Q1580.5156,355 1580.75,355.2656 Q1581,355.5156 1581,355.875 Q1581,356.2188 1580.6563,356.625 Q1580.1563,357.2188 1579.3594,357.5469 Q1578.3125,358 1577.0313,358 Q1575.5313,358 1574.3281,357.4063 Q1573.3594,356.9375 1572.6719,355.9219 Q1572,354.9063 1572,353.7031 L1572,352.6094 Q1572,351.3594 1572.5938,350.2656 Q1573.2031,349.1719 1574.25,348.5938 Q1575.3125,348 1576.5,348 Q1577.2188,348 1577.8438,348.25 Q1578.4688,348.5 1579,349 Z "/><text fill="#000000" font-family="sans-serif" font-size="12" lengthAdjust="spacingAndGlyphs" textLength="102" x="1591" y="357.4102">Ef.CcaEgkCsE256</text><line style="stroke: #A80036; stroke-width: 1.5;" x1="1563" x2="1695" y1="368.5" y2="368.5"/><ellipse cx="1573" cy="380.918" fill="none" rx="3" ry="3" style="stroke: #038048; stroke-width: 1.0;"/><text fill="#000000" font-family="sans-serif" font-size="11" lengthAdjust="spacingAndGlyphs" text-decoration="underline" textLength="35" x="1582" y="383.9189">FID : int</text><ellipse cx="1573" cy="394.7539" fill="none" rx="3" ry="3" style="stroke: #038048; stroke-width: 1.0;"/><text fill="#000000" font-family="sans-serif" font-size="11" lengthAdjust="spacingAndGlyphs" text-decoration="underline" textLength="42" x="1582" y="397.7549">SFID : int</text><line style="stroke: #A80036; stroke-width: 1.5;" x1="1563" x2="1695" y1="404.1719" y2="404.1719"/><!--class cardfilesystem.egk2mf.Ef.CegkAutCvcE256--><rect fill="#FEFECE" filter="url(#f9g14fjcleqvb)" height="75.6719" id="cardfilesystem.egk2mf.Ef.CegkAutCvcE256" style="stroke: #A80036; stroke-width: 1.5;" width="141" x="1731.5" y="336.5"/><ellipse cx="1746.5" cy="352.5" fill="#ADD1B2" rx="11" ry="11" style="stroke: #A80036; stroke-width: 1.0;"/><path d="M1748.5,349 Q1748.7031,348.5 1748.9375,348.25 Q1749.1719,348 1749.4375,348 Q1749.9063,348 1750.2031,348.2813 Q1750.5,348.5625 1750.5,349.2188 L1750.5,350.7813 Q1750.5,351.4375 1750.2188,351.7188 Q1749.9375,352 1749.5,352 Q1749.1094,352 1748.8594,351.8281 Q1748.6094,351.6563 1748.5,351.2031 Q1748.4531,350.8906 1748.2813,350.7188 Q1747.9688,350.3906 1747.4063,350.2031 Q1746.8438,350 1746.2813,350 Q1745.5781,350 1744.9844,350.2813 Q1744.4063,350.5625 1743.9531,351.1875 Q1743.5,351.8125 1743.5,352.6719 L1743.5,353.5938 Q1743.5,354.625 1744.3438,355.3125 Q1745.1875,356 1746.6875,356 Q1747.5781,356 1748.2031,355.7969 Q1748.5625,355.6875 1748.9688,355.3281 Q1749.2344,355.125 1749.375,355.0625 Q1749.5156,355 1749.6875,355 Q1750.0156,355 1750.25,355.2656 Q1750.5,355.5156 1750.5,355.875 Q1750.5,356.2188 1750.1563,356.625 Q1749.6563,357.2188 1748.8594,357.5469 Q1747.8125,358 1746.5313,358 Q1745.0313,358 1743.8281,357.4063 Q1742.8594,356.9375 1742.1719,355.9219 Q1741.5,354.9063 1741.5,353.7031 L1741.5,352.6094 Q1741.5,351.3594 1742.0938,350.2656 Q1742.7031,349.1719 1743.75,348.5938 Q1744.8125,348 1746,348 Q1746.7188,348 1747.3438,348.25 Q1747.9688,348.5 1748.5,349 Z "/><text fill="#000000" font-family="sans-serif" font-size="12" lengthAdjust="spacingAndGlyphs" textLength="109" x="1760.5" y="357.4102">Ef.CegkAutCvcE256</text><line style="stroke: #A80036; stroke-width: 1.5;" x1="1732.5" x2="1871.5" y1="368.5" y2="368.5"/><ellipse cx="1742.5" cy="380.918" fill="none" rx="3" ry="3" style="stroke: #038048; stroke-width: 1.0;"/><text fill="#000000" font-family="sans-serif" font-size="11" lengthAdjust="spacingAndGlyphs" text-decoration="underline" textLength="35" x="1751.5" y="383.9189">FID : int</text><ellipse cx="1742.5" cy="394.7539" fill="none" rx="3" ry="3" style="stroke: #038048; stroke-width: 1.0;"/><text fill="#000000" font-family="sans-serif" font-size="11" lengthAdjust="spacingAndGlyphs" text-decoration="underline" textLength="42" x="1751.5" y="397.7549">SFID : int</text><line style="stroke: #A80036; stroke-width: 1.5;" x1="1732.5" x2="1871.5" y1="404.1719" y2="404.1719"/><!--class cardfilesystem.egk2mf.Ef.Dir--><rect fill="#FEFECE" filter="url(#f9g14fjcleqvb)" height="75.6719" id="cardfilesystem.egk2mf.Ef.Dir" style="stroke: #A80036; stroke-width: 1.5;" width="68" x="1908" y="336.5"/><ellipse cx="1925.7" cy="352.5" fill="#ADD1B2" rx="11" ry="11" style="stroke: #A80036; stroke-width: 1.0;"/><path d="M1927.7,349 Q1927.9031,348.5 1928.1375,348.25 Q1928.3719,348 1928.6375,348 Q1929.1063,348 1929.4031,348.2813 Q1929.7,348.5625 1929.7,349.2188 L1929.7,350.7813 Q1929.7,351.4375 1929.4188,351.7188 Q1929.1375,352 1928.7,352 Q1928.3094,352 1928.0594,351.8281 Q1927.8094,351.6563 1927.7,351.2031 Q1927.6531,350.8906 1927.4813,350.7188 Q1927.1688,350.3906 1926.6063,350.2031 Q1926.0438,350 1925.4813,350 Q1924.7781,350 1924.1844,350.2813 Q1923.6063,350.5625 1923.1531,351.1875 Q1922.7,351.8125 1922.7,352.6719 L1922.7,353.5938 Q1922.7,354.625 1923.5438,355.3125 Q1924.3875,356 1925.8875,356 Q1926.7781,356 1927.4031,355.7969 Q1927.7625,355.6875 1928.1688,355.3281 Q1928.4344,355.125 1928.575,355.0625 Q1928.7156,355 1928.8875,355 Q1929.2156,355 1929.45,355.2656 Q1929.7,355.5156 1929.7,355.875 Q1929.7,356.2188 1929.3563,356.625 Q1928.8563,357.2188 1928.0594,357.5469 Q1927.0125,358 1925.7313,358 Q1924.2313,358 1923.0281,357.4063 Q1922.0594,356.9375 1921.3719,355.9219 Q1920.7,354.9063 1920.7,353.7031 L1920.7,352.6094 Q1920.7,351.3594 1921.2938,350.2656 Q1921.9031,349.1719 1922.95,348.5938 Q1924.0125,348 1925.2,348 Q1925.9188,348 1926.5438,348.25 Q1927.1688,348.5 1927.7,349 Z "/><text fill="#000000" font-family="sans-serif" font-size="12" lengthAdjust="spacingAndGlyphs" textLength="30" x="1940.3" y="357.4102">Ef.Dir</text><line style="stroke: #A80036; stroke-width: 1.5;" x1="1909" x2="1975" y1="368.5" y2="368.5"/><ellipse cx="1919" cy="380.918" fill="none" rx="3" ry="3" style="stroke: #038048; stroke-width: 1.0;"/><text fill="#000000" font-family="sans-serif" font-size="11" lengthAdjust="spacingAndGlyphs" text-decoration="underline" textLength="35" x="1928" y="383.9189">FID : int</text><ellipse cx="1919" cy="394.7539" fill="none" rx="3" ry="3" style="stroke: #038048; stroke-width: 1.0;"/><text fill="#000000" font-family="sans-serif" font-size="11" lengthAdjust="spacingAndGlyphs" text-decoration="underline" textLength="42" x="1928" y="397.7549">SFID : int</text><line style="stroke: #A80036; stroke-width: 1.5;" x1="1909" x2="1975" y1="404.1719" y2="404.1719"/><!--class cardfilesystem.egk2mf.Ef.Gdo--><rect fill="#FEFECE" filter="url(#f9g14fjcleqvb)" height="75.6719" id="cardfilesystem.egk2mf.Ef.Gdo" style="stroke: #A80036; stroke-width: 1.5;" width="69" x="2011.5" y="336.5"/><ellipse cx="2026.5" cy="352.5" fill="#ADD1B2" rx="11" ry="11" style="stroke: #A80036; stroke-width: 1.0;"/><path d="M2028.5,349 Q2028.7031,348.5 2028.9375,348.25 Q2029.1719,348 2029.4375,348 Q2029.9063,348 2030.2031,348.2813 Q2030.5,348.5625 2030.5,349.2188 L2030.5,350.7813 Q2030.5,351.4375 2030.2188,351.7188 Q2029.9375,352 2029.5,352 Q2029.1094,352 2028.8594,351.8281 Q2028.6094,351.6563 2028.5,351.2031 Q2028.4531,350.8906 2028.2813,350.7188 Q2027.9688,350.3906 2027.4063,350.2031 Q2026.8438,350 2026.2813,350 Q2025.5781,350 2024.9844,350.2813 Q2024.4063,350.5625 2023.9531,351.1875 Q2023.5,351.8125 2023.5,352.6719 L2023.5,353.5938 Q2023.5,354.625 2024.3438,355.3125 Q2025.1875,356 2026.6875,356 Q2027.5781,356 2028.2031,355.7969 Q2028.5625,355.6875 2028.9688,355.3281 Q2029.2344,355.125 2029.375,355.0625 Q2029.5156,355 2029.6875,355 Q2030.0156,355 2030.25,355.2656 Q2030.5,355.5156 2030.5,355.875 Q2030.5,356.2188 2030.1563,356.625 Q2029.6563,357.2188 2028.8594,357.5469 Q2027.8125,358 2026.5313,358 Q2025.0313,358 2023.8281,357.4063 Q2022.8594,356.9375 2022.1719,355.9219 Q2021.5,354.9063 2021.5,353.7031 L2021.5,352.6094 Q2021.5,351.3594 2022.0938,350.2656 Q2022.7031,349.1719 2023.75,348.5938 Q2024.8125,348 2026,348 Q2026.7188,348 2027.3438,348.25 Q2027.9688,348.5 2028.5,349 Z "/><text fill="#000000" font-family="sans-serif" font-size="12" lengthAdjust="spacingAndGlyphs" textLength="37" x="2040.5" y="357.4102">Ef.Gdo</text><line style="stroke: #A80036; stroke-width: 1.5;" x1="2012.5" x2="2079.5" y1="368.5" y2="368.5"/><ellipse cx="2022.5" cy="380.918" fill="none" rx="3" ry="3" style="stroke: #038048; stroke-width: 1.0;"/><text fill="#000000" font-family="sans-serif" font-size="11" lengthAdjust="spacingAndGlyphs" text-decoration="underline" textLength="35" x="2031.5" y="383.9189">FID : int</text><ellipse cx="2022.5" cy="394.7539" fill="none" rx="3" ry="3" style="stroke: #038048; stroke-width: 1.0;"/><text fill="#000000" font-family="sans-serif" font-size="11" lengthAdjust="spacingAndGlyphs" text-decoration="underline" textLength="42" x="2031.5" y="397.7549">SFID : int</text><line style="stroke: #A80036; stroke-width: 1.5;" x1="2012.5" x2="2079.5" y1="404.1719" y2="404.1719"/><!--class cardfilesystem.egk2mf.Ef.Version--><rect fill="#FEFECE" filter="url(#f9g14fjcleqvb)" height="75.6719" id="cardfilesystem.egk2mf.Ef.Version" style="stroke: #A80036; stroke-width: 1.5;" width="88" x="1056" y="336.5"/><ellipse cx="1071" cy="352.5" fill="#ADD1B2" rx="11" ry="11" style="stroke: #A80036; stroke-width: 1.0;"/><path d="M1073,349 Q1073.2031,348.5 1073.4375,348.25 Q1073.6719,348 1073.9375,348 Q1074.4063,348 1074.7031,348.2813 Q1075,348.5625 1075,349.2188 L1075,350.7813 Q1075,351.4375 1074.7188,351.7188 Q1074.4375,352 1074,352 Q1073.6094,352 1073.3594,351.8281 Q1073.1094,351.6563 1073,351.2031 Q1072.9531,350.8906 1072.7813,350.7188 Q1072.4688,350.3906 1071.9063,350.2031 Q1071.3438,350 1070.7813,350 Q1070.0781,350 1069.4844,350.2813 Q1068.9063,350.5625 1068.4531,351.1875 Q1068,351.8125 1068,352.6719 L1068,353.5938 Q1068,354.625 1068.8438,355.3125 Q1069.6875,356 1071.1875,356 Q1072.0781,356 1072.7031,355.7969 Q1073.0625,355.6875 1073.4688,355.3281 Q1073.7344,355.125 1073.875,355.0625 Q1074.0156,355 1074.1875,355 Q1074.5156,355 1074.75,355.2656 Q1075,355.5156 1075,355.875 Q1075,356.2188 1074.6563,356.625 Q1074.1563,357.2188 1073.3594,357.5469 Q1072.3125,358 1071.0313,358 Q1069.5313,358 1068.3281,357.4063 Q1067.3594,356.9375 1066.6719,355.9219 Q1066,354.9063 1066,353.7031 L1066,352.6094 Q1066,351.3594 1066.5938,350.2656 Q1067.2031,349.1719 1068.25,348.5938 Q1069.3125,348 1070.5,348 Q1071.2188,348 1071.8438,348.25 Q1072.4688,348.5 1073,349 Z "/><text fill="#000000" font-family="sans-serif" font-size="12" lengthAdjust="spacingAndGlyphs" textLength="56" x="1085" y="357.4102">Ef.Version</text><line style="stroke: #A80036; stroke-width: 1.5;" x1="1057" x2="1143" y1="368.5" y2="368.5"/><ellipse cx="1067" cy="380.918" fill="none" rx="3" ry="3" style="stroke: #038048; stroke-width: 1.0;"/><text fill="#000000" font-family="sans-serif" font-size="11" lengthAdjust="spacingAndGlyphs" text-decoration="underline" textLength="35" x="1076" y="383.9189">FID : int</text><ellipse cx="1067" cy="394.7539" fill="none" rx="3" ry="3" style="stroke: #038048; stroke-width: 1.0;"/><text fill="#000000" font-family="sans-serif" font-size="11" lengthAdjust="spacingAndGlyphs" text-decoration="underline" textLength="42" x="1076" y="397.7549">SFID : int</text><line style="stroke: #A80036; stroke-width: 1.5;" x1="1057" x2="1143" y1="404.1719" y2="404.1719"/><!--class cardfilesystem.egk2mf.Ef.Version2--><rect fill="#FEFECE" filter="url(#f9g14fjcleqvb)" height="75.6719" id="cardfilesystem.egk2mf.Ef.Version2" style="stroke: #A80036; stroke-width: 1.5;" width="95" x="1179.5" y="336.5"/><ellipse cx="1194.5" cy="352.5" fill="#ADD1B2" rx="11" ry="11" style="stroke: #A80036; stroke-width: 1.0;"/><path d="M1196.5,349 Q1196.7031,348.5 1196.9375,348.25 Q1197.1719,348 1197.4375,348 Q1197.9063,348 1198.2031,348.2813 Q1198.5,348.5625 1198.5,349.2188 L1198.5,350.7813 Q1198.5,351.4375 1198.2188,351.7188 Q1197.9375,352 1197.5,352 Q1197.1094,352 1196.8594,351.8281 Q1196.6094,351.6563 1196.5,351.2031 Q1196.4531,350.8906 1196.2813,350.7188 Q1195.9688,350.3906 1195.4063,350.2031 Q1194.8438,350 1194.2813,350 Q1193.5781,350 1192.9844,350.2813 Q1192.4063,350.5625 1191.9531,351.1875 Q1191.5,351.8125 1191.5,352.6719 L1191.5,353.5938 Q1191.5,354.625 1192.3438,355.3125 Q1193.1875,356 1194.6875,356 Q1195.5781,356 1196.2031,355.7969 Q1196.5625,355.6875 1196.9688,355.3281 Q1197.2344,355.125 1197.375,355.0625 Q1197.5156,355 1197.6875,355 Q1198.0156,355 1198.25,355.2656 Q1198.5,355.5156 1198.5,355.875 Q1198.5,356.2188 1198.1563,356.625 Q1197.6563,357.2188 1196.8594,357.5469 Q1195.8125,358 1194.5313,358 Q1193.0313,358 1191.8281,357.4063 Q1190.8594,356.9375 1190.1719,355.9219 Q1189.5,354.9063 1189.5,353.7031 L1189.5,352.6094 Q1189.5,351.3594 1190.0938,350.2656 Q1190.7031,349.1719 1191.75,348.5938 Q1192.8125,348 1194,348 Q1194.7188,348 1195.3438,348.25 Q1195.9688,348.5 1196.5,349 Z "/><text fill="#000000" font-family="sans-serif" font-size="12" lengthAdjust="spacingAndGlyphs" textLength="63" x="1208.5" y="357.4102">Ef.Version2</text><line style="stroke: #A80036; stroke-width: 1.5;" x1="1180.5" x2="1273.5" y1="368.5" y2="368.5"/><ellipse cx="1190.5" cy="380.918" fill="none" rx="3" ry="3" style="stroke: #038048; stroke-width: 1.0;"/><text fill="#000000" font-family="sans-serif" font-size="11" lengthAdjust="spacingAndGlyphs" text-decoration="underline" textLength="35" x="1199.5" y="383.9189">FID : int</text><ellipse cx="1190.5" cy="394.7539" fill="none" rx="3" ry="3" style="stroke: #038048; stroke-width: 1.0;"/><text fill="#000000" font-family="sans-serif" font-size="11" lengthAdjust="spacingAndGlyphs" text-decoration="underline" textLength="42" x="1199.5" y="397.7549">SFID : int</text><line style="stroke: #A80036; stroke-width: 1.5;" x1="1180.5" x2="1273.5" y1="404.1719" y2="404.1719"/><!--class cardfilesystem.egk2mf.MrPin--><rect fill="#FEFECE" filter="url(#f9g14fjcleqvb)" height="61.8359" id="cardfilesystem.egk2mf.MrPin" style="stroke: #A80036; stroke-width: 1.5;" width="88" x="927" y="152.5"/><ellipse cx="953.25" cy="168.5" fill="#ADD1B2" rx="11" ry="11" style="stroke: #A80036; stroke-width: 1.0;"/><path d="M955.25,165 Q955.4531,164.5 955.6875,164.25 Q955.9219,164 956.1875,164 Q956.6563,164 956.9531,164.2813 Q957.25,164.5625 957.25,165.2188 L957.25,166.7813 Q957.25,167.4375 956.9688,167.7188 Q956.6875,168 956.25,168 Q955.8594,168 955.6094,167.8281 Q955.3594,167.6563 955.25,167.2031 Q955.2031,166.8906 955.0313,166.7188 Q954.7188,166.3906 954.1563,166.2031 Q953.5938,166 953.0313,166 Q952.3281,166 951.7344,166.2813 Q951.1563,166.5625 950.7031,167.1875 Q950.25,167.8125 950.25,168.6719 L950.25,169.5938 Q950.25,170.625 951.0938,171.3125 Q951.9375,172 953.4375,172 Q954.3281,172 954.9531,171.7969 Q955.3125,171.6875 955.7188,171.3281 Q955.9844,171.125 956.125,171.0625 Q956.2656,171 956.4375,171 Q956.7656,171 957,171.2656 Q957.25,171.5156 957.25,171.875 Q957.25,172.2188 956.9063,172.625 Q956.4063,173.2188 955.6094,173.5469 Q954.5625,174 953.2813,174 Q951.7813,174 950.5781,173.4063 Q949.6094,172.9375 948.9219,171.9219 Q948.25,170.9063 948.25,169.7031 L948.25,168.6094 Q948.25,167.3594 948.8438,166.2656 Q949.4531,165.1719 950.5,164.5938 Q951.5625,164 952.75,164 Q953.4688,164 954.0938,164.25 Q954.7188,164.5 955.25,165 Z "/><text fill="#000000" font-family="sans-serif" font-size="12" lengthAdjust="spacingAndGlyphs" textLength="31" x="969.75" y="173.4102">MrPin</text><line style="stroke: #A80036; stroke-width: 1.5;" x1="928" x2="1014" y1="184.5" y2="184.5"/><ellipse cx="938" cy="196.918" fill="none" rx="3" ry="3" style="stroke: #038048; stroke-width: 1.0;"/><text fill="#000000" font-family="sans-serif" font-size="11" lengthAdjust="spacingAndGlyphs" text-decoration="underline" textLength="62" x="947" y="199.9189">home : Home</text><line style="stroke: #A80036; stroke-width: 1.5;" x1="928" x2="1014" y1="206.3359" y2="206.3359"/><!--class cardfilesystem.egk2mf.MrPin.Home--><rect fill="#FEFECE" filter="url(#f9g14fjcleqvb)" height="61.8359" id="cardfilesystem.egk2mf.MrPin.Home" style="stroke: #A80036; stroke-width: 1.5;" width="100" x="921" y="343.5"/><ellipse cx="936" cy="359.5" fill="#ADD1B2" rx="11" ry="11" style="stroke: #A80036; stroke-width: 1.0;"/><path d="M938,356 Q938.2031,355.5 938.4375,355.25 Q938.6719,355 938.9375,355 Q939.4063,355 939.7031,355.2813 Q940,355.5625 940,356.2188 L940,357.7813 Q940,358.4375 939.7188,358.7188 Q939.4375,359 939,359 Q938.6094,359 938.3594,358.8281 Q938.1094,358.6563 938,358.2031 Q937.9531,357.8906 937.7813,357.7188 Q937.4688,357.3906 936.9063,357.2031 Q936.3438,357 935.7813,357 Q935.0781,357 934.4844,357.2813 Q933.9063,357.5625 933.4531,358.1875 Q933,358.8125 933,359.6719 L933,360.5938 Q933,361.625 933.8438,362.3125 Q934.6875,363 936.1875,363 Q937.0781,363 937.7031,362.7969 Q938.0625,362.6875 938.4688,362.3281 Q938.7344,362.125 938.875,362.0625 Q939.0156,362 939.1875,362 Q939.5156,362 939.75,362.2656 Q940,362.5156 940,362.875 Q940,363.2188 939.6563,363.625 Q939.1563,364.2188 938.3594,364.5469 Q937.3125,365 936.0313,365 Q934.5313,365 933.3281,364.4063 Q932.3594,363.9375 931.6719,362.9219 Q931,361.9063 931,360.7031 L931,359.6094 Q931,358.3594 931.5938,357.2656 Q932.2031,356.1719 933.25,355.5938 Q934.3125,355 935.5,355 Q936.2188,355 936.8438,355.25 Q937.4688,355.5 938,356 Z "/><text fill="#000000" font-family="sans-serif" font-size="12" lengthAdjust="spacingAndGlyphs" textLength="68" x="950" y="364.4102">MrPin.Home</text><line style="stroke: #A80036; stroke-width: 1.5;" x1="922" x2="1020" y1="375.5" y2="375.5"/><ellipse cx="932" cy="387.918" fill="none" rx="3" ry="3" style="stroke: #038048; stroke-width: 1.0;"/><text fill="#000000" font-family="sans-serif" font-size="11" lengthAdjust="spacingAndGlyphs" text-decoration="underline" textLength="45" x="941" y="390.9189">PWID : int</text><line style="stroke: #A80036; stroke-width: 1.5;" x1="922" x2="1020" y1="397.3359" y2="397.3359"/><!--class cardfilesystem.egk2mf.Pin--><rect fill="#FEFECE" filter="url(#f9g14fjcleqvb)" height="61.8359" id="cardfilesystem.egk2mf.Pin" style="stroke: #A80036; stroke-width: 1.5;" width="62" x="824" y="152.5"/><ellipse cx="844.4" cy="168.5" fill="#ADD1B2" rx="11" ry="11" style="stroke: #A80036; stroke-width: 1.0;"/><path d="M846.4,165 Q846.6031,164.5 846.8375,164.25 Q847.0719,164 847.3375,164 Q847.8063,164 848.1031,164.2813 Q848.4,164.5625 848.4,165.2188 L848.4,166.7813 Q848.4,167.4375 848.1188,167.7188 Q847.8375,168 847.4,168 Q847.0094,168 846.7594,167.8281 Q846.5094,167.6563 846.4,167.2031 Q846.3531,166.8906 846.1813,166.7188 Q845.8688,166.3906 845.3063,166.2031 Q844.7438,166 844.1813,166 Q843.4781,166 842.8844,166.2813 Q842.3063,166.5625 841.8531,167.1875 Q841.4,167.8125 841.4,168.6719 L841.4,169.5938 Q841.4,170.625 842.2438,171.3125 Q843.0875,172 844.5875,172 Q845.4781,172 846.1031,171.7969 Q846.4625,171.6875 846.8688,171.3281 Q847.1344,171.125 847.275,171.0625 Q847.4156,171 847.5875,171 Q847.9156,171 848.15,171.2656 Q848.4,171.5156 848.4,171.875 Q848.4,172.2188 848.0563,172.625 Q847.5563,173.2188 846.7594,173.5469 Q845.7125,174 844.4313,174 Q842.9313,174 841.7281,173.4063 Q840.7594,172.9375 840.0719,171.9219 Q839.4,170.9063 839.4,169.7031 L839.4,168.6094 Q839.4,167.3594 839.9938,166.2656 Q840.6031,165.1719 841.65,164.5938 Q842.7125,164 843.9,164 Q844.6188,164 845.2438,164.25 Q845.8688,164.5 846.4,165 Z "/><text fill="#000000" font-family="sans-serif" font-size="12" lengthAdjust="spacingAndGlyphs" textLength="18" x="859.6" y="173.4102">Pin</text><line style="stroke: #A80036; stroke-width: 1.5;" x1="825" x2="885" y1="184.5" y2="184.5"/><ellipse cx="835" cy="196.918" fill="none" rx="3" ry="3" style="stroke: #038048; stroke-width: 1.0;"/><text fill="#000000" font-family="sans-serif" font-size="11" lengthAdjust="spacingAndGlyphs" text-decoration="underline" textLength="36" x="844" y="199.9189">CH : Ch</text><line style="stroke: #A80036; stroke-width: 1.5;" x1="825" x2="885" y1="206.3359" y2="206.3359"/><!--class cardfilesystem.egk2mf.Pin.Ch--><rect fill="#FEFECE" filter="url(#f9g14fjcleqvb)" height="61.8359" id="cardfilesystem.egk2mf.Pin.Ch" style="stroke: #A80036; stroke-width: 1.5;" width="71" x="814.5" y="343.5"/><ellipse cx="830.4" cy="359.5" fill="#ADD1B2" rx="11" ry="11" style="stroke: #A80036; stroke-width: 1.0;"/><path d="M832.4,356 Q832.6031,355.5 832.8375,355.25 Q833.0719,355 833.3375,355 Q833.8063,355 834.1031,355.2813 Q834.4,355.5625 834.4,356.2188 L834.4,357.7813 Q834.4,358.4375 834.1188,358.7188 Q833.8375,359 833.4,359 Q833.0094,359 832.7594,358.8281 Q832.5094,358.6563 832.4,358.2031 Q832.3531,357.8906 832.1813,357.7188 Q831.8688,357.3906 831.3063,357.2031 Q830.7438,357 830.1813,357 Q829.4781,357 828.8844,357.2813 Q828.3063,357.5625 827.8531,358.1875 Q827.4,358.8125 827.4,359.6719 L827.4,360.5938 Q827.4,361.625 828.2438,362.3125 Q829.0875,363 830.5875,363 Q831.4781,363 832.1031,362.7969 Q832.4625,362.6875 832.8688,362.3281 Q833.1344,362.125 833.275,362.0625 Q833.4156,362 833.5875,362 Q833.9156,362 834.15,362.2656 Q834.4,362.5156 834.4,362.875 Q834.4,363.2188 834.0563,363.625 Q833.5563,364.2188 832.7594,364.5469 Q831.7125,365 830.4313,365 Q828.9313,365 827.7281,364.4063 Q826.7594,363.9375 826.0719,362.9219 Q825.4,361.9063 825.4,360.7031 L825.4,359.6094 Q825.4,358.3594 825.9938,357.2656 Q826.6031,356.1719 827.65,355.5938 Q828.7125,355 829.9,355 Q830.6188,355 831.2438,355.25 Q831.8688,355.5 832.4,356 Z "/><text fill="#000000" font-family="sans-serif" font-size="12" lengthAdjust="spacingAndGlyphs" textLength="37" x="844.6" y="364.4102">Pin.Ch</text><line style="stroke: #A80036; stroke-width: 1.5;" x1="815.5" x2="884.5" y1="375.5" y2="375.5"/><ellipse cx="825.5" cy="387.918" fill="none" rx="3" ry="3" style="stroke: #038048; stroke-width: 1.0;"/><text fill="#000000" font-family="sans-serif" font-size="11" lengthAdjust="spacingAndGlyphs" text-decoration="underline" textLength="45" x="834.5" y="390.9189">PWID : int</text><line style="stroke: #A80036; stroke-width: 1.5;" x1="815.5" x2="884.5" y1="397.3359" y2="397.3359"/><!--class cardfilesystem.egk2mf.PrK--><rect fill="#FEFECE" filter="url(#f9g14fjcleqvb)" height="61.8359" id="cardfilesystem.egk2mf.PrK" style="stroke: #A80036; stroke-width: 1.5;" width="218" x="571" y="152.5"/><ellipse cx="665.75" cy="168.5" fill="#ADD1B2" rx="11" ry="11" style="stroke: #A80036; stroke-width: 1.0;"/><path d="M667.75,165 Q667.9531,164.5 668.1875,164.25 Q668.4219,164 668.6875,164 Q669.1563,164 669.4531,164.2813 Q669.75,164.5625 669.75,165.2188 L669.75,166.7813 Q669.75,167.4375 669.4688,167.7188 Q669.1875,168 668.75,168 Q668.3594,168 668.1094,167.8281 Q667.8594,167.6563 667.75,167.2031 Q667.7031,166.8906 667.5313,166.7188 Q667.2188,166.3906 666.6563,166.2031 Q666.0938,166 665.5313,166 Q664.8281,166 664.2344,166.2813 Q663.6563,166.5625 663.2031,167.1875 Q662.75,167.8125 662.75,168.6719 L662.75,169.5938 Q662.75,170.625 663.5938,171.3125 Q664.4375,172 665.9375,172 Q666.8281,172 667.4531,171.7969 Q667.8125,171.6875 668.2188,171.3281 Q668.4844,171.125 668.625,171.0625 Q668.7656,171 668.9375,171 Q669.2656,171 669.5,171.2656 Q669.75,171.5156 669.75,171.875 Q669.75,172.2188 669.4063,172.625 Q668.9063,173.2188 668.1094,173.5469 Q667.0625,174 665.7813,174 Q664.2813,174 663.0781,173.4063 Q662.1094,172.9375 661.4219,171.9219 Q660.75,170.9063 660.75,169.7031 L660.75,168.6094 Q660.75,167.3594 661.3438,166.2656 Q661.9531,165.1719 663,164.5938 Q664.0625,164 665.25,164 Q665.9688,164 666.5938,164.25 Q667.2188,164.5 667.75,165 Z "/><text fill="#000000" font-family="sans-serif" font-size="12" lengthAdjust="spacingAndGlyphs" textLength="20" x="686.25" y="173.4102">PrK</text><line style="stroke: #A80036; stroke-width: 1.5;" x1="572" x2="788" y1="184.5" y2="184.5"/><ellipse cx="582" cy="196.918" fill="none" rx="3" ry="3" style="stroke: #038048; stroke-width: 1.0;"/><text fill="#000000" font-family="sans-serif" font-size="11" lengthAdjust="spacingAndGlyphs" text-decoration="underline" textLength="192" x="591" y="199.9189">EGK_AUT_CVC_E256 : EgkAutCvcE256</text><line style="stroke: #A80036; stroke-width: 1.5;" x1="572" x2="788" y1="206.3359" y2="206.3359"/><!--class cardfilesystem.egk2mf.PrK.EgkAutCvcE256--><rect fill="#FEFECE" filter="url(#f9g14fjcleqvb)" height="61.8359" id="cardfilesystem.egk2mf.PrK.EgkAutCvcE256" style="stroke: #A80036; stroke-width: 1.5;" width="142" x="637" y="343.5"/><ellipse cx="652" cy="359.5" fill="#ADD1B2" rx="11" ry="11" style="stroke: #A80036; stroke-width: 1.0;"/><path d="M654,356 Q654.2031,355.5 654.4375,355.25 Q654.6719,355 654.9375,355 Q655.4063,355 655.7031,355.2813 Q656,355.5625 656,356.2188 L656,357.7813 Q656,358.4375 655.7188,358.7188 Q655.4375,359 655,359 Q654.6094,359 654.3594,358.8281 Q654.1094,358.6563 654,358.2031 Q653.9531,357.8906 653.7813,357.7188 Q653.4688,357.3906 652.9063,357.2031 Q652.3438,357 651.7813,357 Q651.0781,357 650.4844,357.2813 Q649.9063,357.5625 649.4531,358.1875 Q649,358.8125 649,359.6719 L649,360.5938 Q649,361.625 649.8438,362.3125 Q650.6875,363 652.1875,363 Q653.0781,363 653.7031,362.7969 Q654.0625,362.6875 654.4688,362.3281 Q654.7344,362.125 654.875,362.0625 Q655.0156,362 655.1875,362 Q655.5156,362 655.75,362.2656 Q656,362.5156 656,362.875 Q656,363.2188 655.6563,363.625 Q655.1563,364.2188 654.3594,364.5469 Q653.3125,365 652.0313,365 Q650.5313,365 649.3281,364.4063 Q648.3594,363.9375 647.6719,362.9219 Q647,361.9063 647,360.7031 L647,359.6094 Q647,358.3594 647.5938,357.2656 Q648.2031,356.1719 649.25,355.5938 Q650.3125,355 651.5,355 Q652.2188,355 652.8438,355.25 Q653.4688,355.5 654,356 Z "/><text fill="#000000" font-family="sans-serif" font-size="12" lengthAdjust="spacingAndGlyphs" textLength="110" x="666" y="364.4102">PrK.EgkAutCvcE256</text><line style="stroke: #A80036; stroke-width: 1.5;" x1="638" x2="778" y1="375.5" y2="375.5"/><ellipse cx="648" cy="387.918" fill="none" rx="3" ry="3" style="stroke: #038048; stroke-width: 1.0;"/><text fill="#000000" font-family="sans-serif" font-size="11" lengthAdjust="spacingAndGlyphs" text-decoration="underline" textLength="36" x="657" y="390.9189">KID : int</text><line style="stroke: #A80036; stroke-width: 1.5;" x1="638" x2="778" y1="397.3359" y2="397.3359"/><!--class cardfilesystem.egk2mf.Sk--><rect fill="#FEFECE" filter="url(#f9g14fjcleqvb)" height="117.1797" id="cardfilesystem.egk2mf.Sk" style="stroke: #A80036; stroke-width: 1.5;" width="161" x="287.5" y="125"/><ellipse cx="356.75" cy="141" fill="#ADD1B2" rx="11" ry="11" style="stroke: #A80036; stroke-width: 1.0;"/><path d="M358.75,137.5 Q358.9531,137 359.1875,136.75 Q359.4219,136.5 359.6875,136.5 Q360.1563,136.5 360.4531,136.7813 Q360.75,137.0625 360.75,137.7188 L360.75,139.2813 Q360.75,139.9375 360.4688,140.2188 Q360.1875,140.5 359.75,140.5 Q359.3594,140.5 359.1094,140.3281 Q358.8594,140.1563 358.75,139.7031 Q358.7031,139.3906 358.5313,139.2188 Q358.2188,138.8906 357.6563,138.7031 Q357.0938,138.5 356.5313,138.5 Q355.8281,138.5 355.2344,138.7813 Q354.6563,139.0625 354.2031,139.6875 Q353.75,140.3125 353.75,141.1719 L353.75,142.0938 Q353.75,143.125 354.5938,143.8125 Q355.4375,144.5 356.9375,144.5 Q357.8281,144.5 358.4531,144.2969 Q358.8125,144.1875 359.2188,143.8281 Q359.4844,143.625 359.625,143.5625 Q359.7656,143.5 359.9375,143.5 Q360.2656,143.5 360.5,143.7656 Q360.75,144.0156 360.75,144.375 Q360.75,144.7188 360.4063,145.125 Q359.9063,145.7188 359.1094,146.0469 Q358.0625,146.5 356.7813,146.5 Q355.2813,146.5 354.0781,145.9063 Q353.1094,145.4375 352.4219,144.4219 Q351.75,143.4063 351.75,142.2031 L351.75,141.1094 Q351.75,139.8594 352.3438,138.7656 Q352.9531,137.6719 354,137.0938 Q355.0625,136.5 356.25,136.5 Q356.9688,136.5 357.5938,136.75 Q358.2188,137 358.75,137.5 Z "/><text fill="#000000" font-family="sans-serif" font-size="12" lengthAdjust="spacingAndGlyphs" textLength="14" x="377.25" y="145.9102">Sk</text><line style="stroke: #A80036; stroke-width: 1.5;" x1="288.5" x2="447.5" y1="157" y2="157"/><ellipse cx="298.5" cy="169.418" fill="none" rx="3" ry="3" style="stroke: #038048; stroke-width: 1.0;"/><text fill="#000000" font-family="sans-serif" font-size="11" lengthAdjust="spacingAndGlyphs" text-decoration="underline" textLength="50" x="307.5" y="172.4189">CAN : Can</text><ellipse cx="298.5" cy="183.2539" fill="none" rx="3" ry="3" style="stroke: #038048; stroke-width: 1.0;"/><text fill="#000000" font-family="sans-serif" font-size="11" lengthAdjust="spacingAndGlyphs" text-decoration="underline" textLength="135" x="307.5" y="186.2549">CMS_AES128 : CmsAes128</text><ellipse cx="298.5" cy="197.0898" fill="none" rx="3" ry="3" style="stroke: #038048; stroke-width: 1.0;"/><text fill="#000000" font-family="sans-serif" font-size="11" lengthAdjust="spacingAndGlyphs" text-decoration="underline" textLength="135" x="307.5" y="200.0908">CMS_AES256 : CmsAes256</text><ellipse cx="298.5" cy="210.9258" fill="none" rx="3" ry="3" style="stroke: #038048; stroke-width: 1.0;"/><text fill="#000000" font-family="sans-serif" font-size="11" lengthAdjust="spacingAndGlyphs" text-decoration="underline" textLength="134" x="307.5" y="213.9268">VSD_AES128 : VsdAes128</text><ellipse cx="298.5" cy="224.7617" fill="none" rx="3" ry="3" style="stroke: #038048; stroke-width: 1.0;"/><text fill="#000000" font-family="sans-serif" font-size="11" lengthAdjust="spacingAndGlyphs" text-decoration="underline" textLength="134" x="307.5" y="227.7627">VSD_AES256 : VsdAes256</text><line style="stroke: #A80036; stroke-width: 1.5;" x1="288.5" x2="447.5" y1="234.1797" y2="234.1797"/><!--class cardfilesystem.egk2mf.Sk.Can--><rect fill="#FEFECE" filter="url(#f9g14fjcleqvb)" height="61.8359" id="cardfilesystem.egk2mf.Sk.Can" style="stroke: #A80036; stroke-width: 1.5;" width="72" x="99" y="343.5"/><ellipse cx="114" cy="359.5" fill="#ADD1B2" rx="11" ry="11" style="stroke: #A80036; stroke-width: 1.0;"/><path d="M116,356 Q116.2031,355.5 116.4375,355.25 Q116.6719,355 116.9375,355 Q117.4063,355 117.7031,355.2813 Q118,355.5625 118,356.2188 L118,357.7813 Q118,358.4375 117.7188,358.7188 Q117.4375,359 117,359 Q116.6094,359 116.3594,358.8281 Q116.1094,358.6563 116,358.2031 Q115.9531,357.8906 115.7813,357.7188 Q115.4688,357.3906 114.9063,357.2031 Q114.3438,357 113.7813,357 Q113.0781,357 112.4844,357.2813 Q111.9063,357.5625 111.4531,358.1875 Q111,358.8125 111,359.6719 L111,360.5938 Q111,361.625 111.8438,362.3125 Q112.6875,363 114.1875,363 Q115.0781,363 115.7031,362.7969 Q116.0625,362.6875 116.4688,362.3281 Q116.7344,362.125 116.875,362.0625 Q117.0156,362 117.1875,362 Q117.5156,362 117.75,362.2656 Q118,362.5156 118,362.875 Q118,363.2188 117.6563,363.625 Q117.1563,364.2188 116.3594,364.5469 Q115.3125,365 114.0313,365 Q112.5313,365 111.3281,364.4063 Q110.3594,363.9375 109.6719,362.9219 Q109,361.9063 109,360.7031 L109,359.6094 Q109,358.3594 109.5938,357.2656 Q110.2031,356.1719 111.25,355.5938 Q112.3125,355 113.5,355 Q114.2188,355 114.8438,355.25 Q115.4688,355.5 116,356 Z "/><text fill="#000000" font-family="sans-serif" font-size="12" lengthAdjust="spacingAndGlyphs" textLength="40" x="128" y="364.4102">Sk.Can</text><line style="stroke: #A80036; stroke-width: 1.5;" x1="100" x2="170" y1="375.5" y2="375.5"/><ellipse cx="110" cy="387.918" fill="none" rx="3" ry="3" style="stroke: #038048; stroke-width: 1.0;"/><text fill="#000000" font-family="sans-serif" font-size="11" lengthAdjust="spacingAndGlyphs" text-decoration="underline" textLength="36" x="119" y="390.9189">KID : int</text><line style="stroke: #A80036; stroke-width: 1.5;" x1="100" x2="170" y1="397.3359" y2="397.3359"/><!--class cardfilesystem.egk2mf.Sk.CmsAes128--><rect fill="#FEFECE" filter="url(#f9g14fjcleqvb)" height="75.6719" id="cardfilesystem.egk2mf.Sk.CmsAes128" style="stroke: #A80036; stroke-width: 1.5;" width="118" x="77" y="486"/><ellipse cx="92" cy="502" fill="#ADD1B2" rx="11" ry="11" style="stroke: #A80036; stroke-width: 1.0;"/><path d="M94,498.5 Q94.2031,498 94.4375,497.75 Q94.6719,497.5 94.9375,497.5 Q95.4063,497.5 95.7031,497.7813 Q96,498.0625 96,498.7188 L96,500.2813 Q96,500.9375 95.7188,501.2188 Q95.4375,501.5 95,501.5 Q94.6094,501.5 94.3594,501.3281 Q94.1094,501.1563 94,500.7031 Q93.9531,500.3906 93.7813,500.2188 Q93.4688,499.8906 92.9063,499.7031 Q92.3438,499.5 91.7813,499.5 Q91.0781,499.5 90.4844,499.7813 Q89.9063,500.0625 89.4531,500.6875 Q89,501.3125 89,502.1719 L89,503.0938 Q89,504.125 89.8438,504.8125 Q90.6875,505.5 92.1875,505.5 Q93.0781,505.5 93.7031,505.2969 Q94.0625,505.1875 94.4688,504.8281 Q94.7344,504.625 94.875,504.5625 Q95.0156,504.5 95.1875,504.5 Q95.5156,504.5 95.75,504.7656 Q96,505.0156 96,505.375 Q96,505.7188 95.6563,506.125 Q95.1563,506.7188 94.3594,507.0469 Q93.3125,507.5 92.0313,507.5 Q90.5313,507.5 89.3281,506.9063 Q88.3594,506.4375 87.6719,505.4219 Q87,504.4063 87,503.2031 L87,502.1094 Q87,500.8594 87.5938,499.7656 Q88.2031,498.6719 89.25,498.0938 Q90.3125,497.5 91.5,497.5 Q92.2188,497.5 92.8438,497.75 Q93.4688,498 94,498.5 Z "/><text fill="#000000" font-family="sans-serif" font-size="12" lengthAdjust="spacingAndGlyphs" textLength="86" x="106" y="506.9102">Sk.CmsAes128</text><line style="stroke: #A80036; stroke-width: 1.5;" x1="78" x2="194" y1="518" y2="518"/><rect fill="none" height="6" style="stroke: #C82930; stroke-width: 1.0;" width="6" x="85" y="527.418"/><text fill="#000000" font-family="sans-serif" font-size="11" lengthAdjust="spacingAndGlyphs" text-decoration="underline" textLength="36" x="97" y="533.4189">KID : int</text><line style="stroke: #A80036; stroke-width: 1.5;" x1="78" x2="194" y1="539.8359" y2="539.8359"/><ellipse cx="88" cy="552.2539" fill="#84BE84" rx="3" ry="3" style="stroke: #038048; stroke-width: 1.0;"/><text fill="#000000" font-family="sans-serif" font-size="11" lengthAdjust="spacingAndGlyphs" textLength="39" x="97" y="555.2549">getKID()</text><!--class cardfilesystem.egk2mf.Sk.CmsAes256--><rect fill="#FEFECE" filter="url(#f9g14fjcleqvb)" height="75.6719" id="cardfilesystem.egk2mf.Sk.CmsAes256" style="stroke: #A80036; stroke-width: 1.5;" width="118" x="237" y="486"/><ellipse cx="252" cy="502" fill="#ADD1B2" rx="11" ry="11" style="stroke: #A80036; stroke-width: 1.0;"/><path d="M254,498.5 Q254.2031,498 254.4375,497.75 Q254.6719,497.5 254.9375,497.5 Q255.4063,497.5 255.7031,497.7813 Q256,498.0625 256,498.7188 L256,500.2813 Q256,500.9375 255.7188,501.2188 Q255.4375,501.5 255,501.5 Q254.6094,501.5 254.3594,501.3281 Q254.1094,501.1563 254,500.7031 Q253.9531,500.3906 253.7813,500.2188 Q253.4688,499.8906 252.9063,499.7031 Q252.3438,499.5 251.7813,499.5 Q251.0781,499.5 250.4844,499.7813 Q249.9063,500.0625 249.4531,500.6875 Q249,501.3125 249,502.1719 L249,503.0938 Q249,504.125 249.8438,504.8125 Q250.6875,505.5 252.1875,505.5 Q253.0781,505.5 253.7031,505.2969 Q254.0625,505.1875 254.4688,504.8281 Q254.7344,504.625 254.875,504.5625 Q255.0156,504.5 255.1875,504.5 Q255.5156,504.5 255.75,504.7656 Q256,505.0156 256,505.375 Q256,505.7188 255.6563,506.125 Q255.1563,506.7188 254.3594,507.0469 Q253.3125,507.5 252.0313,507.5 Q250.5313,507.5 249.3281,506.9063 Q248.3594,506.4375 247.6719,505.4219 Q247,504.4063 247,503.2031 L247,502.1094 Q247,500.8594 247.5938,499.7656 Q248.2031,498.6719 249.25,498.0938 Q250.3125,497.5 251.5,497.5 Q252.2188,497.5 252.8438,497.75 Q253.4688,498 254,498.5 Z "/><text fill="#000000" font-family="sans-serif" font-size="12" lengthAdjust="spacingAndGlyphs" textLength="86" x="266" y="506.9102">Sk.CmsAes256</text><line style="stroke: #A80036; stroke-width: 1.5;" x1="238" x2="354" y1="518" y2="518"/><rect fill="none" height="6" style="stroke: #C82930; stroke-width: 1.0;" width="6" x="245" y="527.418"/><text fill="#000000" font-family="sans-serif" font-size="11" lengthAdjust="spacingAndGlyphs" text-decoration="underline" textLength="36" x="257" y="533.4189">KID : int</text><line style="stroke: #A80036; stroke-width: 1.5;" x1="238" x2="354" y1="539.8359" y2="539.8359"/><ellipse cx="248" cy="552.2539" fill="#84BE84" rx="3" ry="3" style="stroke: #038048; stroke-width: 1.0;"/><text fill="#000000" font-family="sans-serif" font-size="11" lengthAdjust="spacingAndGlyphs" textLength="39" x="257" y="555.2549">getKID()</text><!--class cardfilesystem.egk2mf.Sk.ICMSSymkey--><rect fill="#FEFECE" filter="url(#f9g14fjcleqvb)" height="61.8359" id="cardfilesystem.egk2mf.Sk.ICMSSymkey" style="stroke: #A80036; stroke-width: 1.5;" width="125" x="206.5" y="343.5"/><ellipse cx="221.5" cy="359.5" fill="#B4A7E5" rx="11" ry="11" style="stroke: #A80036; stroke-width: 1.0;"/><path d="M222.5,356.5 L222.5,362.5 L224.5,362.5 L224.9844,362.5 L225.5,363.125 L225.5,363.5 L225.5,363.875 L224.9844,364.5 L224.5,364.5 L218.5,364.5 L218.0156,364.5 L217.5,363.875 L217.5,363.5 L217.5,363.125 L218.0156,362.5 L218.5,362.5 L220.5,362.5 L220.5,356.5 L218.5,356.5 L218.0156,356.5 L217.5,355.875 L217.5,355.5 L217.5,355.125 L218.0156,354.5 L218.5,354.5 L224.5,354.5 L224.9844,354.5 L225.5,355.125 L225.5,355.5 L225.5,355.875 L224.9844,356.5 L224.5,356.5 L222.5,356.5 Z "/><text fill="#000000" font-family="sans-serif" font-size="12" font-style="italic" lengthAdjust="spacingAndGlyphs" textLength="93" x="235.5" y="364.4102">Sk.ICMSSymkey</text><line style="stroke: #A80036; stroke-width: 1.5;" x1="207.5" x2="330.5" y1="375.5" y2="375.5"/><line style="stroke: #A80036; stroke-width: 1.5;" x1="207.5" x2="330.5" y1="383.5" y2="383.5"/><ellipse cx="217.5" cy="395.918" fill="#84BE84" rx="3" ry="3" style="stroke: #038048; stroke-width: 1.0;"/><text fill="#000000" font-family="sans-serif" font-size="11" font-style="italic" lengthAdjust="spacingAndGlyphs" textLength="41" x="226.5" y="398.9189">getKID()</text><!--class cardfilesystem.egk2mf.Sk.IVSDSymkey--><rect fill="#FEFECE" filter="url(#f9g14fjcleqvb)" height="61.8359" id="cardfilesystem.egk2mf.Sk.IVSDSymkey" style="stroke: #A80036; stroke-width: 1.5;" width="124" x="441" y="343.5"/><ellipse cx="456" cy="359.5" fill="#B4A7E5" rx="11" ry="11" style="stroke: #A80036; stroke-width: 1.0;"/><path d="M457,356.5 L457,362.5 L459,362.5 L459.4844,362.5 L460,363.125 L460,363.5 L460,363.875 L459.4844,364.5 L459,364.5 L453,364.5 L452.5156,364.5 L452,363.875 L452,363.5 L452,363.125 L452.5156,362.5 L453,362.5 L455,362.5 L455,356.5 L453,356.5 L452.5156,356.5 L452,355.875 L452,355.5 L452,355.125 L452.5156,354.5 L453,354.5 L459,354.5 L459.4844,354.5 L460,355.125 L460,355.5 L460,355.875 L459.4844,356.5 L459,356.5 L457,356.5 Z "/><text fill="#000000" font-family="sans-serif" font-size="12" font-style="italic" lengthAdjust="spacingAndGlyphs" textLength="92" x="470" y="364.4102">Sk.IVSDSymkey</text><line style="stroke: #A80036; stroke-width: 1.5;" x1="442" x2="564" y1="375.5" y2="375.5"/><line style="stroke: #A80036; stroke-width: 1.5;" x1="442" x2="564" y1="383.5" y2="383.5"/><ellipse cx="452" cy="395.918" fill="#84BE84" rx="3" ry="3" style="stroke: #038048; stroke-width: 1.0;"/><text fill="#000000" font-family="sans-serif" font-size="11" font-style="italic" lengthAdjust="spacingAndGlyphs" textLength="41" x="461" y="398.9189">getKID()</text><!--class cardfilesystem.egk2mf.Sk.VsdAes128--><rect fill="#FEFECE" filter="url(#f9g14fjcleqvb)" height="75.6719" id="cardfilesystem.egk2mf.Sk.VsdAes128" style="stroke: #A80036; stroke-width: 1.5;" width="112" x="394" y="486"/><ellipse cx="409" cy="502" fill="#ADD1B2" rx="11" ry="11" style="stroke: #A80036; stroke-width: 1.0;"/><path d="M411,498.5 Q411.2031,498 411.4375,497.75 Q411.6719,497.5 411.9375,497.5 Q412.4063,497.5 412.7031,497.7813 Q413,498.0625 413,498.7188 L413,500.2813 Q413,500.9375 412.7188,501.2188 Q412.4375,501.5 412,501.5 Q411.6094,501.5 411.3594,501.3281 Q411.1094,501.1563 411,500.7031 Q410.9531,500.3906 410.7813,500.2188 Q410.4688,499.8906 409.9063,499.7031 Q409.3438,499.5 408.7813,499.5 Q408.0781,499.5 407.4844,499.7813 Q406.9063,500.0625 406.4531,500.6875 Q406,501.3125 406,502.1719 L406,503.0938 Q406,504.125 406.8438,504.8125 Q407.6875,505.5 409.1875,505.5 Q410.0781,505.5 410.7031,505.2969 Q411.0625,505.1875 411.4688,504.8281 Q411.7344,504.625 411.875,504.5625 Q412.0156,504.5 412.1875,504.5 Q412.5156,504.5 412.75,504.7656 Q413,505.0156 413,505.375 Q413,505.7188 412.6563,506.125 Q412.1563,506.7188 411.3594,507.0469 Q410.3125,507.5 409.0313,507.5 Q407.5313,507.5 406.3281,506.9063 Q405.3594,506.4375 404.6719,505.4219 Q404,504.4063 404,503.2031 L404,502.1094 Q404,500.8594 404.5938,499.7656 Q405.2031,498.6719 406.25,498.0938 Q407.3125,497.5 408.5,497.5 Q409.2188,497.5 409.8438,497.75 Q410.4688,498 411,498.5 Z "/><text fill="#000000" font-family="sans-serif" font-size="12" lengthAdjust="spacingAndGlyphs" textLength="80" x="423" y="506.9102">Sk.VsdAes128</text><line style="stroke: #A80036; stroke-width: 1.5;" x1="395" x2="505" y1="518" y2="518"/><rect fill="none" height="6" style="stroke: #C82930; stroke-width: 1.0;" width="6" x="402" y="527.418"/><text fill="#000000" font-family="sans-serif" font-size="11" lengthAdjust="spacingAndGlyphs" text-decoration="underline" textLength="36" x="414" y="533.4189">KID : int</text><line style="stroke: #A80036; stroke-width: 1.5;" x1="395" x2="505" y1="539.8359" y2="539.8359"/><ellipse cx="405" cy="552.2539" fill="#84BE84" rx="3" ry="3" style="stroke: #038048; stroke-width: 1.0;"/><text fill="#000000" font-family="sans-serif" font-size="11" lengthAdjust="spacingAndGlyphs" textLength="39" x="414" y="555.2549">getKID()</text><!--class cardfilesystem.egk2mf.Sk.VsdAes256--><rect fill="#FEFECE" filter="url(#f9g14fjcleqvb)" height="75.6719" id="cardfilesystem.egk2mf.Sk.VsdAes256" style="stroke: #A80036; stroke-width: 1.5;" width="112" x="543" y="486"/><ellipse cx="558" cy="502" fill="#ADD1B2" rx="11" ry="11" style="stroke: #A80036; stroke-width: 1.0;"/><path d="M560,498.5 Q560.2031,498 560.4375,497.75 Q560.6719,497.5 560.9375,497.5 Q561.4063,497.5 561.7031,497.7813 Q562,498.0625 562,498.7188 L562,500.2813 Q562,500.9375 561.7188,501.2188 Q561.4375,501.5 561,501.5 Q560.6094,501.5 560.3594,501.3281 Q560.1094,501.1563 560,500.7031 Q559.9531,500.3906 559.7813,500.2188 Q559.4688,499.8906 558.9063,499.7031 Q558.3438,499.5 557.7813,499.5 Q557.0781,499.5 556.4844,499.7813 Q555.9063,500.0625 555.4531,500.6875 Q555,501.3125 555,502.1719 L555,503.0938 Q555,504.125 555.8438,504.8125 Q556.6875,505.5 558.1875,505.5 Q559.0781,505.5 559.7031,505.2969 Q560.0625,505.1875 560.4688,504.8281 Q560.7344,504.625 560.875,504.5625 Q561.0156,504.5 561.1875,504.5 Q561.5156,504.5 561.75,504.7656 Q562,505.0156 562,505.375 Q562,505.7188 561.6563,506.125 Q561.1563,506.7188 560.3594,507.0469 Q559.3125,507.5 558.0313,507.5 Q556.5313,507.5 555.3281,506.9063 Q554.3594,506.4375 553.6719,505.4219 Q553,504.4063 553,503.2031 L553,502.1094 Q553,500.8594 553.5938,499.7656 Q554.2031,498.6719 555.25,498.0938 Q556.3125,497.5 557.5,497.5 Q558.2188,497.5 558.8438,497.75 Q559.4688,498 560,498.5 Z "/><text fill="#000000" font-family="sans-serif" font-size="12" lengthAdjust="spacingAndGlyphs" textLength="80" x="572" y="506.9102">Sk.VsdAes256</text><line style="stroke: #A80036; stroke-width: 1.5;" x1="544" x2="654" y1="518" y2="518"/><rect fill="none" height="6" style="stroke: #C82930; stroke-width: 1.0;" width="6" x="551" y="527.418"/><text fill="#000000" font-family="sans-serif" font-size="11" lengthAdjust="spacingAndGlyphs" text-decoration="underline" textLength="36" x="563" y="533.4189">KID : int</text><line style="stroke: #A80036; stroke-width: 1.5;" x1="544" x2="654" y1="539.8359" y2="539.8359"/><ellipse cx="554" cy="552.2539" fill="#84BE84" rx="3" ry="3" style="stroke: #038048; stroke-width: 1.0;"/><text fill="#000000" font-family="sans-serif" font-size="11" lengthAdjust="spacingAndGlyphs" textLength="39" x="563" y="555.2549">getKID()</text><!--link cardfilesystem.egk2mf.Df to cardfilesystem.egk2mf.Df.CiaEsign--><path d="M2354.3,249.419 C2363.8,278.39 2374.66,311.486 2382.77,336.207 " fill="none" id="cardfilesystem.egk2mf.Df-cardfilesystem.egk2mf.Df.CiaEsign" style="stroke: #A80036; stroke-width: 1.0;"/><ellipse cx="2352.103" cy="242.7506" fill="#FFFFFF" rx="8" ry="8" style="stroke: #A80036; stroke-width: 1.0;"/><line style="stroke: #A80036; stroke-width: 1.0;" x1="2354.596" x2="2349.61" y1="250.3523" y2="235.149"/><line style="stroke: #A80036; stroke-width: 1.0;" x1="2344.5014" x2="2359.7046" y1="245.2436" y2="240.2576"/><!--link cardfilesystem.egk2mf.Df to cardfilesystem.egk2mf.Df.Esign--><path d="M2393.69,246.168 C2421.58,274.508 2453.9,307.346 2478.72,332.575 " fill="none" id="cardfilesystem.egk2mf.Df-cardfilesystem.egk2mf.Df.Esign" style="stroke: #A80036; stroke-width: 1.0;"/><ellipse cx="2388.4491" cy="240.8533" fill="#FFFFFF" rx="8" ry="8" style="stroke: #A80036; stroke-width: 1.0;"/><line style="stroke: #A80036; stroke-width: 1.0;" x1="2394.0581" x2="2382.84" y1="246.5575" y2="235.149"/><line style="stroke: #A80036; stroke-width: 1.0;" x1="2382.7448" x2="2394.1533" y1="246.4623" y2="235.2442"/><!--link cardfilesystem.egk2mf.Df to cardfilesystem.egk2mf.Df.Hca--><path d="M2275.13,246.293 C2249.26,273.914 2219.41,305.786 2196.07,330.718 " fill="none" id="cardfilesystem.egk2mf.Df-cardfilesystem.egk2mf.Df.Hca" style="stroke: #A80036; stroke-width: 1.0;"/><ellipse cx="2280.1036" cy="240.9901" fill="#FFFFFF" rx="8" ry="8" style="stroke: #A80036; stroke-width: 1.0;"/><line style="stroke: #A80036; stroke-width: 1.0;" x1="2274.6372" x2="2285.57" y1="246.8312" y2="235.149"/><line style="stroke: #A80036; stroke-width: 1.0;" x1="2274.2625" x2="2285.9447" y1="235.5237" y2="246.4565"/><!--link cardfilesystem.egk2mf.Df to cardfilesystem.egk2mf.Df.Qes--><path d="M2311.64,249.617 C2303.79,273.533 2295.03,300.238 2287.66,322.712 " fill="none" id="cardfilesystem.egk2mf.Df-cardfilesystem.egk2mf.Df.Qes" style="stroke: #A80036; stroke-width: 1.0;"/><ellipse cx="2313.897" cy="242.7506" fill="#FFFFFF" rx="8" ry="8" style="stroke: #A80036; stroke-width: 1.0;"/><line style="stroke: #A80036; stroke-width: 1.0;" x1="2311.404" x2="2316.39" y1="250.3523" y2="235.149"/><line style="stroke: #A80036; stroke-width: 1.0;" x1="2306.2954" x2="2321.4986" y1="240.2576" y2="245.2436"/><!--link cardfilesystem.egk2mf.Ef to cardfilesystem.egk2mf.Ef.Atr--><path d="M1449.98,273.214 C1431.92,289.656 1413.32,306.764 1396,323 C1390.22,328.423 1384.13,334.235 1378.24,339.917 " fill="none" id="cardfilesystem.egk2mf.Ef-cardfilesystem.egk2mf.Ef.Atr" style="stroke: #A80036; stroke-width: 1.0;"/><ellipse cx="1455.2084" cy="268.4561" fill="#FFFFFF" rx="8" ry="8" style="stroke: #A80036; stroke-width: 1.0;"/><line style="stroke: #A80036; stroke-width: 1.0;" x1="1449.2868" x2="1461.13" y1="273.8352" y2="263.077"/><line style="stroke: #A80036; stroke-width: 1.0;" x1="1449.8293" x2="1460.5875" y1="262.5345" y2="274.3777"/><!--link cardfilesystem.egk2mf.Ef to cardfilesystem.egk2mf.Ef.CardAccess--><path d="M1510.28,277.146 C1501.48,298.195 1492.63,319.368 1485.47,336.483 " fill="none" id="cardfilesystem.egk2mf.Ef-cardfilesystem.egk2mf.Ef.CardAccess" style="stroke: #A80036; stroke-width: 1.0;"/><ellipse cx="1513.0956" cy="270.3925" fill="#FFFFFF" rx="8" ry="8" style="stroke: #A80036; stroke-width: 1.0;"/><line style="stroke: #A80036; stroke-width: 1.0;" x1="1510.0112" x2="1516.18" y1="277.774" y2="263.011"/><line style="stroke: #A80036; stroke-width: 1.0;" x1="1505.7141" x2="1520.4771" y1="267.3081" y2="273.4769"/><!--link cardfilesystem.egk2mf.Ef to cardfilesystem.egk2mf.Ef.CcaEgkCsE256--><path d="M1588.09,276.844 C1597.04,297.993 1606.05,319.286 1613.33,336.483 " fill="none" id="cardfilesystem.egk2mf.Ef-cardfilesystem.egk2mf.Ef.CcaEgkCsE256" style="stroke: #A80036; stroke-width: 1.0;"/><ellipse cx="1585.3483" cy="270.3782" fill="#FFFFFF" rx="8" ry="8" style="stroke: #A80036; stroke-width: 1.0;"/><line style="stroke: #A80036; stroke-width: 1.0;" x1="1588.4666" x2="1582.23" y1="277.7455" y2="263.011"/><line style="stroke: #A80036; stroke-width: 1.0;" x1="1577.9811" x2="1592.7155" y1="273.4965" y2="267.2599"/><!--link cardfilesystem.egk2mf.Ef to cardfilesystem.egk2mf.Ef.CegkAutCvcE256--><path d="M1666.15,272.014 C1696.55,294.724 1727.67,317.975 1752.45,336.483 " fill="none" id="cardfilesystem.egk2mf.Ef-cardfilesystem.egk2mf.Ef.CegkAutCvcE256" style="stroke: #A80036; stroke-width: 1.0;"/><ellipse cx="1660.5069" cy="267.8017" fill="#FFFFFF" rx="8" ry="8" style="stroke: #A80036; stroke-width: 1.0;"/><line style="stroke: #A80036; stroke-width: 1.0;" x1="1666.9139" x2="1654.1" y1="272.5925" y2="263.011"/><line style="stroke: #A80036; stroke-width: 1.0;" x1="1655.7162" x2="1665.2977" y1="274.2087" y2="261.3948"/><!--link cardfilesystem.egk2mf.Ef to cardfilesystem.egk2mf.Ef.Dir--><path d="M1682.33,225.186 C1747.84,248.451 1826.19,281.351 1890,323 C1896.11,326.99 1902.12,331.763 1907.77,336.762 " fill="none" id="cardfilesystem.egk2mf.Ef-cardfilesystem.egk2mf.Ef.Dir" style="stroke: #A80036; stroke-width: 1.0;"/><ellipse cx="1675.6831" cy="222.8576" fill="#FFFFFF" rx="8" ry="8" style="stroke: #A80036; stroke-width: 1.0;"/><line style="stroke: #A80036; stroke-width: 1.0;" x1="1683.2361" x2="1668.13" y1="225.4941" y2="220.221"/><line style="stroke: #A80036; stroke-width: 1.0;" x1="1673.0465" x2="1678.3196" y1="230.4106" y2="215.3045"/><!--link cardfilesystem.egk2mf.Ef to cardfilesystem.egk2mf.Ef.Gdo--><path d="M1682.94,208.982 C1775,229.81 1897.54,265.67 1994,323 C2000.27,326.729 2006.37,331.361 2012.06,336.294 " fill="none" id="cardfilesystem.egk2mf.Ef-cardfilesystem.egk2mf.Ef.Gdo" style="stroke: #A80036; stroke-width: 1.0;"/><ellipse cx="1675.9608" cy="207.4335" fill="#FFFFFF" rx="8" ry="8" style="stroke: #A80036; stroke-width: 1.0;"/><line style="stroke: #A80036; stroke-width: 1.0;" x1="1683.7716" x2="1668.15" y1="209.1629" y2="205.704"/><line style="stroke: #A80036; stroke-width: 1.0;" x1="1674.2313" x2="1677.6903" y1="215.2443" y2="199.6227"/><!--link cardfilesystem.egk2mf.Ef to cardfilesystem.egk2mf.Ef.Version--><path d="M1415.17,220.091 C1338.31,243.497 1241.56,278.122 1162,323 C1155.11,326.888 1148.21,331.548 1141.65,336.444 " fill="none" id="cardfilesystem.egk2mf.Ef-cardfilesystem.egk2mf.Ef.Version" style="stroke: #A80036; stroke-width: 1.0;"/><ellipse cx="1422.1081" cy="218.007" fill="#FFFFFF" rx="8" ry="8" style="stroke: #A80036; stroke-width: 1.0;"/><line style="stroke: #A80036; stroke-width: 1.0;" x1="1414.4461" x2="1429.77" y1="220.308" y2="215.706"/><line style="stroke: #A80036; stroke-width: 1.0;" x1="1419.807" x2="1424.4091" y1="210.3451" y2="225.669"/><!--link cardfilesystem.egk2mf.Ef to cardfilesystem.egk2mf.Ef.Version2--><path d="M1416.56,251.044 C1376.13,272.708 1332.05,297.718 1293,323 C1286.58,327.155 1279.99,331.755 1273.58,336.436 " fill="none" id="cardfilesystem.egk2mf.Ef-cardfilesystem.egk2mf.Ef.Version2" style="stroke: #A80036; stroke-width: 1.0;"/><ellipse cx="1422.7699" cy="247.7433" fill="#FFFFFF" rx="8" ry="8" style="stroke: #A80036; stroke-width: 1.0;"/><line style="stroke: #A80036; stroke-width: 1.0;" x1="1415.7098" x2="1429.83" y1="251.5057" y2="243.981"/><line style="stroke: #A80036; stroke-width: 1.0;" x1="1419.0076" x2="1426.5322" y1="240.6832" y2="254.8034"/><!--link cardfilesystem.egk2mf.MrPin to cardfilesystem.egk2mf.MrPin.Home--><path d="M971,230.007 C971,265.1 971,312.652 971,343.209 " fill="none" id="cardfilesystem.egk2mf.MrPin-cardfilesystem.egk2mf.MrPin.Home" style="stroke: #A80036; stroke-width: 1.0;"/><ellipse cx="971" cy="222.866" fill="#FFFFFF" rx="8" ry="8" style="stroke: #A80036; stroke-width: 1.0;"/><line style="stroke: #A80036; stroke-width: 1.0;" x1="971" x2="971" y1="230.866" y2="214.866"/><line style="stroke: #A80036; stroke-width: 1.0;" x1="963" x2="979" y1="222.866" y2="222.866"/><!--link cardfilesystem.egk2mf.Pin to cardfilesystem.egk2mf.Pin.Ch--><path d="M853.796,230.007 C852.868,265.1 851.61,312.652 850.801,343.209 " fill="none" id="cardfilesystem.egk2mf.Pin-cardfilesystem.egk2mf.Pin.Ch" style="stroke: #A80036; stroke-width: 1.0;"/><ellipse cx="853.9852" cy="222.8632" fill="#FFFFFF" rx="8" ry="8" style="stroke: #A80036; stroke-width: 1.0;"/><line style="stroke: #A80036; stroke-width: 1.0;" x1="853.7734" x2="854.197" y1="230.8604" y2="214.866"/><line style="stroke: #A80036; stroke-width: 1.0;" x1="845.988" x2="861.9824" y1="222.6514" y2="223.075"/><!--link cardfilesystem.egk2mf.PrK to cardfilesystem.egk2mf.PrK.EgkAutCvcE256--><path d="M686.742,230.007 C691.941,265.1 698.985,312.652 703.512,343.209 " fill="none" id="cardfilesystem.egk2mf.PrK-cardfilesystem.egk2mf.PrK.EgkAutCvcE256" style="stroke: #A80036; stroke-width: 1.0;"/><ellipse cx="685.6716" cy="222.7796" fill="#FFFFFF" rx="8" ry="8" style="stroke: #A80036; stroke-width: 1.0;"/><line style="stroke: #A80036; stroke-width: 1.0;" x1="686.8443" x2="684.499" y1="230.6932" y2="214.866"/><line style="stroke: #A80036; stroke-width: 1.0;" x1="677.758" x2="693.5852" y1="223.9522" y2="221.607"/><!--link cardfilesystem.egk2mf.Sk to cardfilesystem.egk2mf.Sk.Can--><path d="M277.925,251.578 C249.066,273.759 217.274,298.931 189,323 C181.474,329.407 173.59,336.528 166.244,343.354 " fill="none" id="cardfilesystem.egk2mf.Sk-cardfilesystem.egk2mf.Sk.Can" style="stroke: #A80036; stroke-width: 1.0;"/><ellipse cx="283.7414" cy="247.1282" fill="#FFFFFF" rx="8" ry="8" style="stroke: #A80036; stroke-width: 1.0;"/><line style="stroke: #A80036; stroke-width: 1.0;" x1="277.3877" x2="290.095" y1="251.9894" y2="242.267"/><line style="stroke: #A80036; stroke-width: 1.0;" x1="278.8802" x2="288.6026" y1="240.7746" y2="253.4818"/><!--link cardfilesystem.egk2mf.Sk to cardfilesystem.egk2mf.Sk.CmsAes128--><path d="M272.487,202.937 C206.243,221.238 122.705,256.568 81,323 C49.025,373.934 82.1728,443.525 109.085,485.757 " fill="none" id="cardfilesystem.egk2mf.Sk-cardfilesystem.egk2mf.Sk.CmsAes128" style="stroke: #A80036; stroke-width: 1.0;"/><ellipse cx="279.457" cy="201.1043" fill="#FFFFFF" rx="8" ry="8" style="stroke: #A80036; stroke-width: 1.0;"/><line style="stroke: #A80036; stroke-width: 1.0;" x1="271.7199" x2="287.194" y1="203.1385" y2="199.07"/><line style="stroke: #A80036; stroke-width: 1.0;" x1="277.4227" x2="281.4912" y1="193.3672" y2="208.8413"/><!--link cardfilesystem.egk2mf.Sk to cardfilesystem.egk2mf.Sk.CmsAes256--><path d="M370.148,257.536 C369.675,306.207 365.347,371.077 349,426 C342.759,446.968 331.567,468.496 321.07,485.929 " fill="none" id="cardfilesystem.egk2mf.Sk-cardfilesystem.egk2mf.Sk.CmsAes256" style="stroke: #A80036; stroke-width: 1.0;"/><ellipse cx="370.1608" cy="250.336" fill="#FFFFFF" rx="8" ry="8" style="stroke: #A80036; stroke-width: 1.0;"/><line style="stroke: #A80036; stroke-width: 1.0;" x1="370.1455" x2="370.176" y1="258.336" y2="242.336"/><line style="stroke: #A80036; stroke-width: 1.0;" x1="362.1608" x2="378.1607" y1="250.3207" y2="250.3512"/><!--link cardfilesystem.egk2mf.Sk to cardfilesystem.egk2mf.Sk.ICMSSymkey--><path d="M330.628,255.846 C314.783,286.096 297.171,319.719 284.846,343.249 " fill="none" id="cardfilesystem.egk2mf.Sk-cardfilesystem.egk2mf.Sk.ICMSSymkey" style="stroke: #A80036; stroke-width: 1.0;"/><ellipse cx="334.0469" cy="249.3196" fill="#FFFFFF" rx="8" ry="8" style="stroke: #A80036; stroke-width: 1.0;"/><line style="stroke: #A80036; stroke-width: 1.0;" x1="330.3348" x2="337.759" y1="256.4063" y2="242.233"/><line style="stroke: #A80036; stroke-width: 1.0;" x1="326.9603" x2="341.1336" y1="245.6076" y2="253.0317"/><!--link cardfilesystem.egk2mf.Sk to cardfilesystem.egk2mf.Sk.IVSDSymkey--><path d="M418.087,254.622 C439.918,285.185 464.358,319.401 481.392,343.249 " fill="none" id="cardfilesystem.egk2mf.Sk-cardfilesystem.egk2mf.Sk.IVSDSymkey" style="stroke: #A80036; stroke-width: 1.0;"/><ellipse cx="413.888" cy="248.7428" fill="#FFFFFF" rx="8" ry="8" style="stroke: #A80036; stroke-width: 1.0;"/><line style="stroke: #A80036; stroke-width: 1.0;" x1="418.538" x2="409.238" y1="255.2526" y2="242.233"/><line style="stroke: #A80036; stroke-width: 1.0;" x1="407.3782" x2="420.3978" y1="253.3928" y2="244.0928"/><!--link cardfilesystem.egk2mf.Sk to cardfilesystem.egk2mf.Sk.VsdAes128--><path d="M383.557,256.949 C394.112,305.028 408.699,369.452 423,426 C428.014,445.828 434.085,467.793 439.199,485.8 " fill="none" id="cardfilesystem.egk2mf.Sk-cardfilesystem.egk2mf.Sk.VsdAes128" style="stroke: #A80036; stroke-width: 1.0;"/><ellipse cx="382.0549" cy="250.0783" fill="#FFFFFF" rx="8" ry="8" style="stroke: #A80036; stroke-width: 1.0;"/><line style="stroke: #A80036; stroke-width: 1.0;" x1="383.7638" x2="380.346" y1="257.8937" y2="242.263"/><line style="stroke: #A80036; stroke-width: 1.0;" x1="374.2395" x2="389.8702" y1="251.7872" y2="248.3695"/><!--link cardfilesystem.egk2mf.Sk to cardfilesystem.egk2mf.Sk.VsdAes256--><path d="M462.041,221.765 C506.06,244.271 554.703,277.523 582,323 C612.04,373.046 610.047,443.223 605.08,485.763 " fill="none" id="cardfilesystem.egk2mf.Sk-cardfilesystem.egk2mf.Sk.VsdAes256" style="stroke: #A80036; stroke-width: 1.0;"/><ellipse cx="455.7346" cy="218.659" fill="#FFFFFF" rx="8" ry="8" style="stroke: #A80036; stroke-width: 1.0;"/><line style="stroke: #A80036; stroke-width: 1.0;" x1="462.9112" x2="448.558" y1="222.194" y2="215.124"/><line style="stroke: #A80036; stroke-width: 1.0;" x1="452.1996" x2="459.2696" y1="225.8356" y2="211.4824"/><!--link cardfilesystem.egk2mf.Sk.ICMSSymkey to cardfilesystem.egk2mf.Sk.CmsAes128--><path d="M228.154,420.799 C209.373,441.627 187.368,466.031 169.572,485.768 " fill="none" id="cardfilesystem.egk2mf.Sk.ICMSSymkey-cardfilesystem.egk2mf.Sk.CmsAes128" style="stroke: #A80036; stroke-width: 1.0; stroke-dasharray: 7.0,7.0;"/><polygon fill="none" points="223.173,415.871,241.765,405.705,233.57,425.246,223.173,415.871" style="stroke: #A80036; stroke-width: 1.0;"/><!--link cardfilesystem.egk2mf.Sk.ICMSSymkey to cardfilesystem.egk2mf.Sk.CmsAes256--><path d="M278.143,425.448 C281.757,445.191 285.838,467.483 289.185,485.768 " fill="none" id="cardfilesystem.egk2mf.Sk.ICMSSymkey-cardfilesystem.egk2mf.Sk.CmsAes256" style="stroke: #A80036; stroke-width: 1.0; stroke-dasharray: 7.0,7.0;"/><polygon fill="none" points="271.245,426.638,274.529,405.705,285.016,424.117,271.245,426.638" style="stroke: #A80036; stroke-width: 1.0;"/><!--link cardfilesystem.egk2mf.Sk.IVSDSymkey to cardfilesystem.egk2mf.Sk.VsdAes128--><path d="M485.277,424.822 C478.128,444.719 470.018,467.289 463.378,485.768 " fill="none" id="cardfilesystem.egk2mf.Sk.IVSDSymkey-cardfilesystem.egk2mf.Sk.VsdAes128" style="stroke: #A80036; stroke-width: 1.0; stroke-dasharray: 7.0,7.0;"/><polygon fill="none" points="478.796,422.159,492.147,405.705,491.971,426.894,478.796,422.159" style="stroke: #A80036; stroke-width: 1.0;"/><!--link cardfilesystem.egk2mf.Sk.IVSDSymkey to cardfilesystem.egk2mf.Sk.VsdAes256--><path d="M533.685,422.646 C546.97,443.059 562.3,466.612 574.768,485.768 " fill="none" id="cardfilesystem.egk2mf.Sk.IVSDSymkey-cardfilesystem.egk2mf.Sk.VsdAes256" style="stroke: #A80036; stroke-width: 1.0; stroke-dasharray: 7.0,7.0;"/><polygon fill="none" points="527.702,426.286,522.659,405.705,539.435,418.649,527.702,426.286" style="stroke: #A80036; stroke-width: 1.0;"/><!--
@startuml



  namespace cardfilesystem {
    namespace egk2mf {
      class cardfilesystem.egk2mf.Df {
          {static} + CIA_ESIGN : CiaEsign
          {static} + ESIGN : Esign
          {static} + HCA : Hca
          {static} + QES : Qes
      }
    }
  }


  namespace cardfilesystem {
    namespace egk2mf {
      class cardfilesystem.egk2mf.Df.CiaEsign {
          {static} + AID : String
          {static} + EF : Ef
      }
    }
  }


  namespace cardfilesystem {
    namespace egk2mf {
      class cardfilesystem.egk2mf.Df.Esign {
          {static} + AID : String
          {static} + EF : Ef
          {static} + PrK : PrK
      }
    }
  }


  namespace cardfilesystem {
    namespace egk2mf {
      class cardfilesystem.egk2mf.Df.Hca {
          {static} + AID : String
          {static} + DF : Df
          {static} + EF : Ef
      }
    }
  }


  namespace cardfilesystem {
    namespace egk2mf {
      class cardfilesystem.egk2mf.Df.Qes {
          {static} + AID : String
          {static} + EF : Ef
          {static} + PIN : Pin
          {static} + PrK : PrK
      }
    }
  }


  namespace cardfilesystem {
    namespace egk2mf {
      class cardfilesystem.egk2mf.Ef {
          {static} + ATR : Atr
          {static} + C_CA_EGK_CS_E256 : CcaEgkCsE256
          {static} + C_EGK_AUT_CVC_E256 : CegkAutCvcE256
          {static} + CardAccess : CardAccess
          {static} + DIR : Dir
          {static} + GDO : Gdo
          {static} + Version : Version
          {static} + Version2 : Version2
      }
    }
  }


  namespace cardfilesystem {
    namespace egk2mf {
      class cardfilesystem.egk2mf.Ef.Atr {
          {static} + FID : int
          {static} + SFID : int
      }
    }
  }


  namespace cardfilesystem {
    namespace egk2mf {
      class cardfilesystem.egk2mf.Ef.CardAccess {
          {static} + FID : int
          {static} + SFID : int
      }
    }
  }


  namespace cardfilesystem {
    namespace egk2mf {
      class cardfilesystem.egk2mf.Ef.CcaEgkCsE256 {
          {static} + FID : int
          {static} + SFID : int
      }
    }
  }


  namespace cardfilesystem {
    namespace egk2mf {
      class cardfilesystem.egk2mf.Ef.CegkAutCvcE256 {
          {static} + FID : int
          {static} + SFID : int
      }
    }
  }


  namespace cardfilesystem {
    namespace egk2mf {
      class cardfilesystem.egk2mf.Ef.Dir {
          {static} + FID : int
          {static} + SFID : int
      }
    }
  }


  namespace cardfilesystem {
    namespace egk2mf {
      class cardfilesystem.egk2mf.Ef.Gdo {
          {static} + FID : int
          {static} + SFID : int
      }
    }
  }


  namespace cardfilesystem {
    namespace egk2mf {
      class cardfilesystem.egk2mf.Ef.Version {
          {static} + FID : int
          {static} + SFID : int
      }
    }
  }


  namespace cardfilesystem {
    namespace egk2mf {
      class cardfilesystem.egk2mf.Ef.Version2 {
          {static} + FID : int
          {static} + SFID : int
      }
    }
  }


  namespace cardfilesystem {
    namespace egk2mf {
      class cardfilesystem.egk2mf.MrPin {
          {static} + home : Home
      }
    }
  }


  namespace cardfilesystem {
    namespace egk2mf {
      class cardfilesystem.egk2mf.MrPin.Home {
          {static} + PWID : int
      }
    }
  }


  namespace cardfilesystem {
    namespace egk2mf {
      class cardfilesystem.egk2mf.Pin {
          {static} + CH : Ch
      }
    }
  }


  namespace cardfilesystem {
    namespace egk2mf {
      class cardfilesystem.egk2mf.Pin.Ch {
          {static} + PWID : int
      }
    }
  }


  namespace cardfilesystem {
    namespace egk2mf {
      class cardfilesystem.egk2mf.PrK {
          {static} + EGK_AUT_CVC_E256 : EgkAutCvcE256
      }
    }
  }


  namespace cardfilesystem {
    namespace egk2mf {
      class cardfilesystem.egk2mf.PrK.EgkAutCvcE256 {
          {static} + KID : int
      }
    }
  }


  namespace cardfilesystem {
    namespace egk2mf {
      class cardfilesystem.egk2mf.Sk {
          {static} + CAN : Can
          {static} + CMS_AES128 : CmsAes128
          {static} + CMS_AES256 : CmsAes256
          {static} + VSD_AES128 : VsdAes128
          {static} + VSD_AES256 : VsdAes256
      }
    }
  }


  namespace cardfilesystem {
    namespace egk2mf {
      class cardfilesystem.egk2mf.Sk.Can {
          {static} + KID : int
      }
    }
  }


  namespace cardfilesystem {
    namespace egk2mf {
      class cardfilesystem.egk2mf.Sk.CmsAes128 {
          {static} - KID : int
          + getKID()
      }
    }
  }


  namespace cardfilesystem {
    namespace egk2mf {
      class cardfilesystem.egk2mf.Sk.CmsAes256 {
          {static} - KID : int
          + getKID()
      }
    }
  }


  namespace cardfilesystem {
    namespace egk2mf {
      interface cardfilesystem.egk2mf.Sk.ICMSSymkey {
          {abstract} + getKID()
      }
    }
  }


  namespace cardfilesystem {
    namespace egk2mf {
      interface cardfilesystem.egk2mf.Sk.IVSDSymkey {
          {abstract} + getKID()
      }
    }
  }


  namespace cardfilesystem {
    namespace egk2mf {
      class cardfilesystem.egk2mf.Sk.VsdAes128 {
          {static} - KID : int
          + getKID()
      }
    }
  }


  namespace cardfilesystem {
    namespace egk2mf {
      class cardfilesystem.egk2mf.Sk.VsdAes256 {
          {static} - KID : int
          + getKID()
      }
    }
  }


  cardfilesystem.egk2mf.Df +-down- cardfilesystem.egk2mf.Df.CiaEsign
  cardfilesystem.egk2mf.Df +-down- cardfilesystem.egk2mf.Df.Esign
  cardfilesystem.egk2mf.Df +-down- cardfilesystem.egk2mf.Df.Hca
  cardfilesystem.egk2mf.Df +-down- cardfilesystem.egk2mf.Df.Qes
  cardfilesystem.egk2mf.Ef +-down- cardfilesystem.egk2mf.Ef.Atr
  cardfilesystem.egk2mf.Ef +-down- cardfilesystem.egk2mf.Ef.CardAccess
  cardfilesystem.egk2mf.Ef +-down- cardfilesystem.egk2mf.Ef.CcaEgkCsE256
  cardfilesystem.egk2mf.Ef +-down- cardfilesystem.egk2mf.Ef.CegkAutCvcE256
  cardfilesystem.egk2mf.Ef +-down- cardfilesystem.egk2mf.Ef.Dir
  cardfilesystem.egk2mf.Ef +-down- cardfilesystem.egk2mf.Ef.Gdo
  cardfilesystem.egk2mf.Ef +-down- cardfilesystem.egk2mf.Ef.Version
  cardfilesystem.egk2mf.Ef +-down- cardfilesystem.egk2mf.Ef.Version2
  cardfilesystem.egk2mf.MrPin +-down- cardfilesystem.egk2mf.MrPin.Home
  cardfilesystem.egk2mf.Pin +-down- cardfilesystem.egk2mf.Pin.Ch
  cardfilesystem.egk2mf.PrK +-down- cardfilesystem.egk2mf.PrK.EgkAutCvcE256
  cardfilesystem.egk2mf.Sk +-down- cardfilesystem.egk2mf.Sk.Can
  cardfilesystem.egk2mf.Sk +-down- cardfilesystem.egk2mf.Sk.CmsAes128
  cardfilesystem.egk2mf.Sk +-down- cardfilesystem.egk2mf.Sk.CmsAes256
  cardfilesystem.egk2mf.Sk +-down- cardfilesystem.egk2mf.Sk.ICMSSymkey
  cardfilesystem.egk2mf.Sk +-down- cardfilesystem.egk2mf.Sk.IVSDSymkey
  cardfilesystem.egk2mf.Sk +-down- cardfilesystem.egk2mf.Sk.VsdAes128
  cardfilesystem.egk2mf.Sk +-down- cardfilesystem.egk2mf.Sk.VsdAes256
  cardfilesystem.egk2mf.Sk.CmsAes128 .up.|> cardfilesystem.egk2mf.Sk.ICMSSymkey
  cardfilesystem.egk2mf.Sk.CmsAes256 .up.|> cardfilesystem.egk2mf.Sk.ICMSSymkey
  cardfilesystem.egk2mf.Sk.VsdAes128 .up.|> cardfilesystem.egk2mf.Sk.IVSDSymkey
  cardfilesystem.egk2mf.Sk.VsdAes256 .up.|> cardfilesystem.egk2mf.Sk.IVSDSymkey









@enduml

PlantUML version 1.2019.06(Fri May 24 19:10:25 CEST 2019)
(APACHE source distribution)
Java Runtime: OpenJDK Runtime Environment
JVM: OpenJDK 64-Bit Server VM
Java Version: 11.0.4+10-b304.69
Operating System: Windows 7
OS Version: 6.1
Default Encoding: Cp1252
Language: de
Country: DE
--></g></svg>