<?xml version="1.0" encoding="UTF-8" standalone="no"?><svg xmlns="http://www.w3.org/2000/svg" xmlns:xlink="http://www.w3.org/1999/xlink" contentScriptType="application/ecmascript" contentStyleType="text/css" height="363px" preserveAspectRatio="none" style="width:1438px;height:363px;" version="1.1" viewBox="0 0 1438 363" width="1438px" zoomAndPan="magnify"><defs><filter height="300%" id="f1fh59bkzd4lki" width="300%" x="-1" y="-1"><feGaussianBlur result="blurOut" stdDeviation="2.0"/><feColorMatrix in="blurOut" result="blurOut2" type="matrix" values="0 0 0 0 0 0 0 0 0 0 0 0 0 0 0 0 0 0 .4 0"/><feOffset dx="4.0" dy="4.0" in="blurOut2" result="blurOut3"/><feBlend in="SourceGraphic" in2="blurOut3" mode="normal"/></filter></defs><g><!--cluster de.gematik.ti.healthcardaccess--><polygon fill="#FFFFFF" filter="url(#f1fh59bkzd4lki)" points="22,24,246,24,253,47.6094,1416,47.6094,1416,351,22,351,22,24" style="stroke: #000000; stroke-width: 1.5;"/><line style="stroke: #000000; stroke-width: 1.5;" x1="22" x2="253" y1="47.6094" y2="47.6094"/><text fill="#000000" font-family="sans-serif" font-size="14" font-weight="bold" lengthAdjust="spacingAndGlyphs" textLength="218" x="26" y="40.5332">de.gematik.ti.healthcardaccess</text><!--cluster de.gematik.ti.healthcardaccess.healthcards--><polygon fill="#FFFFFF" filter="url(#f1fh59bkzd4lki)" points="46,172,135,172,142,195.6094,1392,195.6094,1392,327,46,327,46,172" style="stroke: #000000; stroke-width: 1.5;"/><line style="stroke: #000000; stroke-width: 1.5;" x1="46" x2="142" y1="195.6094" y2="195.6094"/><text fill="#000000" font-family="sans-serif" font-size="14" font-weight="bold" lengthAdjust="spacingAndGlyphs" textLength="83" x="50" y="188.5332">healthcards</text><!--class de.gematik.ti.healthcardaccess.IHealthCardType--><rect fill="#FEFECE" filter="url(#f1fh59bkzd4lki)" height="48" id="de.gematik.ti.healthcardaccess.IHealthCardType" style="stroke: #A80036; stroke-width: 1.5;" width="124" x="923" y="60"/><ellipse cx="938" cy="76" fill="#ADD1B2" rx="11" ry="11" style="stroke: #A80036; stroke-width: 1.0;"/><path d="M940,72.5 Q940.2031,72 940.4375,71.75 Q940.6719,71.5 940.9375,71.5 Q941.4063,71.5 941.7031,71.7813 Q942,72.0625 942,72.7188 L942,74.2813 Q942,74.9375 941.7188,75.2188 Q941.4375,75.5 941,75.5 Q940.6094,75.5 940.3594,75.3281 Q940.1094,75.1563 940,74.7031 Q939.9531,74.3906 939.7813,74.2188 Q939.4688,73.8906 938.9063,73.7031 Q938.3438,73.5 937.7813,73.5 Q937.0781,73.5 936.4844,73.7813 Q935.9063,74.0625 935.4531,74.6875 Q935,75.3125 935,76.1719 L935,77.0938 Q935,78.125 935.8438,78.8125 Q936.6875,79.5 938.1875,79.5 Q939.0781,79.5 939.7031,79.2969 Q940.0625,79.1875 940.4688,78.8281 Q940.7344,78.625 940.875,78.5625 Q941.0156,78.5 941.1875,78.5 Q941.5156,78.5 941.75,78.7656 Q942,79.0156 942,79.375 Q942,79.7188 941.6563,80.125 Q941.1563,80.7188 940.3594,81.0469 Q939.3125,81.5 938.0313,81.5 Q936.5313,81.5 935.3281,80.9063 Q934.3594,80.4375 933.6719,79.4219 Q933,78.4063 933,77.2031 L933,76.1094 Q933,74.8594 933.5938,73.7656 Q934.2031,72.6719 935.25,72.0938 Q936.3125,71.5 937.5,71.5 Q938.2188,71.5 938.8438,71.75 Q939.4688,72 940,72.5 Z "/><text fill="#000000" font-family="sans-serif" font-size="12" lengthAdjust="spacingAndGlyphs" textLength="92" x="952" y="80.9102">IHealthCardType</text><line style="stroke: #A80036; stroke-width: 1.5;" x1="924" x2="1046" y1="92" y2="92"/><line style="stroke: #A80036; stroke-width: 1.5;" x1="924" x2="1046" y1="100" y2="100"/><!--class de.gematik.ti.healthcardaccess.IHealthCardStatus--><rect fill="#FEFECE" filter="url(#f1fh59bkzd4lki)" height="48" id="de.gematik.ti.healthcardaccess.IHealthCardStatus" style="stroke: #A80036; stroke-width: 1.5;" width="133" x="287.5" y="60"/><ellipse cx="302.5" cy="76" fill="#ADD1B2" rx="11" ry="11" style="stroke: #A80036; stroke-width: 1.0;"/><path d="M304.5,72.5 Q304.7031,72 304.9375,71.75 Q305.1719,71.5 305.4375,71.5 Q305.9063,71.5 306.2031,71.7813 Q306.5,72.0625 306.5,72.7188 L306.5,74.2813 Q306.5,74.9375 306.2188,75.2188 Q305.9375,75.5 305.5,75.5 Q305.1094,75.5 304.8594,75.3281 Q304.6094,75.1563 304.5,74.7031 Q304.4531,74.3906 304.2813,74.2188 Q303.9688,73.8906 303.4063,73.7031 Q302.8438,73.5 302.2813,73.5 Q301.5781,73.5 300.9844,73.7813 Q300.4063,74.0625 299.9531,74.6875 Q299.5,75.3125 299.5,76.1719 L299.5,77.0938 Q299.5,78.125 300.3438,78.8125 Q301.1875,79.5 302.6875,79.5 Q303.5781,79.5 304.2031,79.2969 Q304.5625,79.1875 304.9688,78.8281 Q305.2344,78.625 305.375,78.5625 Q305.5156,78.5 305.6875,78.5 Q306.0156,78.5 306.25,78.7656 Q306.5,79.0156 306.5,79.375 Q306.5,79.7188 306.1563,80.125 Q305.6563,80.7188 304.8594,81.0469 Q303.8125,81.5 302.5313,81.5 Q301.0313,81.5 299.8281,80.9063 Q298.8594,80.4375 298.1719,79.4219 Q297.5,78.4063 297.5,77.2031 L297.5,76.1094 Q297.5,74.8594 298.0938,73.7656 Q298.7031,72.6719 299.75,72.0938 Q300.8125,71.5 302,71.5 Q302.7188,71.5 303.3438,71.75 Q303.9688,72 304.5,72.5 Z "/><text fill="#000000" font-family="sans-serif" font-size="12" lengthAdjust="spacingAndGlyphs" textLength="101" x="316.5" y="80.9102">IHealthCardStatus</text><line style="stroke: #A80036; stroke-width: 1.5;" x1="288.5" x2="419.5" y1="92" y2="92"/><line style="stroke: #A80036; stroke-width: 1.5;" x1="288.5" x2="419.5" y1="100" y2="100"/><!--class de.gematik.ti.healthcardaccess.healthcards.Egk2--><rect fill="#FEFECE" filter="url(#f1fh59bkzd4lki)" height="48" id="de.gematik.ti.healthcardaccess.healthcards.Egk2" style="stroke: #A80036; stroke-width: 1.5;" width="60" x="905" y="235.5"/><ellipse cx="920" cy="251.5" fill="#ADD1B2" rx="11" ry="11" style="stroke: #A80036; stroke-width: 1.0;"/><path d="M922,248 Q922.2031,247.5 922.4375,247.25 Q922.6719,247 922.9375,247 Q923.4063,247 923.7031,247.2813 Q924,247.5625 924,248.2188 L924,249.7813 Q924,250.4375 923.7188,250.7188 Q923.4375,251 923,251 Q922.6094,251 922.3594,250.8281 Q922.1094,250.6563 922,250.2031 Q921.9531,249.8906 921.7813,249.7188 Q921.4688,249.3906 920.9063,249.2031 Q920.3438,249 919.7813,249 Q919.0781,249 918.4844,249.2813 Q917.9063,249.5625 917.4531,250.1875 Q917,250.8125 917,251.6719 L917,252.5938 Q917,253.625 917.8438,254.3125 Q918.6875,255 920.1875,255 Q921.0781,255 921.7031,254.7969 Q922.0625,254.6875 922.4688,254.3281 Q922.7344,254.125 922.875,254.0625 Q923.0156,254 923.1875,254 Q923.5156,254 923.75,254.2656 Q924,254.5156 924,254.875 Q924,255.2188 923.6563,255.625 Q923.1563,256.2188 922.3594,256.5469 Q921.3125,257 920.0313,257 Q918.5313,257 917.3281,256.4063 Q916.3594,255.9375 915.6719,254.9219 Q915,253.9063 915,252.7031 L915,251.6094 Q915,250.3594 915.5938,249.2656 Q916.2031,248.1719 917.25,247.5938 Q918.3125,247 919.5,247 Q920.2188,247 920.8438,247.25 Q921.4688,247.5 922,248 Z "/><text fill="#000000" font-family="sans-serif" font-size="12" lengthAdjust="spacingAndGlyphs" textLength="28" x="934" y="256.4102">Egk2</text><line style="stroke: #A80036; stroke-width: 1.5;" x1="906" x2="964" y1="267.5" y2="267.5"/><line style="stroke: #A80036; stroke-width: 1.5;" x1="906" x2="964" y1="275.5" y2="275.5"/><!--class de.gematik.ti.healthcardaccess.healthcards.Egk21--><rect fill="#FEFECE" filter="url(#f1fh59bkzd4lki)" height="48" id="de.gematik.ti.healthcardaccess.healthcards.Egk21" style="stroke: #A80036; stroke-width: 1.5;" width="67" x="1000.5" y="235.5"/><ellipse cx="1015.5" cy="251.5" fill="#ADD1B2" rx="11" ry="11" style="stroke: #A80036; stroke-width: 1.0;"/><path d="M1017.5,248 Q1017.7031,247.5 1017.9375,247.25 Q1018.1719,247 1018.4375,247 Q1018.9063,247 1019.2031,247.2813 Q1019.5,247.5625 1019.5,248.2188 L1019.5,249.7813 Q1019.5,250.4375 1019.2188,250.7188 Q1018.9375,251 1018.5,251 Q1018.1094,251 1017.8594,250.8281 Q1017.6094,250.6563 1017.5,250.2031 Q1017.4531,249.8906 1017.2813,249.7188 Q1016.9688,249.3906 1016.4063,249.2031 Q1015.8438,249 1015.2813,249 Q1014.5781,249 1013.9844,249.2813 Q1013.4063,249.5625 1012.9531,250.1875 Q1012.5,250.8125 1012.5,251.6719 L1012.5,252.5938 Q1012.5,253.625 1013.3438,254.3125 Q1014.1875,255 1015.6875,255 Q1016.5781,255 1017.2031,254.7969 Q1017.5625,254.6875 1017.9688,254.3281 Q1018.2344,254.125 1018.375,254.0625 Q1018.5156,254 1018.6875,254 Q1019.0156,254 1019.25,254.2656 Q1019.5,254.5156 1019.5,254.875 Q1019.5,255.2188 1019.1563,255.625 Q1018.6563,256.2188 1017.8594,256.5469 Q1016.8125,257 1015.5313,257 Q1014.0313,257 1012.8281,256.4063 Q1011.8594,255.9375 1011.1719,254.9219 Q1010.5,253.9063 1010.5,252.7031 L1010.5,251.6094 Q1010.5,250.3594 1011.0938,249.2656 Q1011.7031,248.1719 1012.75,247.5938 Q1013.8125,247 1015,247 Q1015.7188,247 1016.3438,247.25 Q1016.9688,247.5 1017.5,248 Z "/><text fill="#000000" font-family="sans-serif" font-size="12" lengthAdjust="spacingAndGlyphs" textLength="35" x="1029.5" y="256.4102">Egk21</text><line style="stroke: #A80036; stroke-width: 1.5;" x1="1001.5" x2="1066.5" y1="267.5" y2="267.5"/><line style="stroke: #A80036; stroke-width: 1.5;" x1="1001.5" x2="1066.5" y1="275.5" y2="275.5"/><!--class de.gematik.ti.healthcardaccess.healthcards.Hba2--><rect fill="#FEFECE" filter="url(#f1fh59bkzd4lki)" height="48" id="de.gematik.ti.healthcardaccess.healthcards.Hba2" style="stroke: #A80036; stroke-width: 1.5;" width="62" x="1103" y="235.5"/><ellipse cx="1118" cy="251.5" fill="#ADD1B2" rx="11" ry="11" style="stroke: #A80036; stroke-width: 1.0;"/><path d="M1120,248 Q1120.2031,247.5 1120.4375,247.25 Q1120.6719,247 1120.9375,247 Q1121.4063,247 1121.7031,247.2813 Q1122,247.5625 1122,248.2188 L1122,249.7813 Q1122,250.4375 1121.7188,250.7188 Q1121.4375,251 1121,251 Q1120.6094,251 1120.3594,250.8281 Q1120.1094,250.6563 1120,250.2031 Q1119.9531,249.8906 1119.7813,249.7188 Q1119.4688,249.3906 1118.9063,249.2031 Q1118.3438,249 1117.7813,249 Q1117.0781,249 1116.4844,249.2813 Q1115.9063,249.5625 1115.4531,250.1875 Q1115,250.8125 1115,251.6719 L1115,252.5938 Q1115,253.625 1115.8438,254.3125 Q1116.6875,255 1118.1875,255 Q1119.0781,255 1119.7031,254.7969 Q1120.0625,254.6875 1120.4688,254.3281 Q1120.7344,254.125 1120.875,254.0625 Q1121.0156,254 1121.1875,254 Q1121.5156,254 1121.75,254.2656 Q1122,254.5156 1122,254.875 Q1122,255.2188 1121.6563,255.625 Q1121.1563,256.2188 1120.3594,256.5469 Q1119.3125,257 1118.0313,257 Q1116.5313,257 1115.3281,256.4063 Q1114.3594,255.9375 1113.6719,254.9219 Q1113,253.9063 1113,252.7031 L1113,251.6094 Q1113,250.3594 1113.5938,249.2656 Q1114.2031,248.1719 1115.25,247.5938 Q1116.3125,247 1117.5,247 Q1118.2188,247 1118.8438,247.25 Q1119.4688,247.5 1120,248 Z "/><text fill="#000000" font-family="sans-serif" font-size="12" lengthAdjust="spacingAndGlyphs" textLength="30" x="1132" y="256.4102">Hba2</text><line style="stroke: #A80036; stroke-width: 1.5;" x1="1104" x2="1164" y1="267.5" y2="267.5"/><line style="stroke: #A80036; stroke-width: 1.5;" x1="1104" x2="1164" y1="275.5" y2="275.5"/><!--class de.gematik.ti.healthcardaccess.healthcards.Hba21--><rect fill="#FEFECE" filter="url(#f1fh59bkzd4lki)" height="48" id="de.gematik.ti.healthcardaccess.healthcards.Hba21" style="stroke: #A80036; stroke-width: 1.5;" width="69" x="1200.5" y="235.5"/><ellipse cx="1215.5" cy="251.5" fill="#ADD1B2" rx="11" ry="11" style="stroke: #A80036; stroke-width: 1.0;"/><path d="M1217.5,248 Q1217.7031,247.5 1217.9375,247.25 Q1218.1719,247 1218.4375,247 Q1218.9063,247 1219.2031,247.2813 Q1219.5,247.5625 1219.5,248.2188 L1219.5,249.7813 Q1219.5,250.4375 1219.2188,250.7188 Q1218.9375,251 1218.5,251 Q1218.1094,251 1217.8594,250.8281 Q1217.6094,250.6563 1217.5,250.2031 Q1217.4531,249.8906 1217.2813,249.7188 Q1216.9688,249.3906 1216.4063,249.2031 Q1215.8438,249 1215.2813,249 Q1214.5781,249 1213.9844,249.2813 Q1213.4063,249.5625 1212.9531,250.1875 Q1212.5,250.8125 1212.5,251.6719 L1212.5,252.5938 Q1212.5,253.625 1213.3438,254.3125 Q1214.1875,255 1215.6875,255 Q1216.5781,255 1217.2031,254.7969 Q1217.5625,254.6875 1217.9688,254.3281 Q1218.2344,254.125 1218.375,254.0625 Q1218.5156,254 1218.6875,254 Q1219.0156,254 1219.25,254.2656 Q1219.5,254.5156 1219.5,254.875 Q1219.5,255.2188 1219.1563,255.625 Q1218.6563,256.2188 1217.8594,256.5469 Q1216.8125,257 1215.5313,257 Q1214.0313,257 1212.8281,256.4063 Q1211.8594,255.9375 1211.1719,254.9219 Q1210.5,253.9063 1210.5,252.7031 L1210.5,251.6094 Q1210.5,250.3594 1211.0938,249.2656 Q1211.7031,248.1719 1212.75,247.5938 Q1213.8125,247 1215,247 Q1215.7188,247 1216.3438,247.25 Q1216.9688,247.5 1217.5,248 Z "/><text fill="#000000" font-family="sans-serif" font-size="12" lengthAdjust="spacingAndGlyphs" textLength="37" x="1229.5" y="256.4102">Hba21</text><line style="stroke: #A80036; stroke-width: 1.5;" x1="1201.5" x2="1268.5" y1="267.5" y2="267.5"/><line style="stroke: #A80036; stroke-width: 1.5;" x1="1201.5" x2="1268.5" y1="275.5" y2="275.5"/><!--class de.gematik.ti.healthcardaccess.healthcards.HealthCardStatusInvalid--><rect fill="#FEFECE" filter="url(#f1fh59bkzd4lki)" height="61.8359" id="de.gematik.ti.healthcardaccess.healthcards.HealthCardStatusInvalid" style="stroke: #A80036; stroke-width: 1.5;" width="165" x="62.5" y="228.5"/><ellipse cx="77.5" cy="244.5" fill="#ADD1B2" rx="11" ry="11" style="stroke: #A80036; stroke-width: 1.0;"/><path d="M79.5,241 Q79.7031,240.5 79.9375,240.25 Q80.1719,240 80.4375,240 Q80.9063,240 81.2031,240.2813 Q81.5,240.5625 81.5,241.2188 L81.5,242.7813 Q81.5,243.4375 81.2188,243.7188 Q80.9375,244 80.5,244 Q80.1094,244 79.8594,243.8281 Q79.6094,243.6563 79.5,243.2031 Q79.4531,242.8906 79.2813,242.7188 Q78.9688,242.3906 78.4063,242.2031 Q77.8438,242 77.2813,242 Q76.5781,242 75.9844,242.2813 Q75.4063,242.5625 74.9531,243.1875 Q74.5,243.8125 74.5,244.6719 L74.5,245.5938 Q74.5,246.625 75.3438,247.3125 Q76.1875,248 77.6875,248 Q78.5781,248 79.2031,247.7969 Q79.5625,247.6875 79.9688,247.3281 Q80.2344,247.125 80.375,247.0625 Q80.5156,247 80.6875,247 Q81.0156,247 81.25,247.2656 Q81.5,247.5156 81.5,247.875 Q81.5,248.2188 81.1563,248.625 Q80.6563,249.2188 79.8594,249.5469 Q78.8125,250 77.5313,250 Q76.0313,250 74.8281,249.4063 Q73.8594,248.9375 73.1719,247.9219 Q72.5,246.9063 72.5,245.7031 L72.5,244.6094 Q72.5,243.3594 73.0938,242.2656 Q73.7031,241.1719 74.75,240.5938 Q75.8125,240 77,240 Q77.7188,240 78.3438,240.25 Q78.9688,240.5 79.5,241 Z "/><text fill="#000000" font-family="sans-serif" font-size="12" lengthAdjust="spacingAndGlyphs" textLength="133" x="91.5" y="249.4102">HealthCardStatusInvalid</text><line style="stroke: #A80036; stroke-width: 1.5;" x1="63.5" x2="226.5" y1="260.5" y2="260.5"/><line style="stroke: #A80036; stroke-width: 1.5;" x1="63.5" x2="226.5" y1="268.5" y2="268.5"/><ellipse cx="73.5" cy="280.918" fill="#84BE84" rx="3" ry="3" style="stroke: #038048; stroke-width: 1.0;"/><text fill="#000000" font-family="sans-serif" font-size="11" lengthAdjust="spacingAndGlyphs" textLength="40" x="82.5" y="283.9189">isValid()</text><!--class de.gematik.ti.healthcardaccess.healthcards.HealthCardStatusUnknown--><rect fill="#FEFECE" filter="url(#f1fh59bkzd4lki)" height="61.8359" id="de.gematik.ti.healthcardaccess.healthcards.HealthCardStatusUnknown" style="stroke: #A80036; stroke-width: 1.5;" width="182" x="263" y="228.5"/><ellipse cx="278" cy="244.5" fill="#ADD1B2" rx="11" ry="11" style="stroke: #A80036; stroke-width: 1.0;"/><path d="M280,241 Q280.2031,240.5 280.4375,240.25 Q280.6719,240 280.9375,240 Q281.4063,240 281.7031,240.2813 Q282,240.5625 282,241.2188 L282,242.7813 Q282,243.4375 281.7188,243.7188 Q281.4375,244 281,244 Q280.6094,244 280.3594,243.8281 Q280.1094,243.6563 280,243.2031 Q279.9531,242.8906 279.7813,242.7188 Q279.4688,242.3906 278.9063,242.2031 Q278.3438,242 277.7813,242 Q277.0781,242 276.4844,242.2813 Q275.9063,242.5625 275.4531,243.1875 Q275,243.8125 275,244.6719 L275,245.5938 Q275,246.625 275.8438,247.3125 Q276.6875,248 278.1875,248 Q279.0781,248 279.7031,247.7969 Q280.0625,247.6875 280.4688,247.3281 Q280.7344,247.125 280.875,247.0625 Q281.0156,247 281.1875,247 Q281.5156,247 281.75,247.2656 Q282,247.5156 282,247.875 Q282,248.2188 281.6563,248.625 Q281.1563,249.2188 280.3594,249.5469 Q279.3125,250 278.0313,250 Q276.5313,250 275.3281,249.4063 Q274.3594,248.9375 273.6719,247.9219 Q273,246.9063 273,245.7031 L273,244.6094 Q273,243.3594 273.5938,242.2656 Q274.2031,241.1719 275.25,240.5938 Q276.3125,240 277.5,240 Q278.2188,240 278.8438,240.25 Q279.4688,240.5 280,241 Z "/><text fill="#000000" font-family="sans-serif" font-size="12" lengthAdjust="spacingAndGlyphs" textLength="150" x="292" y="249.4102">HealthCardStatusUnknown</text><line style="stroke: #A80036; stroke-width: 1.5;" x1="264" x2="444" y1="260.5" y2="260.5"/><line style="stroke: #A80036; stroke-width: 1.5;" x1="264" x2="444" y1="268.5" y2="268.5"/><ellipse cx="274" cy="280.918" fill="#84BE84" rx="3" ry="3" style="stroke: #038048; stroke-width: 1.0;"/><text fill="#000000" font-family="sans-serif" font-size="11" lengthAdjust="spacingAndGlyphs" textLength="40" x="283" y="283.9189">isValid()</text><!--class de.gematik.ti.healthcardaccess.healthcards.HealthCardStatusValid--><rect fill="#FEFECE" filter="url(#f1fh59bkzd4lki)" height="103.3438" id="de.gematik.ti.healthcardaccess.healthcards.HealthCardStatusValid" style="stroke: #A80036; stroke-width: 1.5;" width="157" x="480.5" y="208"/><ellipse cx="495.5" cy="224" fill="#ADD1B2" rx="11" ry="11" style="stroke: #A80036; stroke-width: 1.0;"/><path d="M497.5,220.5 Q497.7031,220 497.9375,219.75 Q498.1719,219.5 498.4375,219.5 Q498.9063,219.5 499.2031,219.7813 Q499.5,220.0625 499.5,220.7188 L499.5,222.2813 Q499.5,222.9375 499.2188,223.2188 Q498.9375,223.5 498.5,223.5 Q498.1094,223.5 497.8594,223.3281 Q497.6094,223.1563 497.5,222.7031 Q497.4531,222.3906 497.2813,222.2188 Q496.9688,221.8906 496.4063,221.7031 Q495.8438,221.5 495.2813,221.5 Q494.5781,221.5 493.9844,221.7813 Q493.4063,222.0625 492.9531,222.6875 Q492.5,223.3125 492.5,224.1719 L492.5,225.0938 Q492.5,226.125 493.3438,226.8125 Q494.1875,227.5 495.6875,227.5 Q496.5781,227.5 497.2031,227.2969 Q497.5625,227.1875 497.9688,226.8281 Q498.2344,226.625 498.375,226.5625 Q498.5156,226.5 498.6875,226.5 Q499.0156,226.5 499.25,226.7656 Q499.5,227.0156 499.5,227.375 Q499.5,227.7188 499.1563,228.125 Q498.6563,228.7188 497.8594,229.0469 Q496.8125,229.5 495.5313,229.5 Q494.0313,229.5 492.8281,228.9063 Q491.8594,228.4375 491.1719,227.4219 Q490.5,226.4063 490.5,225.2031 L490.5,224.1094 Q490.5,222.8594 491.0938,221.7656 Q491.7031,220.6719 492.75,220.0938 Q493.8125,219.5 495,219.5 Q495.7188,219.5 496.3438,219.75 Q496.9688,220 497.5,220.5 Z "/><text fill="#000000" font-family="sans-serif" font-size="12" lengthAdjust="spacingAndGlyphs" textLength="125" x="509.5" y="228.9102">HealthCardStatusValid</text><line style="stroke: #A80036; stroke-width: 1.5;" x1="481.5" x2="636.5" y1="240" y2="240"/><line style="stroke: #A80036; stroke-width: 1.5;" x1="481.5" x2="636.5" y1="248" y2="248"/><ellipse cx="491.5" cy="260.418" fill="#84BE84" rx="3" ry="3" style="stroke: #038048; stroke-width: 1.0;"/><text fill="#000000" font-family="sans-serif" font-size="11" lengthAdjust="spacingAndGlyphs" textLength="116" x="500.5" y="263.4189">HealthCardStatusValid()</text><ellipse cx="491.5" cy="274.2539" fill="#84BE84" rx="3" ry="3" style="stroke: #038048; stroke-width: 1.0;"/><text fill="#000000" font-family="sans-serif" font-size="11" lengthAdjust="spacingAndGlyphs" textLength="100" x="500.5" y="277.2549">getHealthCardType()</text><ellipse cx="491.5" cy="288.0898" fill="#84BE84" rx="3" ry="3" style="stroke: #038048; stroke-width: 1.0;"/><text fill="#000000" font-family="sans-serif" font-size="11" lengthAdjust="spacingAndGlyphs" textLength="40" x="500.5" y="291.0908">isValid()</text><ellipse cx="491.5" cy="301.9258" fill="#84BE84" rx="3" ry="3" style="stroke: #038048; stroke-width: 1.0;"/><text fill="#000000" font-family="sans-serif" font-size="11" lengthAdjust="spacingAndGlyphs" textLength="100" x="500.5" y="304.9268">setHealthCardType()</text><!--class de.gematik.ti.healthcardaccess.healthcards.Smcb2--><rect fill="#FEFECE" filter="url(#f1fh59bkzd4lki)" height="48" id="de.gematik.ti.healthcardaccess.healthcards.Smcb2" style="stroke: #A80036; stroke-width: 1.5;" width="71" x="1304.5" y="235.5"/><ellipse cx="1319.5" cy="251.5" fill="#ADD1B2" rx="11" ry="11" style="stroke: #A80036; stroke-width: 1.0;"/><path d="M1321.5,248 Q1321.7031,247.5 1321.9375,247.25 Q1322.1719,247 1322.4375,247 Q1322.9063,247 1323.2031,247.2813 Q1323.5,247.5625 1323.5,248.2188 L1323.5,249.7813 Q1323.5,250.4375 1323.2188,250.7188 Q1322.9375,251 1322.5,251 Q1322.1094,251 1321.8594,250.8281 Q1321.6094,250.6563 1321.5,250.2031 Q1321.4531,249.8906 1321.2813,249.7188 Q1320.9688,249.3906 1320.4063,249.2031 Q1319.8438,249 1319.2813,249 Q1318.5781,249 1317.9844,249.2813 Q1317.4063,249.5625 1316.9531,250.1875 Q1316.5,250.8125 1316.5,251.6719 L1316.5,252.5938 Q1316.5,253.625 1317.3438,254.3125 Q1318.1875,255 1319.6875,255 Q1320.5781,255 1321.2031,254.7969 Q1321.5625,254.6875 1321.9688,254.3281 Q1322.2344,254.125 1322.375,254.0625 Q1322.5156,254 1322.6875,254 Q1323.0156,254 1323.25,254.2656 Q1323.5,254.5156 1323.5,254.875 Q1323.5,255.2188 1323.1563,255.625 Q1322.6563,256.2188 1321.8594,256.5469 Q1320.8125,257 1319.5313,257 Q1318.0313,257 1316.8281,256.4063 Q1315.8594,255.9375 1315.1719,254.9219 Q1314.5,253.9063 1314.5,252.7031 L1314.5,251.6094 Q1314.5,250.3594 1315.0938,249.2656 Q1315.7031,248.1719 1316.75,247.5938 Q1317.8125,247 1319,247 Q1319.7188,247 1320.3438,247.25 Q1320.9688,247.5 1321.5,248 Z "/><text fill="#000000" font-family="sans-serif" font-size="12" lengthAdjust="spacingAndGlyphs" textLength="39" x="1333.5" y="256.4102">Smcb2</text><line style="stroke: #A80036; stroke-width: 1.5;" x1="1305.5" x2="1374.5" y1="267.5" y2="267.5"/><line style="stroke: #A80036; stroke-width: 1.5;" x1="1305.5" x2="1374.5" y1="275.5" y2="275.5"/><!--class de.gematik.ti.healthcardaccess.healthcards.Smcb21--><rect fill="#FEFECE" filter="url(#f1fh59bkzd4lki)" height="48" id="de.gematik.ti.healthcardaccess.healthcards.Smcb21" style="stroke: #A80036; stroke-width: 1.5;" width="78" x="673" y="235.5"/><ellipse cx="688" cy="251.5" fill="#ADD1B2" rx="11" ry="11" style="stroke: #A80036; stroke-width: 1.0;"/><path d="M690,248 Q690.2031,247.5 690.4375,247.25 Q690.6719,247 690.9375,247 Q691.4063,247 691.7031,247.2813 Q692,247.5625 692,248.2188 L692,249.7813 Q692,250.4375 691.7188,250.7188 Q691.4375,251 691,251 Q690.6094,251 690.3594,250.8281 Q690.1094,250.6563 690,250.2031 Q689.9531,249.8906 689.7813,249.7188 Q689.4688,249.3906 688.9063,249.2031 Q688.3438,249 687.7813,249 Q687.0781,249 686.4844,249.2813 Q685.9063,249.5625 685.4531,250.1875 Q685,250.8125 685,251.6719 L685,252.5938 Q685,253.625 685.8438,254.3125 Q686.6875,255 688.1875,255 Q689.0781,255 689.7031,254.7969 Q690.0625,254.6875 690.4688,254.3281 Q690.7344,254.125 690.875,254.0625 Q691.0156,254 691.1875,254 Q691.5156,254 691.75,254.2656 Q692,254.5156 692,254.875 Q692,255.2188 691.6563,255.625 Q691.1563,256.2188 690.3594,256.5469 Q689.3125,257 688.0313,257 Q686.5313,257 685.3281,256.4063 Q684.3594,255.9375 683.6719,254.9219 Q683,253.9063 683,252.7031 L683,251.6094 Q683,250.3594 683.5938,249.2656 Q684.2031,248.1719 685.25,247.5938 Q686.3125,247 687.5,247 Q688.2188,247 688.8438,247.25 Q689.4688,247.5 690,248 Z "/><text fill="#000000" font-family="sans-serif" font-size="12" lengthAdjust="spacingAndGlyphs" textLength="46" x="702" y="256.4102">Smcb21</text><line style="stroke: #A80036; stroke-width: 1.5;" x1="674" x2="750" y1="267.5" y2="267.5"/><line style="stroke: #A80036; stroke-width: 1.5;" x1="674" x2="750" y1="275.5" y2="275.5"/><!--class de.gematik.ti.healthcardaccess.healthcards.Unknown--><rect fill="#FEFECE" filter="url(#f1fh59bkzd4lki)" height="48" id="de.gematik.ti.healthcardaccess.healthcards.Unknown" style="stroke: #A80036; stroke-width: 1.5;" width="84" x="786" y="235.5"/><ellipse cx="801" cy="251.5" fill="#ADD1B2" rx="11" ry="11" style="stroke: #A80036; stroke-width: 1.0;"/><path d="M803,248 Q803.2031,247.5 803.4375,247.25 Q803.6719,247 803.9375,247 Q804.4063,247 804.7031,247.2813 Q805,247.5625 805,248.2188 L805,249.7813 Q805,250.4375 804.7188,250.7188 Q804.4375,251 804,251 Q803.6094,251 803.3594,250.8281 Q803.1094,250.6563 803,250.2031 Q802.9531,249.8906 802.7813,249.7188 Q802.4688,249.3906 801.9063,249.2031 Q801.3438,249 800.7813,249 Q800.0781,249 799.4844,249.2813 Q798.9063,249.5625 798.4531,250.1875 Q798,250.8125 798,251.6719 L798,252.5938 Q798,253.625 798.8438,254.3125 Q799.6875,255 801.1875,255 Q802.0781,255 802.7031,254.7969 Q803.0625,254.6875 803.4688,254.3281 Q803.7344,254.125 803.875,254.0625 Q804.0156,254 804.1875,254 Q804.5156,254 804.75,254.2656 Q805,254.5156 805,254.875 Q805,255.2188 804.6563,255.625 Q804.1563,256.2188 803.3594,256.5469 Q802.3125,257 801.0313,257 Q799.5313,257 798.3281,256.4063 Q797.3594,255.9375 796.6719,254.9219 Q796,253.9063 796,252.7031 L796,251.6094 Q796,250.3594 796.5938,249.2656 Q797.2031,248.1719 798.25,247.5938 Q799.3125,247 800.5,247 Q801.2188,247 801.8438,247.25 Q802.4688,247.5 803,248 Z "/><text fill="#000000" font-family="sans-serif" font-size="12" lengthAdjust="spacingAndGlyphs" textLength="52" x="815" y="256.4102">Unknown</text><line style="stroke: #A80036; stroke-width: 1.5;" x1="787" x2="869" y1="267.5" y2="267.5"/><line style="stroke: #A80036; stroke-width: 1.5;" x1="787" x2="869" y1="275.5" y2="275.5"/><!--link de.gematik.ti.healthcardaccess.IHealthCardType to de.gematik.ti.healthcardaccess.healthcards.Egk2--><path d="M972.802,127.326 C962.999,161.342 949.599,207.841 941.667,235.365 " fill="none" id="de.gematik.ti.healthcardaccess.IHealthCardType-de.gematik.ti.healthcardaccess.healthcards.Egk2" style="stroke: #A80036; stroke-width: 1.0; stroke-dasharray: 7.0,7.0;"/><polygon fill="none" points="966.096,125.319,978.36,108.039,979.548,129.196,966.096,125.319" style="stroke: #A80036; stroke-width: 1.0;"/><!--link de.gematik.ti.healthcardaccess.IHealthCardType to de.gematik.ti.healthcardaccess.healthcards.Egk21--><path d="M996.954,127.326 C1006.56,161.342 1019.69,207.841 1027.47,235.365 " fill="none" id="de.gematik.ti.healthcardaccess.IHealthCardType-de.gematik.ti.healthcardaccess.healthcards.Egk21" style="stroke: #A80036; stroke-width: 1.0; stroke-dasharray: 7.0,7.0;"/><polygon fill="none" points="990.206,129.189,991.507,108.039,1003.679,125.384,990.206,129.189" style="stroke: #A80036; stroke-width: 1.0;"/><!--link de.gematik.ti.healthcardaccess.IHealthCardType to de.gematik.ti.healthcardaccess.healthcards.Hba2--><path d="M1037.77,120.009 C1054.21,132.577 1071.55,147.708 1085,164 C1102.89,185.66 1116.81,214.914 1125.17,235.108 " fill="none" id="de.gematik.ti.healthcardaccess.IHealthCardType-de.gematik.ti.healthcardaccess.healthcards.Hba2" style="stroke: #A80036; stroke-width: 1.0; stroke-dasharray: 7.0,7.0;"/><polygon fill="none" points="1033.51,125.565,1021.48,108.122,1041.76,114.254,1033.51,125.565" style="stroke: #A80036; stroke-width: 1.0;"/><!--link de.gematik.ti.healthcardaccess.IHealthCardType to de.gematik.ti.healthcardaccess.healthcards.Hba21--><path d="M1066.42,103.714 C1105.17,115.833 1150.1,134.926 1183,164 C1204.89,183.343 1219.41,214.203 1227.42,235.361 " fill="none" id="de.gematik.ti.healthcardaccess.IHealthCardType-de.gematik.ti.healthcardaccess.healthcards.Hba21" style="stroke: #A80036; stroke-width: 1.0; stroke-dasharray: 7.0,7.0;"/><polygon fill="none" points="1064.35,110.401,1047.11,98.075,1068.27,96.962,1064.35,110.401" style="stroke: #A80036; stroke-width: 1.0;"/><!--link de.gematik.ti.healthcardaccess.IHealthCardStatus to de.gematik.ti.healthcardaccess.healthcards.HealthCardStatusInvalid--><path d="M303.621,119.931 C285.127,133.25 264.26,148.873 246,164 C221.406,184.375 195.106,209.086 175.51,228.128 " fill="none" id="de.gematik.ti.healthcardaccess.IHealthCardStatus-de.gematik.ti.healthcardaccess.healthcards.HealthCardStatusInvalid" style="stroke: #A80036; stroke-width: 1.0; stroke-dasharray: 7.0,7.0;"/><polygon fill="none" points="299.771,114.079,320.127,108.194,307.884,125.489,299.771,114.079" style="stroke: #A80036; stroke-width: 1.0;"/><!--link de.gematik.ti.healthcardaccess.IHealthCardStatus to de.gematik.ti.healthcardaccess.healthcards.HealthCardStatusUnknown--><path d="M354,128.162 C354,159.347 354,200.683 354,228.365 " fill="none" id="de.gematik.ti.healthcardaccess.IHealthCardStatus-de.gematik.ti.healthcardaccess.healthcards.HealthCardStatusUnknown" style="stroke: #A80036; stroke-width: 1.0; stroke-dasharray: 7.0,7.0;"/><polygon fill="none" points="347,128.039,354,108.039,361,128.039,347,128.039" style="stroke: #A80036; stroke-width: 1.0;"/><!--link de.gematik.ti.healthcardaccess.IHealthCardStatus to de.gematik.ti.healthcardaccess.healthcards.HealthCardStatusValid--><path d="M405.502,119.921 C424.088,133.143 444.927,148.704 463,164 C479.067,177.597 495.702,193.314 510.52,207.979 " fill="none" id="de.gematik.ti.healthcardaccess.IHealthCardStatus-de.gematik.ti.healthcardaccess.healthcards.HealthCardStatusValid" style="stroke: #A80036; stroke-width: 1.0; stroke-dasharray: 7.0,7.0;"/><polygon fill="none" points="401.244,125.485,388.876,108.28,409.274,114.017,401.244,125.485" style="stroke: #A80036; stroke-width: 1.0;"/><!--link de.gematik.ti.healthcardaccess.healthcards.HealthCardStatusValid to de.gematik.ti.healthcardaccess.IHealthCardType--><path d="M607.191,198.161 C628.148,175.861 654.443,152.511 683,138 C759.524,99.116 859.465,88.189 922.962,85.427 " fill="none" id="de.gematik.ti.healthcardaccess.healthcards.HealthCardStatusValid-de.gematik.ti.healthcardaccess.IHealthCardType" style="stroke: #A80036; stroke-width: 1.0;"/><polygon fill="#FFFFFF" points="598.248,207.959,605.2472,206.2237,606.3374,199.0955,599.3382,200.8308,598.248,207.959" style="stroke: #A80036; stroke-width: 1.0;"/><text fill="#000000" font-family="sans-serif" font-size="13" lengthAdjust="spacingAndGlyphs" textLength="90" x="684" y="152.4951">healthCardType</text><!--link de.gematik.ti.healthcardaccess.IHealthCardType to de.gematik.ti.healthcardaccess.healthcards.Smcb2--><path d="M1067.33,89.171 C1132.8,96.284 1223.63,115.045 1287,164 C1310.37,182.054 1325.01,213.507 1332.84,235.133 " fill="none" id="de.gematik.ti.healthcardaccess.IHealthCardType-de.gematik.ti.healthcardaccess.healthcards.Smcb2" style="stroke: #A80036; stroke-width: 1.0; stroke-dasharray: 7.0,7.0;"/><polygon fill="none" points="1066.28,96.103,1047.03,87.247,1067.6,82.165,1066.28,96.103" style="stroke: #A80036; stroke-width: 1.0;"/><!--link de.gematik.ti.healthcardaccess.IHealthCardType to de.gematik.ti.healthcardaccess.healthcards.Smcb21--><path d="M903.035,101.065 C859.576,112.803 807.39,132.358 769,164 C745.936,183.01 729.815,213.943 720.74,235.209 " fill="none" id="de.gematik.ti.healthcardaccess.IHealthCardType-de.gematik.ti.healthcardaccess.healthcards.Smcb21" style="stroke: #A80036; stroke-width: 1.0; stroke-dasharray: 7.0,7.0;"/><polygon fill="none" points="901.519,94.228,922.622,96.133,904.937,107.805,901.519,94.228" style="stroke: #A80036; stroke-width: 1.0;"/><!--link de.gematik.ti.healthcardaccess.IHealthCardType to de.gematik.ti.healthcardaccess.healthcards.Unknown--><path d="M935.163,120.548 C919.126,133.258 901.92,148.336 888,164 C868.378,186.081 850.905,215.255 839.946,235.316 " fill="none" id="de.gematik.ti.healthcardaccess.IHealthCardType-de.gematik.ti.healthcardaccess.healthcards.Unknown" style="stroke: #A80036; stroke-width: 1.0; stroke-dasharray: 7.0,7.0;"/><polygon fill="none" points="931.127,114.823,951.267,108.236,939.63,125.945,931.127,114.823" style="stroke: #A80036; stroke-width: 1.0;"/><!--
@startuml



  namespace de.gematik.ti.healthcardaccess {
    namespace healthcards {
      class de.gematik.ti.healthcardaccess.healthcards.Egk2 {
      }
    }
  }


  namespace de.gematik.ti.healthcardaccess {
    namespace healthcards {
      class de.gematik.ti.healthcardaccess.healthcards.Egk21 {
      }
    }
  }


  namespace de.gematik.ti.healthcardaccess {
    namespace healthcards {
      class de.gematik.ti.healthcardaccess.healthcards.Hba2 {
      }
    }
  }


  namespace de.gematik.ti.healthcardaccess {
    namespace healthcards {
      class de.gematik.ti.healthcardaccess.healthcards.Hba21 {
      }
    }
  }


  namespace de.gematik.ti.healthcardaccess {
    namespace healthcards {
      class de.gematik.ti.healthcardaccess.healthcards.HealthCardStatusInvalid {
          + isValid()
      }
    }
  }


  namespace de.gematik.ti.healthcardaccess {
    namespace healthcards {
      class de.gematik.ti.healthcardaccess.healthcards.HealthCardStatusUnknown {
          + isValid()
      }
    }
  }


  namespace de.gematik.ti.healthcardaccess {
    namespace healthcards {
      class de.gematik.ti.healthcardaccess.healthcards.HealthCardStatusValid {
          + HealthCardStatusValid()
          + getHealthCardType()
          + isValid()
          + setHealthCardType()
      }
    }
  }


  namespace de.gematik.ti.healthcardaccess {
    namespace healthcards {
      class de.gematik.ti.healthcardaccess.healthcards.Smcb2 {
      }
    }
  }


  namespace de.gematik.ti.healthcardaccess {
    namespace healthcards {
      class de.gematik.ti.healthcardaccess.healthcards.Smcb21 {
      }
    }
  }


  namespace de.gematik.ti.healthcardaccess {
    namespace healthcards {
      class de.gematik.ti.healthcardaccess.healthcards.Unknown {
      }
    }
  }


  de.gematik.ti.healthcardaccess.healthcards.Egk2 .up.|> de.gematik.ti.healthcardaccess.IHealthCardType
  de.gematik.ti.healthcardaccess.healthcards.Egk21 .up.|> de.gematik.ti.healthcardaccess.IHealthCardType
  de.gematik.ti.healthcardaccess.healthcards.Hba2 .up.|> de.gematik.ti.healthcardaccess.IHealthCardType
  de.gematik.ti.healthcardaccess.healthcards.Hba21 .up.|> de.gematik.ti.healthcardaccess.IHealthCardType
  de.gematik.ti.healthcardaccess.healthcards.HealthCardStatusInvalid .up.|> de.gematik.ti.healthcardaccess.IHealthCardStatus
  de.gematik.ti.healthcardaccess.healthcards.HealthCardStatusUnknown .up.|> de.gematik.ti.healthcardaccess.IHealthCardStatus
  de.gematik.ti.healthcardaccess.healthcards.HealthCardStatusValid .up.|> de.gematik.ti.healthcardaccess.IHealthCardStatus
  de.gematik.ti.healthcardaccess.healthcards.HealthCardStatusValid o- - de.gematik.ti.healthcardaccess.IHealthCardType : healthCardType
  de.gematik.ti.healthcardaccess.healthcards.Smcb2 .up.|> de.gematik.ti.healthcardaccess.IHealthCardType
  de.gematik.ti.healthcardaccess.healthcards.Smcb21 .up.|> de.gematik.ti.healthcardaccess.IHealthCardType
  de.gematik.ti.healthcardaccess.healthcards.Unknown .up.|> de.gematik.ti.healthcardaccess.IHealthCardType









@enduml

PlantUML version 1.2019.06(Fri May 24 19:10:25 CEST 2019)
(APACHE source distribution)
Java Runtime: OpenJDK Runtime Environment
JVM: OpenJDK 64-Bit Server VM
Java Version: 11.0.4+10-b304.69
Operating System: Windows 7
OS Version: 6.1
Default Encoding: Cp1252
Language: de
Country: DE
--></g></svg>