<?xml version="1.0" encoding="UTF-8" standalone="no"?><svg xmlns="http://www.w3.org/2000/svg" xmlns:xlink="http://www.w3.org/1999/xlink" contentScriptType="application/ecmascript" contentStyleType="text/css" height="1022px" preserveAspectRatio="none" style="width:1784px;height:1022px;" version="1.1" viewBox="0 0 1784 1022" width="1784px" zoomAndPan="magnify"><defs><filter height="300%" id="fm7mgv9pjg1pi" width="300%" x="-1" y="-1"><feGaussianBlur result="blurOut" stdDeviation="2.0"/><feColorMatrix in="blurOut" result="blurOut2" type="matrix" values="0 0 0 0 0 0 0 0 0 0 0 0 0 0 0 0 0 0 .4 0"/><feOffset dx="4.0" dy="4.0" in="blurOut2" result="blurOut3"/><feBlend in="SourceGraphic" in2="blurOut3" mode="normal"/></filter></defs><g><!--cluster de.gematik.ti.healthcardaccess--><polygon fill="#FFFFFF" filter="url(#fm7mgv9pjg1pi)" points="22,24,246,24,253,47.6094,1762,47.6094,1762,1010,22,1010,22,24" style="stroke: #000000; stroke-width: 1.5;"/><line style="stroke: #000000; stroke-width: 1.5;" x1="22" x2="253" y1="47.6094" y2="47.6094"/><text fill="#000000" font-family="sans-serif" font-size="14" font-weight="bold" lengthAdjust="spacingAndGlyphs" textLength="218" x="26" y="40.5332">de.gematik.ti.healthcardaccess</text><!--cluster de.gematik.ti.healthcardaccess.operation--><polygon fill="#FFFFFF" filter="url(#fm7mgv9pjg1pi)" points="1304,296.14,1600,296.14,1607,319.7494,1730,319.7494,1730,723.5,1304,723.5,1304,296.14" style="stroke: #000000; stroke-width: 1.5;"/><line style="stroke: #000000; stroke-width: 1.5;" x1="1304" x2="1607" y1="319.7494" y2="319.7494"/><text fill="#000000" font-family="sans-serif" font-size="14" font-weight="bold" lengthAdjust="spacingAndGlyphs" textLength="290" x="1308" y="312.6732">de.gematik.ti.healthcardaccess.operation</text><!--cluster de.gematik.ti.healthcardaccess.security--><polygon fill="#FFFFFF" filter="url(#fm7mgv9pjg1pi)" points="1283,855,1567,855,1574,878.6094,1730,878.6094,1730,978,1283,978,1283,855" style="stroke: #000000; stroke-width: 1.5;"/><line style="stroke: #000000; stroke-width: 1.5;" x1="1283" x2="1574" y1="878.6094" y2="878.6094"/><text fill="#000000" font-family="sans-serif" font-size="14" font-weight="bold" lengthAdjust="spacingAndGlyphs" textLength="278" x="1287" y="871.5332">de.gematik.ti.healthcardaccess.security</text><!--class IHealthCardType--><rect fill="#FEFECE" filter="url(#fm7mgv9pjg1pi)" height="48" id="IHealthCardType" style="stroke: #A80036; stroke-width: 1.5;" width="126" x="404" y="300.5"/><ellipse cx="419" cy="316.5" fill="#B4A7E5" rx="11" ry="11" style="stroke: #A80036; stroke-width: 1.0;"/><path d="M420,313.5 L420,319.5 L422,319.5 L422.4844,319.5 L423,320.125 L423,320.5 L423,320.875 L422.4844,321.5 L422,321.5 L416,321.5 L415.5156,321.5 L415,320.875 L415,320.5 L415,320.125 L415.5156,319.5 L416,319.5 L418,319.5 L418,313.5 L416,313.5 L415.5156,313.5 L415,312.875 L415,312.5 L415,312.125 L415.5156,311.5 L416,311.5 L422,311.5 L422.4844,311.5 L423,312.125 L423,312.5 L423,312.875 L422.4844,313.5 L422,313.5 L420,313.5 Z "/><text fill="#000000" font-family="sans-serif" font-size="12" font-style="italic" lengthAdjust="spacingAndGlyphs" textLength="94" x="433" y="321.4102">IHealthCardType</text><line style="stroke: #A80036; stroke-width: 1.5;" x1="405" x2="529" y1="332.5" y2="332.5"/><line style="stroke: #A80036; stroke-width: 1.5;" x1="405" x2="529" y1="340.5" y2="340.5"/><!--class IHealthCardCommand--><rect fill="#FEFECE" filter="url(#fm7mgv9pjg1pi)" height="61.8359" id="IHealthCardCommand" style="stroke: #A80036; stroke-width: 1.5;" width="158" x="848" y="60"/><ellipse cx="863" cy="76" fill="#B4A7E5" rx="11" ry="11" style="stroke: #A80036; stroke-width: 1.0;"/><path d="M864,73 L864,79 L866,79 L866.4844,79 L867,79.625 L867,80 L867,80.375 L866.4844,81 L866,81 L860,81 L859.5156,81 L859,80.375 L859,80 L859,79.625 L859.5156,79 L860,79 L862,79 L862,73 L860,73 L859.5156,73 L859,72.375 L859,72 L859,71.625 L859.5156,71 L860,71 L866,71 L866.4844,71 L867,71.625 L867,72 L867,72.375 L866.4844,73 L866,73 L864,73 Z "/><text fill="#000000" font-family="sans-serif" font-size="12" font-style="italic" lengthAdjust="spacingAndGlyphs" textLength="126" x="877" y="80.9102">IHealthCardCommand</text><line style="stroke: #A80036; stroke-width: 1.5;" x1="849" x2="1005" y1="92" y2="92"/><line style="stroke: #A80036; stroke-width: 1.5;" x1="849" x2="1005" y1="100" y2="100"/><ellipse cx="859" cy="112.418" fill="#84BE84" rx="3" ry="3" style="stroke: #038048; stroke-width: 1.0;"/><text fill="#000000" font-family="sans-serif" font-size="11" font-style="italic" lengthAdjust="spacingAndGlyphs" textLength="62" x="868" y="115.4189">executeOn()</text><!--class AbstractHealthCardCommand--><rect fill="#FEFECE" filter="url(#fm7mgv9pjg1pi)" height="283.2109" id="AbstractHealthCardCommand" style="stroke: #A80036; stroke-width: 1.5;" width="234" x="810" y="183"/><ellipse cx="840.75" cy="199" fill="#A9DCDF" rx="11" ry="11" style="stroke: #A80036; stroke-width: 1.0;"/><path d="M842.5,200.5 L839.2031,200.5 L838.7656,201.5 L838.7656,201.5 L839.2344,201.5 L839.75,202.125 L839.75,202.5 L839.75,202.875 L839.2344,203.5 L838.7656,203.5 L836.875,203.5 L836.2656,203.5 L835.75,202.875 L835.75,202.5 L835.75,202.125 L836.2656,201.5 L836.875,201.5 L839.1875,195.5 L838.3125,195.5 L837.2656,195.5 L836.75,194.875 L836.75,194.5 L836.75,194.125 L837.2656,193.5 L838.3125,193.5 L841.9844,193.5 L844.6719,201.5 L845.2344,201.5 L845.2344,201.5 L845.75,202.125 L845.75,202.5 L845.75,202.875 L845.2344,203.5 L844.6719,203.5 L842.7813,203.5 L842.2656,203.5 L841.75,202.875 L841.75,202.5 L841.75,202.125 L842.2656,201.5 L842.7813,201.5 L842.7813,201.5 L842.5,200.5 Z M841.9531,198.5 L840.75,194.9219 L839.7188,198.5 L841.9531,198.5 Z "/><text fill="#000000" font-family="sans-serif" font-size="12" font-style="italic" lengthAdjust="spacingAndGlyphs" textLength="167" x="858.25" y="203.9102">AbstractHealthCardCommand</text><line style="stroke: #A80036; stroke-width: 1.5;" x1="811" x2="1043" y1="215" y2="215"/><rect fill="none" height="6" style="stroke: #C82930; stroke-width: 1.0;" width="6" x="818" y="224.418"/><text fill="#000000" font-family="sans-serif" font-size="11" lengthAdjust="spacingAndGlyphs" text-decoration="underline" textLength="65" x="830" y="230.4189">LOG : Logger</text><polygon fill="none" points="821,236.2539,825,240.2539,821,244.2539,817,240.2539" style="stroke: #B38D22; stroke-width: 1.0;"/><text fill="#000000" font-family="sans-serif" font-size="11" lengthAdjust="spacingAndGlyphs" text-decoration="underline" textLength="166" x="830" y="244.2549">NE_MAX_EXTENDED_LENGTH : int</text><polygon fill="none" points="821,250.0898,825,254.0898,821,258.0898,817,254.0898" style="stroke: #B38D22; stroke-width: 1.0;"/><text fill="#000000" font-family="sans-serif" font-size="11" lengthAdjust="spacingAndGlyphs" text-decoration="underline" textLength="149" x="830" y="258.0908">NE_MAX_SHORT_LENGTH : int</text><polygon fill="none" points="821,263.9258,825,267.9258,821,271.9258,817,267.9258" style="stroke: #B38D22; stroke-width: 1.0;"/><text fill="#000000" font-family="sans-serif" font-size="11" lengthAdjust="spacingAndGlyphs" text-decoration="underline" textLength="84" x="830" y="271.9268">EXPECT_ALL : int</text><polygon fill="none" points="821,277.7617,825,281.7617,821,285.7617,817,281.7617" style="stroke: #B38D22; stroke-width: 1.0;"/><text fill="#000000" font-family="sans-serif" font-size="11" lengthAdjust="spacingAndGlyphs" textLength="34" x="830" y="285.7627">cla : int</text><polygon fill="none" points="821,291.5977,825,295.5977,821,299.5977,817,295.5977" style="stroke: #B38D22; stroke-width: 1.0;"/><text fill="#000000" font-family="sans-serif" font-size="11" lengthAdjust="spacingAndGlyphs" textLength="34" x="830" y="299.5986">ins : int</text><polygon fill="none" points="821,305.4336,825,309.4336,821,313.4336,817,309.4336" style="stroke: #B38D22; stroke-width: 1.0;"/><text fill="#000000" font-family="sans-serif" font-size="11" lengthAdjust="spacingAndGlyphs" textLength="32" x="830" y="313.4346">p1 : int</text><polygon fill="none" points="821,319.2695,825,323.2695,821,327.2695,817,323.2695" style="stroke: #B38D22; stroke-width: 1.0;"/><text fill="#000000" font-family="sans-serif" font-size="11" lengthAdjust="spacingAndGlyphs" textLength="32" x="830" y="327.2705">p2 : int</text><polygon fill="none" points="821,333.1055,825,337.1055,821,341.1055,817,337.1055" style="stroke: #B38D22; stroke-width: 1.0;"/><text fill="#000000" font-family="sans-serif" font-size="11" lengthAdjust="spacingAndGlyphs" textLength="57" x="830" y="341.1064">data : byte[]</text><polygon fill="none" points="821,346.9414,825,350.9414,821,354.9414,817,350.9414" style="stroke: #B38D22; stroke-width: 1.0;"/><text fill="#000000" font-family="sans-serif" font-size="11" lengthAdjust="spacingAndGlyphs" textLength="32" x="830" y="354.9424">ne : int</text><line style="stroke: #A80036; stroke-width: 1.5;" x1="811" x2="1043" y1="361.3594" y2="361.3594"/><polygon fill="#FFFF44" points="821,368.7773,825,372.7773,821,376.7773,817,372.7773" style="stroke: #B38D22; stroke-width: 1.0;"/><text fill="#000000" font-family="sans-serif" font-size="11" lengthAdjust="spacingAndGlyphs" textLength="150" x="830" y="376.7783">AbstractHealthCardCommand()</text><polygon fill="#FFFF44" points="821,382.6133,825,386.6133,821,390.6133,817,386.6133" style="stroke: #B38D22; stroke-width: 1.0;"/><text fill="#000000" font-family="sans-serif" font-size="11" lengthAdjust="spacingAndGlyphs" textLength="150" x="830" y="390.6143">AbstractHealthCardCommand()</text><ellipse cx="821" cy="401.4492" fill="#84BE84" rx="3" ry="3" style="stroke: #038048; stroke-width: 1.0;"/><text fill="#000000" font-family="sans-serif" font-size="11" font-style="italic" lengthAdjust="spacingAndGlyphs" textLength="153" x="830" y="404.4502">getTechnicalResponseApdus()</text><rect fill="#F24D5C" height="6" style="stroke: #C82930; stroke-width: 1.0;" width="6" x="818" y="412.2852"/><text fill="#000000" font-family="sans-serif" font-size="11" lengthAdjust="spacingAndGlyphs" textLength="208" x="830" y="418.2861">inferResponseStatusFromResponseCode()</text><ellipse cx="821" cy="429.1211" fill="#84BE84" rx="3" ry="3" style="stroke: #038048; stroke-width: 1.0;"/><text fill="#000000" font-family="sans-serif" font-size="11" lengthAdjust="spacingAndGlyphs" textLength="61" x="830" y="432.1221">executeOn()</text><polygon fill="#FFFF44" points="821,437.957,825,441.957,821,445.957,817,441.957" style="stroke: #B38D22; stroke-width: 1.0;"/><text fill="#000000" font-family="sans-serif" font-size="11" lengthAdjust="spacingAndGlyphs" textLength="58" x="830" y="445.958">sendApdu()</text><rect fill="#F24D5C" height="6" style="stroke: #C82930; stroke-width: 1.0;" width="6" x="818" y="453.793"/><text fill="#000000" font-family="sans-serif" font-size="11" lengthAdjust="spacingAndGlyphs" textLength="96" x="830" y="459.7939">getCommandApdu()</text><!--class HealthCard--><rect fill="#FEFECE" filter="url(#fm7mgv9pjg1pi)" height="255.5391" id="HealthCard" style="stroke: #A80036; stroke-width: 1.5;" width="211" x="38.5" y="544"/><ellipse cx="108.25" cy="560" fill="#ADD1B2" rx="11" ry="11" style="stroke: #A80036; stroke-width: 1.0;"/><path d="M110.25,556.5 Q110.4531,556 110.6875,555.75 Q110.9219,555.5 111.1875,555.5 Q111.6563,555.5 111.9531,555.7813 Q112.25,556.0625 112.25,556.7188 L112.25,558.2813 Q112.25,558.9375 111.9688,559.2188 Q111.6875,559.5 111.25,559.5 Q110.8594,559.5 110.6094,559.3281 Q110.3594,559.1563 110.25,558.7031 Q110.2031,558.3906 110.0313,558.2188 Q109.7188,557.8906 109.1563,557.7031 Q108.5938,557.5 108.0313,557.5 Q107.3281,557.5 106.7344,557.7813 Q106.1563,558.0625 105.7031,558.6875 Q105.25,559.3125 105.25,560.1719 L105.25,561.0938 Q105.25,562.125 106.0938,562.8125 Q106.9375,563.5 108.4375,563.5 Q109.3281,563.5 109.9531,563.2969 Q110.3125,563.1875 110.7188,562.8281 Q110.9844,562.625 111.125,562.5625 Q111.2656,562.5 111.4375,562.5 Q111.7656,562.5 112,562.7656 Q112.25,563.0156 112.25,563.375 Q112.25,563.7188 111.9063,564.125 Q111.4063,564.7188 110.6094,565.0469 Q109.5625,565.5 108.2813,565.5 Q106.7813,565.5 105.5781,564.9063 Q104.6094,564.4375 103.9219,563.4219 Q103.25,562.4063 103.25,561.2031 L103.25,560.1094 Q103.25,558.8594 103.8438,557.7656 Q104.4531,556.6719 105.5,556.0938 Q106.5625,555.5 107.75,555.5 Q108.4688,555.5 109.0938,555.75 Q109.7188,556 110.25,556.5 Z "/><text fill="#000000" font-family="sans-serif" font-size="12" lengthAdjust="spacingAndGlyphs" textLength="63" x="128.75" y="564.9102">HealthCard</text><line style="stroke: #A80036; stroke-width: 1.5;" x1="39.5" x2="248.5" y1="576" y2="576"/><ellipse cx="49.5" cy="588.418" fill="none" rx="3" ry="3" style="stroke: #038048; stroke-width: 1.0;"/><text fill="#000000" font-family="sans-serif" font-size="11" lengthAdjust="spacingAndGlyphs" text-decoration="underline" textLength="127" x="58.5" y="591.4189">BASIC_CHANNEL_IDX : int</text><polygon fill="none" points="49.5,597.2539,53.5,601.2539,49.5,605.2539,45.5,601.2539" style="stroke: #B38D22; stroke-width: 1.0;"/><text fill="#000000" font-family="sans-serif" font-size="11" lengthAdjust="spacingAndGlyphs" text-decoration="underline" textLength="155" x="58.5" y="605.2549">MAX_LOGICAL_CHANNELS : int</text><rect fill="none" height="6" style="stroke: #C82930; stroke-width: 1.0;" width="6" x="46.5" y="613.0898"/><text fill="#000000" font-family="sans-serif" font-size="11" lengthAdjust="spacingAndGlyphs" textLength="168" x="58.5" y="619.0908">currentCardChannel : CardChannel</text><rect fill="none" height="6" style="stroke: #C82930; stroke-width: 1.0;" width="6" x="46.5" y="626.9258"/><text fill="#000000" font-family="sans-serif" font-size="11" lengthAdjust="spacingAndGlyphs" textLength="108" x="58.5" y="632.9268">associatedCard : Card</text><rect fill="none" height="6" style="stroke: #C82930; stroke-width: 1.0;" width="6" x="46.5" y="640.7617"/><text fill="#000000" font-family="sans-serif" font-size="11" lengthAdjust="spacingAndGlyphs" textLength="125" x="58.5" y="646.7627">status : IHealthCardStatus</text><rect fill="none" height="6" style="stroke: #C82930; stroke-width: 1.0;" width="6" x="46.5" y="654.5977"/><text fill="#000000" font-family="sans-serif" font-size="11" lengthAdjust="spacingAndGlyphs" textLength="118" x="58.5" y="660.5986">responseBufferSize : int</text><rect fill="none" height="6" style="stroke: #C82930; stroke-width: 1.0;" width="6" x="46.5" y="668.4336"/><text fill="#000000" font-family="sans-serif" font-size="11" lengthAdjust="spacingAndGlyphs" textLength="185" x="58.5" y="674.4346">openChannels : Vector&lt;CardChannel&gt;</text><line style="stroke: #A80036; stroke-width: 1.5;" x1="39.5" x2="248.5" y1="680.8516" y2="680.8516"/><ellipse cx="49.5" cy="693.2695" fill="#84BE84" rx="3" ry="3" style="stroke: #038048; stroke-width: 1.0;"/><text fill="#000000" font-family="sans-serif" font-size="11" lengthAdjust="spacingAndGlyphs" textLength="61" x="58.5" y="696.2705">HealthCard()</text><polygon fill="#FFFF44" points="49.5,702.1055,53.5,706.1055,49.5,710.1055,45.5,706.1055" style="stroke: #B38D22; stroke-width: 1.0;"/><text fill="#000000" font-family="sans-serif" font-size="11" lengthAdjust="spacingAndGlyphs" textLength="61" x="58.5" y="710.1064">HealthCard()</text><ellipse cx="49.5" cy="720.9414" fill="#84BE84" rx="3" ry="3" style="stroke: #038048; stroke-width: 1.0;"/><text fill="#000000" font-family="sans-serif" font-size="11" lengthAdjust="spacingAndGlyphs" textLength="105" x="58.5" y="723.9424">openLogicalChannel()</text><ellipse cx="49.5" cy="734.7773" fill="#84BE84" rx="3" ry="3" style="stroke: #038048; stroke-width: 1.0;"/><text fill="#000000" font-family="sans-serif" font-size="11" lengthAdjust="spacingAndGlyphs" textLength="73" x="58.5" y="737.7783">closeChannel()</text><ellipse cx="49.5" cy="748.6133" fill="#84BE84" rx="3" ry="3" style="stroke: #038048; stroke-width: 1.0;"/><text fill="#000000" font-family="sans-serif" font-size="11" lengthAdjust="spacingAndGlyphs" textLength="62" x="58.5" y="751.6143">setChannel()</text><ellipse cx="49.5" cy="762.4492" fill="#84BE84" rx="3" ry="3" style="stroke: #038048; stroke-width: 1.0;"/><text fill="#000000" font-family="sans-serif" font-size="11" lengthAdjust="spacingAndGlyphs" textLength="121" x="58.5" y="765.4502">getCurrentCardChannel()</text><ellipse cx="49.5" cy="776.2852" fill="#84BE84" rx="3" ry="3" style="stroke: #038048; stroke-width: 1.0;"/><text fill="#000000" font-family="sans-serif" font-size="11" lengthAdjust="spacingAndGlyphs" textLength="124" x="58.5" y="779.2861">getResponseBufferSize()</text><ellipse cx="49.5" cy="790.1211" fill="#84BE84" rx="3" ry="3" style="stroke: #038048; stroke-width: 1.0;"/><text fill="#000000" font-family="sans-serif" font-size="11" lengthAdjust="spacingAndGlyphs" textLength="54" x="58.5" y="793.1221">getStatus()</text><!--class IHealthCard--><rect fill="#FEFECE" filter="url(#fm7mgv9pjg1pi)" height="89.5078" id="IHealthCard" style="stroke: #A80036; stroke-width: 1.5;" width="151" x="49.5" y="279.5"/><ellipse cx="87.9" cy="295.5" fill="#B4A7E5" rx="11" ry="11" style="stroke: #A80036; stroke-width: 1.0;"/><path d="M88.9,292.5 L88.9,298.5 L90.9,298.5 L91.3844,298.5 L91.9,299.125 L91.9,299.5 L91.9,299.875 L91.3844,300.5 L90.9,300.5 L84.9,300.5 L84.4156,300.5 L83.9,299.875 L83.9,299.5 L83.9,299.125 L84.4156,298.5 L84.9,298.5 L86.9,298.5 L86.9,292.5 L84.9,292.5 L84.4156,292.5 L83.9,291.875 L83.9,291.5 L83.9,291.125 L84.4156,290.5 L84.9,290.5 L90.9,290.5 L91.3844,290.5 L91.9,291.125 L91.9,291.5 L91.9,291.875 L91.3844,292.5 L90.9,292.5 L88.9,292.5 Z "/><text fill="#000000" font-family="sans-serif" font-size="12" font-style="italic" lengthAdjust="spacingAndGlyphs" textLength="67" x="107.1" y="300.4102">IHealthCard</text><line style="stroke: #A80036; stroke-width: 1.5;" x1="50.5" x2="199.5" y1="311.5" y2="311.5"/><line style="stroke: #A80036; stroke-width: 1.5;" x1="50.5" x2="199.5" y1="319.5" y2="319.5"/><ellipse cx="60.5" cy="331.918" fill="#84BE84" rx="3" ry="3" style="stroke: #038048; stroke-width: 1.0;"/><text fill="#000000" font-family="sans-serif" font-size="11" font-style="italic" lengthAdjust="spacingAndGlyphs" textLength="125" x="69.5" y="334.9189">getCurrentCardChannel()</text><ellipse cx="60.5" cy="345.7539" fill="#84BE84" rx="3" ry="3" style="stroke: #038048; stroke-width: 1.0;"/><text fill="#000000" font-family="sans-serif" font-size="11" font-style="italic" lengthAdjust="spacingAndGlyphs" textLength="124" x="69.5" y="348.7549">getResponseBufferSize()</text><ellipse cx="60.5" cy="359.5898" fill="#84BE84" rx="3" ry="3" style="stroke: #038048; stroke-width: 1.0;"/><text fill="#000000" font-family="sans-serif" font-size="11" font-style="italic" lengthAdjust="spacingAndGlyphs" textLength="54" x="69.5" y="362.5908">getStatus()</text><!--class IHealthCardStatus--><rect fill="#FEFECE" filter="url(#fm7mgv9pjg1pi)" height="61.8359" id="IHealthCardStatus" style="stroke: #A80036; stroke-width: 1.5;" width="133" x="235.5" y="293.5"/><ellipse cx="250.5" cy="309.5" fill="#B4A7E5" rx="11" ry="11" style="stroke: #A80036; stroke-width: 1.0;"/><path d="M251.5,306.5 L251.5,312.5 L253.5,312.5 L253.9844,312.5 L254.5,313.125 L254.5,313.5 L254.5,313.875 L253.9844,314.5 L253.5,314.5 L247.5,314.5 L247.0156,314.5 L246.5,313.875 L246.5,313.5 L246.5,313.125 L247.0156,312.5 L247.5,312.5 L249.5,312.5 L249.5,306.5 L247.5,306.5 L247.0156,306.5 L246.5,305.875 L246.5,305.5 L246.5,305.125 L247.0156,304.5 L247.5,304.5 L253.5,304.5 L253.9844,304.5 L254.5,305.125 L254.5,305.5 L254.5,305.875 L253.9844,306.5 L253.5,306.5 L251.5,306.5 Z "/><text fill="#000000" font-family="sans-serif" font-size="12" font-style="italic" lengthAdjust="spacingAndGlyphs" textLength="101" x="264.5" y="314.4102">IHealthCardStatus</text><line style="stroke: #A80036; stroke-width: 1.5;" x1="236.5" x2="367.5" y1="325.5" y2="325.5"/><line style="stroke: #A80036; stroke-width: 1.5;" x1="236.5" x2="367.5" y1="333.5" y2="333.5"/><ellipse cx="246.5" cy="345.918" fill="#84BE84" rx="3" ry="3" style="stroke: #038048; stroke-width: 1.0;"/><text fill="#000000" font-family="sans-serif" font-size="11" font-style="italic" lengthAdjust="spacingAndGlyphs" textLength="42" x="255.5" y="348.9189">isValid()</text><polygon fill="#FFFFFF" filter="url(#fm7mgv9pjg1pi)" points="555.5,899,866.5,899,873.5,922.6094,880.5,922.6094,880.5,954.2188,555.5,954.2188,555.5,899" style="stroke: #000000; stroke-width: 1.5;"/><line style="stroke: #000000; stroke-width: 1.5;" x1="555.5" x2="873.5" y1="922.6094" y2="922.6094"/><text fill="#000000" font-family="sans-serif" font-size="14" font-weight="bold" lengthAdjust="spacingAndGlyphs" textLength="305" x="559.5" y="915.5332">de.gematik.ti.healthcardaccess.cardobjects</text><polygon fill="#FFFFFF" filter="url(#fm7mgv9pjg1pi)" points="962.5,644.5,1265.5,644.5,1272.5,668.1094,1279.5,668.1094,1279.5,699.7188,962.5,699.7188,962.5,644.5" style="stroke: #000000; stroke-width: 1.5;"/><line style="stroke: #000000; stroke-width: 1.5;" x1="962.5" x2="1272.5" y1="668.1094" y2="668.1094"/><text fill="#000000" font-family="sans-serif" font-size="14" font-weight="bold" lengthAdjust="spacingAndGlyphs" textLength="297" x="966.5" y="661.0332">de.gematik.ti.healthcardaccess.commands</text><polygon fill="#FFFFFF" filter="url(#fm7mgv9pjg1pi)" points="284.5,644.5,595.5,644.5,602.5,668.1094,609.5,668.1094,609.5,699.7188,284.5,699.7188,284.5,644.5" style="stroke: #000000; stroke-width: 1.5;"/><line style="stroke: #000000; stroke-width: 1.5;" x1="284.5" x2="602.5" y1="668.1094" y2="668.1094"/><text fill="#000000" font-family="sans-serif" font-size="14" font-weight="bold" lengthAdjust="spacingAndGlyphs" textLength="305" x="288.5" y="661.0332">de.gematik.ti.healthcardaccess.healthcards</text><polygon fill="#FFFFFF" filter="url(#fm7mgv9pjg1pi)" points="1328.5,644.5,1691.5,644.5,1698.5,668.1094,1705.5,668.1094,1705.5,699.7188,1328.5,699.7188,1328.5,644.5" style="stroke: #000000; stroke-width: 1.5;"/><line style="stroke: #000000; stroke-width: 1.5;" x1="1328.5" x2="1698.5" y1="668.1094" y2="668.1094"/><text fill="#000000" font-family="sans-serif" font-size="14" font-weight="bold" lengthAdjust="spacingAndGlyphs" textLength="357" x="1332.5" y="661.0332">de.gematik.ti.healthcardaccess.operation.executor</text><polygon fill="#FFFFFF" filter="url(#fm7mgv9pjg1pi)" points="644.5,644.5,913.5,644.5,920.5,668.1094,927.5,668.1094,927.5,699.7188,644.5,699.7188,644.5,644.5" style="stroke: #000000; stroke-width: 1.5;"/><line style="stroke: #000000; stroke-width: 1.5;" x1="644.5" x2="920.5" y1="668.1094" y2="668.1094"/><text fill="#000000" font-family="sans-serif" font-size="14" font-weight="bold" lengthAdjust="spacingAndGlyphs" textLength="263" x="648.5" y="661.0332">de.gematik.ti.healthcardaccess.result</text><polygon fill="#FFFFFF" filter="url(#fm7mgv9pjg1pi)" points="916,899,1242,899,1249,922.6094,1256,922.6094,1256,954.2188,916,954.2188,916,899" style="stroke: #000000; stroke-width: 1.5;"/><line style="stroke: #000000; stroke-width: 1.5;" x1="916" x2="1249" y1="922.6094" y2="922.6094"/><text fill="#000000" font-family="sans-serif" font-size="14" font-weight="bold" lengthAdjust="spacingAndGlyphs" textLength="320" x="920" y="915.5332">de.gematik.ti.healthcardaccess.sanitychecker</text><polygon fill="#FFFFFF" filter="url(#fm7mgv9pjg1pi)" points="1326.5,899,1691.5,899,1698.5,922.6094,1705.5,922.6094,1705.5,954.2188,1326.5,954.2188,1326.5,899" style="stroke: #000000; stroke-width: 1.5;"/><line style="stroke: #000000; stroke-width: 1.5;" x1="1326.5" x2="1698.5" y1="922.6094" y2="922.6094"/><text fill="#000000" font-family="sans-serif" font-size="14" font-weight="bold" lengthAdjust="spacingAndGlyphs" textLength="359" x="1330.5" y="915.5332">de.gematik.ti.healthcardaccess.security.keyentities</text><!--link IHealthCard to HealthCard--><path d="M128.537,389.819 C130.915,433.058 134.129,491.512 137.012,543.923 " fill="none" id="IHealthCard-HealthCard" style="stroke: #A80036; stroke-width: 1.0;"/><polygon fill="none" points="121.535,389.963,127.426,369.609,135.513,389.194,121.535,389.963" style="stroke: #A80036; stroke-width: 1.0;"/><!--link IHealthCardStatus to de.gematik.ti.healthcardaccess.healthcards--><path d="M322.417,374.149 C353.423,448.028 411.347,586.049 435.727,644.14 " fill="none" id="IHealthCardStatus-de.gematik.ti.healthcardaccess.healthcards" style="stroke: #A80036; stroke-width: 1.0;"/><polygon fill="none" points="315.899,376.707,314.614,355.556,328.808,371.289,315.899,376.707" style="stroke: #A80036; stroke-width: 1.0;"/><!--link IHealthCardStatus to HealthCard--><path d="M282.834,367.41 C262.843,411.125 230.513,481.822 202.079,543.998 " fill="none" id="IHealthCardStatus-HealthCard" style="stroke: #A80036; stroke-width: 1.0;"/><polygon fill="#FFFFFF" points="288.255,355.556,282.1221,359.3491,283.2646,366.4691,289.3975,362.676,288.255,355.556" style="stroke: #A80036; stroke-width: 1.0;"/><!--link IHealthCardType to de.gematik.ti.healthcardaccess.healthcards--><path d="M464.499,368.698 C460.312,441.038 452.001,584.604 448.554,644.15 " fill="none" id="IHealthCardType-de.gematik.ti.healthcardaccess.healthcards" style="stroke: #A80036; stroke-width: 1.0;"/><polygon fill="none" points="457.512,368.268,465.657,348.706,471.489,369.077,457.512,368.268" style="stroke: #A80036; stroke-width: 1.0;"/><!--link AbstractHealthCardCommand to de.gematik.ti.healthcardaccess.commands--><path d="M1015.85,483.74 C1050.44,545.345 1086.43,609.429 1106.04,644.356 " fill="none" id="AbstractHealthCardCommand-de.gematik.ti.healthcardaccess.commands" style="stroke: #A80036; stroke-width: 1.0;"/><polygon fill="none" points="1009.6,486.894,1005.907,466.028,1021.8,480.04,1009.6,486.894" style="stroke: #A80036; stroke-width: 1.0;"/><!--link IHealthCardCommand to AbstractHealthCardCommand--><path d="M927,142.644 C927,154.949 927,168.71 927,182.999 " fill="none" id="IHealthCardCommand-AbstractHealthCardCommand" style="stroke: #A80036; stroke-width: 1.0;"/><polygon fill="none" points="920,142.265,927,122.265,934,142.265,920,142.265" style="stroke: #A80036; stroke-width: 1.0;"/><!--link AbstractHealthCardCommand to de.gematik.ti.healthcardaccess.result--><path d="M864.68,478.207 C838.859,541.476 811.555,608.382 796.874,644.356 " fill="none" id="AbstractHealthCardCommand-de.gematik.ti.healthcardaccess.result" style="stroke: #A80036; stroke-width: 1.0;"/><polygon fill="#FFFFFF" points="869.65,466.028,863.6791,470.0714,865.115,477.1381,871.0858,473.0947,869.65,466.028" style="stroke: #A80036; stroke-width: 1.0;"/><text fill="#000000" font-family="sans-serif" font-size="13" lengthAdjust="spacingAndGlyphs" textLength="53" x="858" y="510.4951">response</text><!--link de.gematik.ti.healthcardaccess.commands to de.gematik.ti.healthcardaccess.cardobjects--><path d="M1076,707.766 C1041.04,734.204 990.944,770.871 945,800 C886.811,836.892 817.093,874.515 770.412,898.817 " fill="none" id="de.gematik.ti.healthcardaccess.commands-de.gematik.ti.healthcardaccess.cardobjects" style="stroke: #A80036; stroke-width: 1.0;"/><polygon fill="#FFFFFF" points="1086.79,699.565,1079.5928,700.0132,1077.2385,706.8292,1084.4356,706.3809,1086.79,699.565" style="stroke: #A80036; stroke-width: 1.0;"/><!--link de.gematik.ti.healthcardaccess.commands to de.gematik.ti.healthcardaccess.sanitychecker--><path d="M1115.52,712.507 C1108.32,764.474 1095.86,854.4 1089.68,898.932 " fill="none" id="de.gematik.ti.healthcardaccess.commands-de.gematik.ti.healthcardaccess.sanitychecker" style="stroke: #A80036; stroke-width: 1.0;"/><polygon fill="#FFFFFF" points="1117.32,699.545,1112.534,704.9389,1115.6723,711.4313,1120.4582,706.0374,1117.32,699.545" style="stroke: #A80036; stroke-width: 1.0;"/><!--link de.gematik.ti.healthcardaccess.operation to de.gematik.ti.healthcardaccess.commands--><path d="M1303.755,475.8707 C1303.6195,476.1679 1303.4834,476.4649 1303.3466,476.7617 C1302.7998,477.9491 1302.2433,479.1337 1301.6774,480.3153 C1299.4138,485.0417 1297,489.7211 1294.4536,494.3486 C1289.3608,503.6034 1283.7376,512.6501 1277.7245,521.4489 C1265.6984,539.0463 1252.1131,555.6514 1238.0938,570.9441 C1210.055,601.5295 1180.28,626.865 1157.77,644.389 " fill="none" id="de.gematik.ti.healthcardaccess.operation-de.gematik.ti.healthcardaccess.commands" style="stroke: #A80036; stroke-width: 1.0;"/><polygon fill="#FFFFFF" points="1303.755,475.8707,1297.6264,479.6707,1298.777,486.7894,1304.9056,482.9894,1303.755,475.8707" style="stroke: #A80036; stroke-width: 1.0;"/><!--link de.gematik.ti.healthcardaccess.operation to de.gematik.ti.healthcardaccess.healthcards--><path d="M1303.4899,471.3966 C1303.2757,471.6429 1303.0614,471.8877 1302.8472,472.1311 C1301.1338,474.0777 1299.4242,475.9288 1297.7169,477.6889 C1294.3025,481.2091 1290.8979,484.3654 1287.4929,487.1944 C1280.6828,492.8525 1273.8709,497.2015 1266.975,500.5342 C1253.1831,507.1995 1239.055,509.7994 1223.9325,510.6764 C1193.6875,512.4303 1159.465,507.292 1116,514 C1008.4,530.606 729.716,507.913 627,544 C566.019,565.424 507.107,613.909 474.108,644.389 " fill="none" id="de.gematik.ti.healthcardaccess.operation-de.gematik.ti.healthcardaccess.healthcards" style="stroke: #A80036; stroke-width: 1.0;"/><polygon fill="#FFFFFF" points="1303.4899,471.3966,1296.534,473.2978,1295.6136,480.45,1302.5696,478.5487,1303.4899,471.3966" style="stroke: #A80036; stroke-width: 1.0;"/><!--link de.gematik.ti.healthcardaccess.operation to HealthCard--><path d="M1303.7918,468.3476 C1303.0926,468.6177 1302.3187,468.8908 1301.4727,469.1667 C1298.0886,470.2702 1293.5504,471.4182 1288.0211,472.6003 C1276.9625,474.9646 1261.9393,477.4655 1244.2548,480.0205 C1208.8858,485.1304 1162.8713,490.4565 1116.637,495.3377 C1024.1685,505.1002 930.821,513.0835 920,514 C847.627,520.13 333.211,514.141 267,544 C261.124,546.65 255.384,549.72 249.798,553.122 " fill="none" id="de.gematik.ti.healthcardaccess.operation-HealthCard" style="stroke: #A80036; stroke-width: 1.0;"/><polygon fill="#FFFFFF" points="1303.7918,468.3476,1296.7535,466.7787,1292.5982,472.6723,1299.6366,474.2411,1303.7918,468.3476" style="stroke: #A80036; stroke-width: 1.0;"/><!--link de.gematik.ti.healthcardaccess.operation to de.gematik.ti.healthcardaccess.operation.executor--><path d="M1312.04,325.563 C1314.65,329.964 1453.5,563.973 1501.15,644.284 " fill="none" id="de.gematik.ti.healthcardaccess.operation-de.gematik.ti.healthcardaccess.operation.executor" style="stroke: #A80036; stroke-width: 1.0;"/><polygon fill="#FFFFFF" points="1312.04,325.563,1311.6601,332.7641,1318.1611,335.8844,1318.541,328.6834,1312.04,325.563" style="stroke: #A80036; stroke-width: 1.0;"/><!--link de.gematik.ti.healthcardaccess.commands to de.gematik.ti.healthcardaccess.security--><path d="M1161.29,699.545 C1201.31,728.48 1260.41,778.786 1287,839 C1288.8825,843.2633 1290.3678,847.7624 1291.5245,852.3778 C1291.6691,852.9547 1291.8086,853.5335 1291.943,854.1138 C1292.0102,854.404 1292.0762,854.6945 1292.1409,854.9855 " fill="none" id="de.gematik.ti.healthcardaccess.commands-de.gematik.ti.healthcardaccess.security" style="stroke: #A80036; stroke-width: 1.0; stroke-dasharray: 7.0,7.0;"/><polygon fill="#A80036" points="1292.1409,854.9855,1294.0904,845.3315,1291.0548,850.1049,1286.2814,847.0693,1292.1409,854.9855" style="stroke: #A80036; stroke-width: 1.0;"/><!--
@startuml

package de.gematik.ti.healthcardaccess {
    package de.gematik.ti.healthcardaccess.cardobjects {
    }
}
package de.gematik.ti.healthcardaccess {
    package de.gematik.ti.healthcardaccess.commands {
    }
}
package de.gematik.ti.healthcardaccess {
    package de.gematik.ti.healthcardaccess.healthcards {
    }
}
package de.gematik.ti.healthcardaccess {
    package de.gematik.ti.healthcardaccess.operation {
    }
}
package de.gematik.ti.healthcardaccess {
    package de.gematik.ti.healthcardaccess.operation {
        package de.gematik.ti.healthcardaccess.operation.executor {
        }
    }
}
package de.gematik.ti.healthcardaccess {
    package de.gematik.ti.healthcardaccess.result {
    }
}
package de.gematik.ti.healthcardaccess {
    package de.gematik.ti.healthcardaccess.sanitychecker {
    }
}
package de.gematik.ti.healthcardaccess {
    interface IHealthCardType {
    }
}
package de.gematik.ti.healthcardaccess {
    interface IHealthCardCommand {
        {abstract} + executeOn()
    }
}
package de.gematik.ti.healthcardaccess {
    abstract class AbstractHealthCardCommand {
        {static} - LOG : Logger
        {static} # NE_MAX_EXTENDED_LENGTH : int
        {static} # NE_MAX_SHORT_LENGTH : int
        {static} # EXPECT_ALL : int
        # cla : int
        # ins : int
        # p1 : int
        # p2 : int
        # data : byte[]
        # ne : int
        # AbstractHealthCardCommand()
        # AbstractHealthCardCommand()
        {abstract} + getTechnicalResponseApdus()
        - inferResponseStatusFromResponseCode()
        + executeOn()
        # sendApdu()
        - getCommandApdu()
    }
}

package de.gematik.ti.healthcardaccess {
    class HealthCard {
        {static} + BASIC_CHANNEL_IDX : int
        {static} # MAX_LOGICAL_CHANNELS : int
        - currentCardChannel : CardChannel
        - associatedCard : Card
        - status : IHealthCardStatus
        - responseBufferSize : int
        - openChannels : Vector<CardChannel>
        + HealthCard()
        # HealthCard()
        + openLogicalChannel()
        + closeChannel()
        + setChannel()
        + getCurrentCardChannel()
        + getResponseBufferSize()
        + getStatus()
    }
}

package de.gematik.ti.healthcardaccess {
    interface IHealthCard {
        {abstract} + getCurrentCardChannel()
        {abstract} + getResponseBufferSize()
        {abstract} + getStatus()
    }
}
package de.gematik.ti.healthcardaccess {
    interface IHealthCardStatus {
        {abstract} + isValid()
    }
}

package de.gematik.ti.healthcardaccess {
    package de.gematik.ti.healthcardaccess.security {
    }
}
package de.gematik.ti.healthcardaccess {
    package de.gematik.ti.healthcardaccess.security {
        package de.gematik.ti.healthcardaccess.security.keyentities {
        }
    }
}

HealthCard -up-|> IHealthCard
de.gematik.ti.healthcardaccess.healthcards -up-|> IHealthCardStatus
IHealthCardStatus o- - HealthCard
de.gematik.ti.healthcardaccess.healthcards -up-|> IHealthCardType
de.gematik.ti.healthcardaccess.commands -up-|> AbstractHealthCardCommand
AbstractHealthCardCommand -up-|> IHealthCardCommand
AbstractHealthCardCommand o- - de.gematik.ti.healthcardaccess.result : response
de.gematik.ti.healthcardaccess.commands o- - de.gematik.ti.healthcardaccess.cardobjects
de.gematik.ti.healthcardaccess.commands o- - de.gematik.ti.healthcardaccess.sanitychecker
de.gematik.ti.healthcardaccess.operation o- - de.gematik.ti.healthcardaccess.commands
de.gematik.ti.healthcardaccess.operation o- - de.gematik.ti.healthcardaccess.healthcards
de.gematik.ti.healthcardaccess.operation o- - HealthCard
de.gematik.ti.healthcardaccess.operation o- - de.gematik.ti.healthcardaccess.operation.executor
de.gematik.ti.healthcardaccess.commands ..> de.gematik.ti.healthcardaccess.security

@enduml

PlantUML version 1.2019.06(Fri May 24 19:10:25 CEST 2019)
(APACHE source distribution)
Java Runtime: OpenJDK Runtime Environment
JVM: OpenJDK 64-Bit Server VM
Java Version: 11.0.4+10-b304.69
Operating System: Windows 7
OS Version: 6.1
Default Encoding: Cp1252
Language: de
Country: DE
--></g></svg>